<svg id="Layer_1" data-name="Layer 1" xmlns="http://www.w3.org/2000/svg" viewBox="0 0 12.68 14.38"><defs><style>.cls-1{fill:#231f20;}</style></defs><path class="cls-1" d="M6.53,9.76a3.84,3.84,0,0,0-.39-.91,13.72,13.72,0,0,0-1-1.31c-.36-.44-.57-.72-.66-.83a2.58,2.58,0,0,1-.29-.53,1.36,1.36,0,0,1-.09-.48,1,1,0,0,1,.33-.77,1.16,1.16,0,0,1,.79-.31A1.24,1.24,0,0,1,6.09,5a1.59,1.59,0,0,1,.44.7A1.65,1.65,0,0,1,6.94,5a1.2,1.2,0,0,1,.84-.33,1.12,1.12,0,0,1,.81.31,1,1,0,0,1,.34.72,1.8,1.8,0,0,1-.2.77,5.06,5.06,0,0,1-.75,1A11.44,11.44,0,0,0,6.93,8.86,3.59,3.59,0,0,0,6.53,9.76Z"/></svg>