<svg xmlns="http://www.w3.org/2000/svg" viewBox="0 0 94.1 91.62"><defs><style>.cls-1{fill-rule:evenodd;}</style></defs><g id="Слой_1" data-name="Слой 1"><path class="cls-1" d="M73.41,31.82a1.52,1.52,0,0,1,1.81-1.19,1.57,1.57,0,0,1,1.16,1.85L67.6,73.69a1.54,1.54,0,0,1-1.49,1.23H26.47A1.52,1.52,0,0,1,25,73.62L16.21,32.48a1.55,1.55,0,0,1,1.16-1.85,1.52,1.52,0,0,1,1.81,1.19l8.52,40H64.89Z"/><path class="cls-1" d="M19.45,41.45c.44,0,1.34-1,2.23-2,1.34-1.54,2.69-3.08,4.48-3.08s3.14,1.54,4.48,3.08c.9,1,1.79,2,2.23,2s1.34-1,2.23-2c1.35-1.54,2.69-3.08,4.48-3.08s3.14,1.54,4.49,3.08c.89,1,1.78,2,2.23,2s1.33-1,2.22-2c1.35-1.54,2.69-3.08,4.49-3.08s3.13,1.54,4.48,3.08c.89,1,1.78,2,2.23,2s1.33-1,2.22-2c1.35-1.54,2.7-3.08,4.49-3.08s3.14,1.54,4.48,3.08c.89,1,1.79,2,2.23,2v3.12c-1.79,0-3.14-1.54-4.48-3.07-.9-1-1.79-2-2.23-2s-1.34,1-2.23,2c-1.35,1.53-2.69,3.07-4.48,3.07S56.58,43,55.23,41.5c-.89-1-1.78-2-2.22-2s-1.34,1-2.23,2c-1.35,1.53-2.69,3.07-4.48,3.07S43.16,43,41.81,41.5c-.89-1-1.78-2-2.23-2s-1.33,1-2.23,2C36,43,34.66,44.57,32.87,44.57S29.73,43,28.39,41.5c-.89-1-1.79-2-2.23-2s-1.34,1-2.23,2c-1.34,1.53-2.69,3.07-4.48,3.07Z"/><path class="cls-1" d="M39.15,31l-.47.68-3.33,4.81-6.12,8.85a2.27,2.27,0,0,0,.51,3.11h0a2.15,2.15,0,0,0,3-.52L38.9,39l.69.5L31.34,51.44a2.29,2.29,0,0,0,.52,3.12h0a2.15,2.15,0,0,0,3-.53l8.25-11.91.68.5-9,13.06a2.28,2.28,0,0,0,.51,3.11h0a2.14,2.14,0,0,0,3-.52l9-13.06.68.49L39.81,57.62a2.28,2.28,0,0,0,.51,3.11h0a2.15,2.15,0,0,0,3-.53l8.25-11.91,3.32-4.8.86.62L52.2,49.29A2.09,2.09,0,0,0,53,52h0a2,2,0,0,0,2.76-.13l8-11.57a8.23,8.23,0,0,0,.47-8.76l-.78-1.44a2.34,2.34,0,0,1,.14-2.55l1-1.31a1.41,1.41,0,0,0,.27-1.09,1.39,1.39,0,0,0-.58-1l-10.42-7.6a1.39,1.39,0,0,0-2,.32l-2.55,3.56a2.44,2.44,0,0,1-1.3.93,7.65,7.65,0,0,0-4.45,3.18l-2.21,3.19Z"/></g></svg>