<svg xmlns="http://www.w3.org/2000/svg" viewBox="0 0 94.1 91.62"><defs><style>.cls-1{fill-rule:evenodd;}</style></defs><g id="Слой_1" data-name="Слой 1"><path class="cls-1" d="M22,20.4H70V71.21H20.49V20.4ZM67,23.52H23.53V68.09H67Z"/><polygon class="cls-1" points="23.08 20.86 69.54 68.55 67.39 70.76 20.93 23.07 23.08 20.86"/><polygon class="cls-1" points="20.93 68.55 67.39 20.86 69.54 23.07 23.08 70.76 20.93 68.55"/><path class="cls-1" d="M45.24,20.4a24.39,24.39,0,0,1,17.5,7.44,25.88,25.88,0,0,1,0,35.93,24.3,24.3,0,0,1-35,0,25.88,25.88,0,0,1,0-35.93,24.38,24.38,0,0,1,17.5-7.44Zm15.35,9.65a21.31,21.31,0,0,0-30.7,0,22.71,22.71,0,0,0,0,31.52,21.33,21.33,0,0,0,30.7,0,22.71,22.71,0,0,0,0-31.52Z"/></g></svg>