<svg xmlns="http://www.w3.org/2000/svg" viewBox="0 0 94.1 91.62"><defs><style>.cls-1{fill-rule:evenodd;}</style></defs><g id="Слой_1" data-name="Слой 1"><path class="cls-1" d="M33.34,38.17H73.69l.17,1.37,2.68,21.54.22,1.75H14.09V61.27c0-5.62.8-11.3,3.59-15.65s7.69-7.45,15.66-7.45ZM71,41.3H33.34c-6.79,0-10.82,2.41-13.13,6-2.15,3.35-2.92,7.8-3.06,12.38H73.32Z"/><path class="cls-1" d="M26.42,25.79a1.56,1.56,0,0,1,0-3.12h44.2a1.55,1.55,0,0,1,1.52,1.42l4.41,37a1.52,1.52,0,1,1-3,.38L69.28,25.79Z"/><path class="cls-1" d="M10.7,68.8a1.51,1.51,0,0,1-2-.75A1.58,1.58,0,0,1,9.41,66l74-35.41a1.5,1.5,0,0,1,2,.75,1.58,1.58,0,0,1-.74,2.07Z"/><path class="cls-1" d="M84.68,66a1.59,1.59,0,0,1,.74,2.08,1.51,1.51,0,0,1-2,.75l-74-35.42a1.57,1.57,0,0,1-.73-2.07,1.5,1.5,0,0,1,2-.75Z"/></g></svg>