<svg xmlns="http://www.w3.org/2000/svg" viewBox="0 0 94.1 91.62"><defs><style>.cls-1{fill-rule:evenodd;}</style></defs><g id="Слой_1" data-name="Слой 1"><path class="cls-1" d="M32.48,45.46l-6.29-7.18H9.42V59.05H20.56l7.6-8.66,4.32-4.93ZM27.79,36l7.5,8.55.81.93-.81.92-5.13,5.85-8,9.13-.4.46h-15V35.52H27.39Z"/><path class="cls-1" d="M73.15,38.28l-12.25,14,5.95,6.79H84.68V38.28ZM58.09,51.34,71.55,36l.41-.46H87.37v26.3H65.66l-.4-.46-7.17-8.18-.81-.92Z"/><path class="cls-1" d="M62.22,46.62,54.9,38.28H42.39l-7.1,8.1L31,51.31l6.79,7.74H51.32l6.77-7.71,4.13-4.72ZM56.5,36,65,45.7l.81.92-.81.93-4.94,5.63-7.17,8.18-.4.46h-16l-.4-.46-8-9.13-.81-.92.81-.92,5.13-5.86L40.79,36l.41-.46H56.1Z"/><path class="cls-1" d="M27.68,74.41a1.31,1.31,0,0,1-1.89.19,1.4,1.4,0,0,1-.19-1.93L65.51,22.92a1.32,1.32,0,0,1,1.89-.19,1.41,1.41,0,0,1,.18,1.94Z"/><path class="cls-1" d="M67.58,72.67a1.39,1.39,0,0,1-.18,1.93,1.31,1.31,0,0,1-1.89-.19L25.6,24.67a1.41,1.41,0,0,1,.19-1.94,1.32,1.32,0,0,1,1.89.19Z"/></g></svg>