<svg id="Layer_1" data-name="Layer 1" xmlns="http://www.w3.org/2000/svg" viewBox="0 0 267.61 328.44"><defs><style>.cls-1,.cls-2{fill:none;}.cls-2,.cls-3{stroke:#010101;stroke-linecap:round;stroke-linejoin:round;}.cls-2{stroke-width:1.78px;}.cls-3{fill:#eae6a0;stroke-width:1.54px;}.cls-4{fill:#010101;}</style></defs><polygon class="cls-1" points="104.93 65.1 105.12 65.53 82.41 89 70.86 80.44 104.93 65.1"/><path class="cls-2" d="M63.89,50.47A17.78,17.78,0,0,0,66.27,44L94.7,42.22l.17.35L68.22,69l-2-4.41,3.26-1.46Z"/><rect class="cls-2" x="53.44" y="67.25" width="13.38" height="0.01" transform="translate(-22.19 30.34) rotate(-24.05)"/><path class="cls-1" d="M68.22,69,94.87,42.57l17.6,15.35-7.35,7.61-.19-.43L70.85,80.44c-.21-.17-7.94-5.87-8.14-6Z"/><polygon class="cls-2" points="112.13 81.25 80.66 113.44 66.4 82.44 70.86 80.44 82.41 89 105.12 65.53 112.13 81.25"/><polygon class="cls-2" points="59.84 99.07 61.59 84.61 66.4 82.44 80.66 113.44 34.78 115.76 27.83 100.19 59.84 99.07"/><path class="cls-2" d="M62.87,74.53l8,5.91c-2.3,1-7,3.13-9.26,4.18C61.66,84.48,62.7,74.61,62.87,74.53Z"/><path class="cls-2" d="M54,70l12.22-5.45,2,4.41-5.51,5.46.16.12-.07.09L56,75C56.32,74.84,54.12,70.25,54,70Z"/><path class="cls-2" d="M67.78,59.19,49,67.56l-1.4-3.15L66.37,56Z"/><path class="cls-2" d="M56.84,42.18l-3.2,2L48,40.29l-.82,6.77-3.49,1,12.6,12.5-8.64,3.85-2.49-5.57c-16.9-2.6-20-27.69-4-34.21,15.52-7.55,32.13,11.54,22.77,25.84L66.37,56,57.74,59.9Z"/><polygon class="cls-2" points="47.15 47.06 47.97 40.29 53.64 44.14 56.84 42.18 57.74 59.9 56.26 60.56 43.66 48.06 47.15 47.06"/><polygon class="cls-2" points="49.02 67.56 67.78 59.19 69.51 63.08 66.25 64.54 66.24 64.53 54.02 69.98 54.03 69.99 50.76 71.45 49.02 67.56"/><polygon class="cls-1" points="59.84 99.07 27.83 100.19 27.69 99.87 61.59 84.61 59.84 99.07"/><path class="cls-2" d="M54,70c.09.28,2.29,4.83,2,5L17.52,77.08l-.34-.34s21.2-20.68,21.21-20.67a17.81,17.81,0,0,0,6.74,2.77l5.63,12.61Z"/><path class="cls-1" d="M27.69,99.87l.14.32-10.95.38.64-23.49L62.8,74.62l-1.21,10Z"/><polyline class="cls-2" points="27.83 100.19 34.78 115.76 80.66 113.44 112.13 81.25 105.12 65.53"/><path class="cls-2" d="M17.52,77.08,62.8,74.62c-.7,5.79-2.25,18.56-3,24.45l-43,1.5Z"/><path class="cls-2" d="M94.87,42.57,62.71,74.41c4.72,3.5,14.91,11,19.7,14.59,5.38-5.56,25.07-25.9,30.06-31.08Z"/><path class="cls-2" d="M17.15,76.77,38.37,56.08"/><line class="cls-2" x1="66.27" y1="44.04" x2="94.7" y2="42.22"/><path class="cls-3" d="M66.35,44A17.87,17.87,0,0,1,64,50.44l5.62,12.61-18.8,8.39L45.15,58.83c-16.94-2.58-20-27.68-4-34.22C53.84,18.49,69,30.38,66.35,44Z"/><path class="cls-2" d="M57.74,59.9l11-4.93"/><path class="cls-2" d="M45.21,65.49l11-4.93"/><path class="cls-2" d="M46.61,68.64,70.18,58.12"/><path class="cls-2" d="M56,74.42,54,70l12.22-5.45,2,4.43"/><line class="cls-2" x1="36.4" y1="16.44" x2="38.78" y2="21.77"/><line class="cls-2" x1="44.53" y1="13.77" x2="45.43" y2="19.53"/><line class="cls-2" x1="53.06" y1="13.28" x2="52.46" y2="19.09"/><line class="cls-2" x1="61.43" y1="15.03" x2="59.36" y2="20.48"/><line class="cls-2" x1="19.7" y1="35.14" x2="25.15" y2="37.22"/><line class="cls-2" x1="23.56" y1="27.5" x2="28.28" y2="30.94"/><line class="cls-2" x1="29.25" y1="21.12" x2="32.93" y2="25.65"/><polygon class="cls-2" points="56.26 60.56 43.66 48.06 47.15 47.06 47.97 40.29 53.64 44.14 56.84 42.18 57.74 59.9 56.26 60.56"/><path class="cls-2" d="M63.05,75.16l17.61,38.28"/><path class="cls-4" d="M152.12,243.2H20a1.32,1.32,0,0,1-1.33-1.32v-93A1.32,1.32,0,0,1,20,147.54H152.12a1.32,1.32,0,0,1,1.32,1.32v93A1.32,1.32,0,0,1,152.12,243.2ZM21.35,240.55H150.79V150.19H21.35Z"/><path class="cls-4" d="M143.13,234.2H29a1.32,1.32,0,0,1-1.32-1.32v-75A1.32,1.32,0,0,1,29,156.54H143.13a1.33,1.33,0,0,1,1.33,1.32v75A1.33,1.33,0,0,1,143.13,234.2ZM30.34,231.56H141.81V159.19H30.34Z"/><path class="cls-4" d="M106.43,262H65.75a1.33,1.33,0,0,1-1.26-1.73l6-18.75a1.32,1.32,0,0,1,1.26-.92h28.63a1.32,1.32,0,0,1,1.26.92l5.91,18.46a1.27,1.27,0,0,1,.2.7A1.32,1.32,0,0,1,106.43,262ZM67.56,259.3h37l-5.16-16.1H72.71Z"/><path class="cls-4" d="M86.07,255.42a4.17,4.17,0,1,1,4.16-4.17A4.17,4.17,0,0,1,86.07,255.42Zm0-5.69a1.52,1.52,0,1,0,1.51,1.52A1.52,1.52,0,0,0,86.07,249.73Z"/><path class="cls-4" d="M144.53,308.56H27.65A1.32,1.32,0,0,1,26.34,307l6-37.12a1.31,1.31,0,0,1,1.3-1.12H138.49a1.33,1.33,0,0,1,1.31,1.12l5.95,36.8a1.32,1.32,0,0,1-1.22,1.85ZM29.2,305.91H142.94l-5.58-34.47H34.77Z"/><path class="cls-4" d="M130.06,279.15h-88a1.33,1.33,0,0,1,0-2.65h88a1.33,1.33,0,1,1,0,2.65Z"/><path class="cls-4" d="M130.06,290.19h-88a1.33,1.33,0,0,1,0-2.65h88a1.33,1.33,0,1,1,0,2.65Z"/><path class="cls-4" d="M128,300.49H105.61a1.33,1.33,0,0,1,0-2.65H128a1.33,1.33,0,0,1,0,2.65Zm-63.86,0h-22a1.33,1.33,0,0,1,0-2.65h22a1.33,1.33,0,0,1,0,2.65Z"/><path class="cls-4" d="M97.81,300.49H68.94a1.33,1.33,0,1,1,0-2.65H97.81a1.33,1.33,0,0,1,0,2.65Z"/><path class="cls-4" d="M84.39,184.32h-.13a4.37,4.37,0,0,1-3-1.15,4.24,4.24,0,0,1-1.16-3c0-.06,0-.12,0-.17,0-2.68,1.77-5.9,4.94-9.08a16.56,16.56,0,0,1,6-3.85,17.39,17.39,0,0,1,4.42-1,1.29,1.29,0,0,1,1.26.67,1.33,1.33,0,0,1-.09,1.43c-1.38,1.87-1.41,3.71-1.43,5.65s0,3.89-1.68,5.52C90.31,182.57,87.08,184.32,84.39,184.32Zm0-2.66h.19c1,0,3.51-.57,7.11-4.16.82-.82.88-1.91.9-3.62a14.49,14.49,0,0,1,.62-4.71c-.42.11-.83.24-1.23.38a13.91,13.91,0,0,0-5,3.23c-3.64,3.65-4.13,6.16-4.16,7.14a.86.86,0,0,1,0,.15,1.78,1.78,0,0,0,.38,1.21,1.69,1.69,0,0,0,1,.38Z"/><path class="cls-4" d="M81.63,188.88a1.32,1.32,0,0,1-.93-2.26c.61-.61,1.24-1.22,1.87-1.87a1.75,1.75,0,0,0,.44-.65,5,5,0,0,1-2.7-2.69,2,2,0,0,0-.64.44q-1,.93-1.86,1.86a1.32,1.32,0,0,1-1.9-1.84c.61-.64,1.25-1.27,1.89-1.9a4.47,4.47,0,0,1,2.06-1.2,4.31,4.31,0,0,1,1.47-.17,1.32,1.32,0,0,1,1.24,1.13,2.55,2.55,0,0,0,.7,1.43,2.63,2.63,0,0,0,1.42.68,1.31,1.31,0,0,1,1.12,1.25,4.59,4.59,0,0,1-.18,1.52,4.46,4.46,0,0,1-1.19,2l-1.88,1.88A1.32,1.32,0,0,1,81.63,188.88Z"/><path class="cls-4" d="M77.36,193.05a1.3,1.3,0,0,1-.93-.39L71.76,188a1.31,1.31,0,0,1,0-1.86l.9-.92,3.28-3.35a1.32,1.32,0,1,1,1.87,1.87L74.55,187l2.83,2.82,1.31-1.27,2-2a1.32,1.32,0,1,1,1.86,1.88l-2,2-2.24,2.19A1.32,1.32,0,0,1,77.36,193.05Z"/><path class="cls-4" d="M53.78,212a1.53,1.53,0,0,1-1-.4c-.83-.93-.3-1.94.9-4,2.58-4.46,9-12.1,18-21.52a1.35,1.35,0,0,1,.94-.41,1.19,1.19,0,0,1,.95.39l4.67,4.68a1.32,1.32,0,0,1,0,1.89c-9.38,9-17,15.43-21.51,18C54.68,211.93,54.2,212,53.78,212Zm18.93-23.09c-7.4,7.75-13,14.37-15.83,18.6,4.24-2.83,10.85-8.46,18.59-15.83Z"/><path class="cls-4" d="M67.28,224.64a1.32,1.32,0,0,1-1.23-1.8l4.76-12.16a1.46,1.46,0,0,1,.33-.49L101,182.67a1.32,1.32,0,0,1,1.87.07l7.74,8.38a1.33,1.33,0,0,1-.07,1.87L80.68,220.52a1.29,1.29,0,0,1-.52.3l-12.5,3.76A1.21,1.21,0,0,1,67.28,224.64Zm5.88-12.71-3.65,9.34,9.6-2.9L107.72,192l-6-6.44Z"/><path class="cls-4" d="M80.5,221.31a1.32,1.32,0,0,1-1.28-1l-.4-1.58-1-.08a1.33,1.33,0,0,1-1.21-1.11l-.27-1.65H75.11a1.33,1.33,0,0,1-.94-.39,1.37,1.37,0,0,1-.38-.94v-1.18l-1.64-.26a1.32,1.32,0,1,1,.41-2.61l2.77.44a1.33,1.33,0,0,1,1.12,1.31v1h1a1.33,1.33,0,0,1,1.31,1.11l.28,1.74,1,.07a1.34,1.34,0,0,1,1.18,1l.63,2.5a1.32,1.32,0,0,1-1,1.61A1.86,1.86,0,0,1,80.5,221.31Z"/><path class="cls-4" d="M110,192.82a1.29,1.29,0,0,1-.93-.39L101,184.36a1.32,1.32,0,0,1,0-1.87l2.11-2.1a4.37,4.37,0,0,1,6,0l3.89,3.88a4.29,4.29,0,0,1,0,6.07l-2.09,2.09A1.33,1.33,0,0,1,110,192.82Zm-6.21-9.39,6.21,6.19,1.16-1.16a1.59,1.59,0,0,0,.48-1.15,1.65,1.65,0,0,0-.48-1.17l-3.89-3.88a1.66,1.66,0,0,0-2.3,0Z"/><path class="cls-4" d="M160.55,226.87c5.45,8.11,13.07,15.48,22.95,17.51,8.06,1.65,16.92-.68,22.24-7.15l-2.05-.49a30.59,30.59,0,0,0,23.25,22.1,31.1,31.1,0,0,0,15.64-1c6.22-2,10.91-6.38,16-10.25,1.25-1-.27-2.86-1.52-1.91-4.51,3.43-8.67,7.36-14,9.43a28.73,28.73,0,0,1-14.66,1.51c-10.73-1.67-19.47-9.91-22.43-20.26a1.16,1.16,0,0,0-2-.49C199,242,190.39,243.83,183,242.12c-9-2.06-16.09-8.86-21.38-16.07-.5-.69-1.5.13-1,.82Z"/><path class="cls-4" d="M256.21,245.53c-4.82-1.54-10.17-2.05-15.16-2.85-1.39-.23-1.85,1.9-.56,2.38a50.66,50.66,0,0,0,16.42,3.14l-1.09-1.33c-.41,2.56-.81,5.12-1.22,7.69-.36,2.29-1.15,4.86-.85,7.17a1,1,0,0,0,2,.2c1-2.1,1-4.84,1.35-7.12l1.17-7.7a1.24,1.24,0,0,0-1.09-1.34,48.09,48.09,0,0,1-15.79-3c-.19.8-.38,1.59-.56,2.39,4.93.69,10.11,1.76,15.1,1.7.7,0,1.1-1.05.3-1.31Z"/><path class="cls-4" d="M240.24,244q3.44,5.13,6.85,10.28l3.29,5c1,1.59,1.9,3.5,3.36,4.72a.93.93,0,0,0,1.45-.88,16,16,0,0,0-2.62-4.57c-1.18-1.76-2.38-3.51-3.62-5.22q-3.73-5.16-7.85-10a.55.55,0,0,0-.86.69Z"/><rect class="cls-1" x="-1.41" y="3.86" width="270.43" height="328.82"/></svg>