<svg id="Layer_1" data-name="Layer 1" xmlns="http://www.w3.org/2000/svg" viewBox="0 0 267.61 328.44"><defs><style>.cls-1,.cls-69,.cls-78,.cls-88{fill:#fff;}.cls-1,.cls-10,.cls-11,.cls-12,.cls-13,.cls-14,.cls-15,.cls-16,.cls-17,.cls-18,.cls-19,.cls-2,.cls-20,.cls-21,.cls-22,.cls-23,.cls-24,.cls-25,.cls-26,.cls-27,.cls-28,.cls-29,.cls-3,.cls-30,.cls-31,.cls-32,.cls-33,.cls-34,.cls-35,.cls-36,.cls-37,.cls-38,.cls-39,.cls-4,.cls-40,.cls-41,.cls-42,.cls-43,.cls-44,.cls-45,.cls-46,.cls-47,.cls-48,.cls-49,.cls-50,.cls-51,.cls-52,.cls-53,.cls-54,.cls-55,.cls-56,.cls-57,.cls-58,.cls-59,.cls-6,.cls-60,.cls-61,.cls-62,.cls-63,.cls-64,.cls-65,.cls-66,.cls-67,.cls-68,.cls-69,.cls-7,.cls-8,.cls-88,.cls-9{stroke:#231f20;}.cls-1,.cls-10,.cls-11,.cls-12,.cls-13,.cls-14,.cls-15,.cls-16,.cls-17,.cls-18,.cls-19,.cls-2,.cls-20,.cls-21,.cls-22,.cls-23,.cls-24,.cls-25,.cls-26,.cls-27,.cls-28,.cls-29,.cls-3,.cls-30,.cls-31,.cls-32,.cls-33,.cls-34,.cls-35,.cls-36,.cls-37,.cls-38,.cls-39,.cls-4,.cls-40,.cls-41,.cls-42,.cls-43,.cls-44,.cls-45,.cls-46,.cls-47,.cls-48,.cls-49,.cls-50,.cls-51,.cls-52,.cls-53,.cls-54,.cls-55,.cls-56,.cls-57,.cls-58,.cls-59,.cls-6,.cls-60,.cls-61,.cls-62,.cls-63,.cls-64,.cls-65,.cls-66,.cls-67,.cls-68,.cls-69,.cls-7,.cls-70,.cls-71,.cls-72,.cls-73,.cls-74,.cls-75,.cls-76,.cls-77,.cls-8,.cls-80,.cls-81,.cls-82,.cls-83,.cls-84,.cls-85,.cls-86,.cls-87,.cls-88,.cls-9{stroke-miterlimit:10;}.cls-1{stroke-width:2px;}.cls-10,.cls-11,.cls-12,.cls-2,.cls-3,.cls-6,.cls-7,.cls-70,.cls-71,.cls-72,.cls-73,.cls-74,.cls-75,.cls-76,.cls-77,.cls-8,.cls-80,.cls-81,.cls-82,.cls-83,.cls-84,.cls-85,.cls-86,.cls-87,.cls-9,.cls-94,.cls-95{fill:none;}.cls-10,.cls-11,.cls-12,.cls-2,.cls-3,.cls-4,.cls-6,.cls-7,.cls-8,.cls-9{stroke-width:0.39px;}.cls-3{stroke-dasharray:0.39 0.2;}.cls-4,.cls-5{fill:#feaebb;}.cls-6{stroke-dasharray:0.39 0.19;}.cls-7{stroke-dasharray:0.4 0.2;}.cls-8{stroke-dasharray:0.39 0.19;}.cls-9{stroke-dasharray:0.39 0.2;}.cls-10{stroke-dasharray:0.39 0.2;}.cls-11{stroke-dasharray:0.39 0.2;}.cls-12{stroke-dasharray:0.39 0.2;}.cls-13,.cls-79{fill:#010101;}.cls-13,.cls-14,.cls-15,.cls-16,.cls-17,.cls-18,.cls-19,.cls-20,.cls-21,.cls-22,.cls-23,.cls-24,.cls-25,.cls-26,.cls-27,.cls-28,.cls-29,.cls-30,.cls-31,.cls-32,.cls-33,.cls-34,.cls-35,.cls-36,.cls-37,.cls-38,.cls-39,.cls-40,.cls-41,.cls-42,.cls-43,.cls-44,.cls-45,.cls-46,.cls-47,.cls-48,.cls-49,.cls-50,.cls-51,.cls-52,.cls-53,.cls-54,.cls-55,.cls-56,.cls-57,.cls-58,.cls-59,.cls-60,.cls-61,.cls-62,.cls-63,.cls-64,.cls-65,.cls-66,.cls-67,.cls-68{stroke-width:0.5px;}.cls-14{fill:#848484;}.cls-15{fill:#1a1a1a;}.cls-16{fill:#ebebeb;}.cls-17{fill:#efefef;}.cls-18{fill:#f1f1f1;}.cls-19{fill:#e8e8e8;}.cls-20{fill:#e9e9e9;}.cls-21{fill:#1d1d1d;}.cls-22{fill:#e7e7e7;}.cls-23{fill:#eaeaea;}.cls-24{fill:#dfdfdf;}.cls-25{fill:#6b6b6b;}.cls-26{fill:#e3e3e3;}.cls-27{fill:#e1e1e1;}.cls-28{fill:#eee;}.cls-29{fill:#212121;}.cls-30{fill:#ededed;}.cls-31{fill:#d7d7d7;}.cls-32{fill:#202020;}.cls-33{fill:#d1d1d1;}.cls-34{fill:#515151;}.cls-35{fill:#aeaeae;}.cls-36{fill:#d4d4d4;}.cls-37{fill:#8c8c8c;}.cls-38{fill:#e6e6e6;}.cls-39{fill:#cacaca;}.cls-40{fill:#181818;}.cls-41{fill:#3e3e3e;}.cls-42{fill:#4b4b4b;}.cls-43{fill:#424242;}.cls-44{fill:#494949;}.cls-45{fill:#464646;}.cls-46{fill:#353535;}.cls-47{fill:#525252;}.cls-48{fill:#5d5d5d;}.cls-49{fill:#414141;}.cls-50{fill:#535353;}.cls-51{fill:#4e4e4e;}.cls-52{fill:#484848;}.cls-53{fill:#5a5a5a;}.cls-54{fill:#5e5e5e;}.cls-55{fill:#5c5c5c;}.cls-56{fill:#4f4f4f;}.cls-57{fill:#646464;}.cls-58{fill:#4d4d4d;}.cls-59{fill:#5b5b5b;}.cls-60{fill:#505050;}.cls-61{fill:#565656;}.cls-62{fill:#444;}.cls-63{fill:#545454;}.cls-64{fill:#595959;}.cls-65{fill:#454545;}.cls-66{fill:#4c4c4c;}.cls-67{fill:#dedede;}.cls-68{fill:#131313;}.cls-69{stroke-width:0.46px;}.cls-70,.cls-71,.cls-72,.cls-73,.cls-74,.cls-75,.cls-76,.cls-77,.cls-80,.cls-81,.cls-82,.cls-83,.cls-84,.cls-85,.cls-86,.cls-87,.cls-89,.cls-90,.cls-91,.cls-92,.cls-93,.cls-94{stroke:#010101;}.cls-70,.cls-71,.cls-72,.cls-74,.cls-75,.cls-76,.cls-77{stroke-width:0.39px;}.cls-71{stroke-dasharray:0.79 0.79;}.cls-72{stroke-dasharray:0.77 0.77;}.cls-73{stroke-width:0.29px;}.cls-74{stroke-dasharray:0.77 0.77;}.cls-75{stroke-dasharray:0.79 0.79;}.cls-76{stroke-dasharray:0.77 0.77;}.cls-77{stroke-dasharray:0.78 0.78;}.cls-80,.cls-81,.cls-82,.cls-83{stroke-width:0.29px;}.cls-81{stroke-dasharray:0.79 0.79;}.cls-82{stroke-dasharray:0.79 0.79;}.cls-83{stroke-dasharray:0.81 0.81;}.cls-84,.cls-85,.cls-86,.cls-87{stroke-width:0.39px;}.cls-85{stroke-dasharray:0.79 0.79;}.cls-86{stroke-dasharray:0.78 0.78;}.cls-87{stroke-dasharray:0.79 0.79;}.cls-88{stroke-width:1.18px;}.cls-89{fill:#a2add8;}.cls-89,.cls-90,.cls-91,.cls-92,.cls-93,.cls-94{stroke-linecap:round;stroke-linejoin:round;stroke-width:1.54px;}.cls-90{fill:#eae6a0;}.cls-91{fill:#af8cc0;}.cls-92{fill:#e5a5ca;}.cls-93{fill:#a8dbd6;}</style></defs><path class="cls-1" d="M142.24,42,133.3,96.64s7.36,14.81,8.15,18.23.79,45.91.79,45.91.53,4.74,9.74,3.95,7.76-2.24,7.76-2.24,2.76-49.85,2.23-53.4S160.4,92,158.16,86.33s-1.84-12.1-3.68-16.45S143.84,41.18,142.24,42Z"/><path class="cls-2" d="M153.07,141.93s.35-28.37-.83-39-12.78-39-12.78-39"/><path class="cls-2" d="M151.88,145.28v-.19"/><path class="cls-3" d="M151.88,144.89c0-3.63,0-31.89-1.12-41.85s-10.35-33.37-11.47-36.16"/><path class="cls-2" d="M139.26,66.78l-.08-.18"/><path class="cls-2" d="M145.08,163.91l8-21.94s4.32,21.28,4.31,22"/><path class="cls-4" d="M151.69,116.3a77.53,77.53,0,0,1-10.06,0"/><path class="cls-5" d="M151.48,115.23a66.31,66.31,0,0,1-9.85.08"/><path class="cls-2" d="M151.48,115.23h-.19"/><path class="cls-6" d="M151.1,115.26a67.61,67.61,0,0,1-9.17.08"/><path class="cls-2" d="M141.83,115.33l-.2,0"/><line class="cls-2" x1="146.17" y1="164.4" x2="146.23" y2="164.22"/><line class="cls-7" x1="146.29" y1="164.03" x2="152.63" y2="145.53"/><path class="cls-2" d="M152.66,145.43l.06-.18,0,.19"/><path class="cls-8" d="M152.79,145.62c.44,2.45,2.9,16,3.2,18.29"/><path class="cls-2" d="M156,164a.89.89,0,0,1,0,.19"/><path class="cls-1" d="M32.1,42l8.95,54.64s-7.37,14.81-8.16,18.23-.79,45.91-.79,45.91-.53,4.74-9.73,3.95-7.76-2.24-7.76-2.24-2.77-49.85-2.24-53.4S14,92,16.18,86.33,18,74.23,19.87,69.88,30.5,41.18,32.1,42Z"/><path class="cls-2" d="M21.28,141.93s-.36-28.37.82-39,12.78-39,12.78-39"/><path class="cls-2" d="M22.46,145.28v-.19"/><path class="cls-3" d="M22.46,144.89c0-3.63,0-31.89,1.12-41.85S33.94,69.67,35.05,66.88"/><path class="cls-2" d="M35.09,66.78a1.52,1.52,0,0,1,.07-.18"/><path class="cls-2" d="M30.09,164.68l-8-21.94s-4.32,21.28-4.31,22"/><path class="cls-4" d="M22.66,116.3a77.36,77.36,0,0,0,10.05,0"/><path class="cls-5" d="M22.86,115.23a66.31,66.31,0,0,0,9.85.08"/><path class="cls-2" d="M22.86,115.23h.19"/><path class="cls-6" d="M23.24,115.26a67.64,67.64,0,0,0,9.17.08"/><path class="cls-2" d="M32.52,115.33l.19,0"/><path class="cls-1" d="M88.14,158.08c17.56.79,36.83-6.18,36.83-6.18s-.19-5.72-.79-13.61c-.59-10.66,6.52-37.1,9.08-41.65,3.55-8.49,9-54.64,9-54.64s-13.29-5.92-17-7.3-11-4.54-19.14-8.1-17.62-3.34-17.62-3.34H87s-10.65-.2-18.74,3.35-15.39,6.71-19.14,8.1-17,7.3-17,7.3,5.39,46.15,8.95,54.64c2.56,4.55,7.43,30.5,8.22,41.74a94,94,0,0,1,.06,13.52S69.46,158.81,87,158Z"/><path class="cls-1" d="M88.71,15.05s7.85.11,11.4.5a7.81,7.81,0,0,1,5.26,2.77l7.46,11.25S98,25.74,86.53,26.2c-9.85.4-25.05,3.37-25.05,3.37l7.45-11.25a7.81,7.81,0,0,1,5.27-2.77C77.75,15.16,87,15,87,15Z"/><path class="cls-2" d="M37.25,78.84s4.38,3.8,7.36,14.41"/><line class="cls-2" x1="29" y1="165.17" x2="28.94" y2="164.99"/><line class="cls-7" x1="28.88" y1="164.8" x2="22.54" y2="146.3"/><path class="cls-2" d="M22.51,146.2l-.06-.18,0,.19"/><path class="cls-8" d="M22.38,146.4c-.44,2.44-2.9,16-3.2,18.28"/><path class="cls-2" d="M19.16,164.78a1.82,1.82,0,0,0,0,.2"/><path class="cls-2" d="M41.18,37.72l0,.19"/><path class="cls-9" d="M41.24,38.1c.62,4.16,6,41.11,2.23,51.11"/><path class="cls-2" d="M43.43,89.31l-.07.18"/><path class="cls-2" d="M60.59,30.88l.19,0"/><path class="cls-10" d="M61,30.8c2.27-.5,14.35-3.06,23.7-3.08a92.51,92.51,0,0,1,23.4,3.08"/><path class="cls-2" d="M108.15,30.83l.19.05"/><path class="cls-2" d="M42.57,37.44s7.29,47,1.11,53.23c0,0,8,19.42,8.16,48.1-.14,12,0,13.8,0,13.8"/><path class="cls-2" d="M37.76,81.21c0,.06.07.11.1.16"/><path class="cls-11" d="M38,81.54c3.45,5.28,12.17,22.87,12.82,56-.11,9.63-.45,12.83-.58,13.71"/><path class="cls-2" d="M50.2,151.38l0,.19"/><path class="cls-2" d="M136.51,78.84s-4.39,3.8-7.37,14.41"/><path class="cls-2" d="M132.57,37.72l0,.19"/><path class="cls-9" d="M132.51,38.1c-.62,4.16-6,41.11-2.23,51.11"/><path class="cls-2" d="M130.32,89.31l.07.18"/><path class="cls-2" d="M131.18,37.44s-7.29,47-1.11,53.23c0,0-8,19.42-8.15,48.1.13,12,0,13.8,0,13.8"/><path class="cls-2" d="M136,81.21c0,.06-.07.11-.1.16"/><path class="cls-11" d="M135.78,81.54c-3.45,5.28-12.17,22.87-12.82,56,.11,9.63.45,12.83.58,13.71"/><path class="cls-2" d="M123.56,151.38c0,.14,0,.19,0,.19"/><path class="cls-12" d="M51.84,150.8s20.34,5.46,35.28,5.52c16.93.06,35.69-6.31,35.69-6.31"/><path class="cls-13" d="M68.76,187.6a4.66,4.66,0,0,1,1,2.19,3,3,0,0,1-.3,2.14,1.38,1.38,0,0,0-.14,1.23,15.22,15.22,0,0,1,.34,1.52,1.37,1.37,0,0,0,.5.86,2.16,2.16,0,0,1,.68,2.23c-.22,1-.14,1.16.77,1.7a1.09,1.09,0,0,1,.51.57,3.17,3.17,0,0,1,.24,2.15c-.35.92.14,1.6.48,2.33a1,1,0,0,0,1,.46c.4,0,.76-.09,1.06.28a2.23,2.23,0,0,1,.54,1.3,4,4,0,0,1-.26,1.52,1.7,1.7,0,0,0,.79,2.19,3.32,3.32,0,0,1,1.65,1.93c.16.66,0,.8-.7.73-.2,0-.45-.17-.56.09a.65.65,0,0,0,.13.48,1.32,1.32,0,0,0,1.36.78,1.68,1.68,0,0,1,1.86.89c.19.36.36.73.06,1.1s-.12.64.18.86c.47.35.85.81,1.57.81s1.11.38,1.12,1.15a2.14,2.14,0,0,0,.6,1.38c.52.69,1,1.4,1.54,2.09a4.42,4.42,0,0,0,2,1.6,10.76,10.76,0,0,1,2.89,2c1,.8,1.85,1.7,2.75,2.58a3.37,3.37,0,0,1,1,2.33,12.48,12.48,0,0,0,.26,1.92,5.83,5.83,0,0,1-1,5.06,3.2,3.2,0,0,0-.44.79A1.94,1.94,0,0,1,90,240.05a26.88,26.88,0,0,1-7.64-1.48c-3.83-1.39-7.71-2.63-11.49-4.18a34.57,34.57,0,0,1-9.33-5.6A113.4,113.4,0,0,0,43.1,216c-3-1.63-5.74-3.57-8.7-5.21a68.78,68.78,0,0,1-11.72-8.61,18.68,18.68,0,0,1-1.4-1.54,1.76,1.76,0,0,1-.37-1.93,4.81,4.81,0,0,1,.57-1.16A14.94,14.94,0,0,0,23.29,194a4.62,4.62,0,0,1,2-2.81.77.77,0,0,0,.33-.38,14.55,14.55,0,0,1,4.49-5.3,68.8,68.8,0,0,0,6.75-5.91,39,39,0,0,0,6-8.43,24.55,24.55,0,0,0,1.32-3.53,4.54,4.54,0,0,1,.12-.5c.38-.93.77-1.09,1.72-.8a6.35,6.35,0,0,1,2.43,1.49,29.18,29.18,0,0,0,9.16,5.34.77.77,0,0,0,1-.26,13.3,13.3,0,0,1,5.1-3.27,5.4,5.4,0,0,1,1.25-.35,1.41,1.41,0,0,1,1.69.88,4.25,4.25,0,0,1,.43,1.89,47.08,47.08,0,0,0,1,8.12.78.78,0,0,1,0,.26,2.52,2.52,0,0,0,1,2.56c.38.26.4.85.43,1.33a1.26,1.26,0,0,1-.46,1.26c-.29.23-.37.75-.54,1.14a.82.82,0,0,0-.2.17c-.18.29-.82.4-.5.87S68.41,187.48,68.76,187.6Zm10.19,35-.36,0h0a.74.74,0,0,0-.53-.17.2.2,0,0,1-.18-.11l-.63-.63a.21.21,0,0,1-.12-.17.93.93,0,0,0-.25-.57.21.21,0,0,1-.07-.22v-.33l.53-.16h0l0,.38h0l.11.43.22.34a.57.57,0,0,0,.55.55.27.27,0,0,1,.19.1l.38.08h.39l.38-.09.3-.28c0-.43-.22-.37-.48-.26-1.36-.12-1.58-.44-1-1.58l.85-.83c.18-.1.38-.19.56-.3.62-.35.62-.41.1-.86-.25-.23-.51-.46-.75-.7a1.58,1.58,0,0,0-2.48.1,1.54,1.54,0,0,1-1.13.76l0-.52.2-.14c.14-.1.3-.2.28-.38s-.25-.16-.39-.19c-1.11-.21-1.13-.23-1.08-1.2l1.17-1.17c.21-.11.52-.16.39-.53-.48-1.39-.48-1.4-2.06-1.55a4.18,4.18,0,0,1-.51-.07.92.92,0,0,0-1.13.37,1.29,1.29,0,0,1-1,.56,2.3,2.3,0,0,1-2.43-1.89,2,2,0,0,1,1.71-2.23c.36-.07.79.16,1.11-.25a10.32,10.32,0,0,1-.63-1.12A1.23,1.23,0,0,0,70,207a1,1,0,0,0-1.08.47,1.94,1.94,0,0,1-2.24.59,2.57,2.57,0,0,1-1.36-2.34,1.56,1.56,0,0,1,1.18-1.53,11,11,0,0,1,1.15-.18.54.54,0,0,0,.51-.64,1.89,1.89,0,0,0-.88-1.35,1.69,1.69,0,0,0-1.82.22,2.06,2.06,0,0,1-2.91-.12,2,2,0,0,1-.14-2.62c.6-.89,1.43-1.05,2.61-.46.25.13.45.25.69,0a.55.55,0,0,0,.18-.58c-.17-.63-.32-1.26-.47-1.89a.44.44,0,0,0-.46-.36,1.8,1.8,0,0,0-1.22.22c-1.54,1-2.74.39-3.24-1.47H61a7.3,7.3,0,0,0,.36.68,1.32,1.32,0,0,0,1.46.57.44.44,0,0,0,.38-.31c0-.08-.1-.22-.18-.31-.34-.36-.88-.57-.88-1.18a3.25,3.25,0,0,0,1.17-1.5c.27.08.49.4.83.16a.82.82,0,0,0,.38-.88,8,8,0,0,1,0-1.55c0-.48-.23-.56-.61-.65s-.62.16-.9.36a1.94,1.94,0,0,1-3-.72,4.63,4.63,0,0,1-.39-.95,1.72,1.72,0,0,1,1.15-2.18,2.28,2.28,0,0,1,2.21.24c.84.56,1.39.25,1.5-.74,0-.26,0-.52,0-.78.08-1,0-1.08-.93-1.27a1.72,1.72,0,0,0-1.1.24,2.07,2.07,0,0,1-2.72-.8,2.23,2.23,0,0,1,.57-2.82,2,2,0,0,1,2.81,0,2,2,0,0,0,1.1.6c.74.15.74.15.92-.76a.78.78,0,0,0,0-.74,3,3,0,0,0-2.66-2.91c-1-.2-2-.46-3-.69-.25-.06-.63-.2-.74-.09-.42.42-.52.1-.72-.21s-.45-.24-.69-.33c-.77-.29-1.54-.57-2.3-.9A14.8,14.8,0,0,1,48.79,170a20.17,20.17,0,0,0-2.09-2.15,5.37,5.37,0,0,0-.94-.68c-.34-.19-.61,0-.55.39s.28.61-.23.82c-.27.11-.26.52-.34.81a16,16,0,0,1-1.33,3.1,35.69,35.69,0,0,1-2.61,4,42.65,42.65,0,0,1-6.77,7.18c-1.46,1.23-2.95,2.42-4.41,3.65a13.34,13.34,0,0,0-2.7,3.15,1.25,1.25,0,0,0,.05,1.77,24.46,24.46,0,0,0,5.77,5.58c5.24,3.4,10.5,6.75,15.83,10,2.74,1.67,5.46,3.36,8.13,5.15.73.49,1.26,1.35,2.3,1.3a.24.24,0,0,1,.25.24c.05.57.57.73.94,1,1,.7,2,1.36,3,2a108.1,108.1,0,0,0,9.95,5.91c.56.29,1.2.16,1.7.45s.89.8,1.46,1.07a55.43,55.43,0,0,0,5.5,2,.79.79,0,0,0,1-.3,12.32,12.32,0,0,1,1.79-1.89c.49-.42.46-.5,0-1.06s-1-1.23-1.43-1.86c-1.15-1.55-1.14-1.55-2.69-.21a.87.87,0,0,0-.22.55l-.18.18a1.12,1.12,0,0,0-.72.35h0l-.36,0ZM24.49,193.81a1.33,1.33,0,0,0-.56.94,3.07,3.07,0,0,1-.18.61,1.4,1.4,0,0,0,.25,1.76,15.24,15.24,0,0,0,2.41,2.34A67.14,67.14,0,0,0,36,206c4.1,2.36,8.13,4.83,12.18,7.27,4.6,2.76,8.58,6.31,12.7,9.69a.42.42,0,0,1,.16.57c-.13.22-.37.2-.58.14a4.86,4.86,0,0,1-1.83-1.2,67.68,67.68,0,0,0-7.26-5.92c-4-2.78-8.25-5.28-12.48-7.76A115.88,115.88,0,0,1,28,201.91a24.86,24.86,0,0,1-4.22-3.65c-.93-1.11-1-1.11-1.67.16a1.4,1.4,0,0,0,.24,2,11.45,11.45,0,0,0,.9.94c2.15,2,4.41,3.78,6.75,5.52,2,1.45,4.13,2.55,6.19,3.83,3.07,1.88,6.13,3.78,9.27,5.53a98.2,98.2,0,0,1,8.49,5.33c3,2.09,5.78,4.43,8.6,6.74a31.34,31.34,0,0,0,7.14,4.49c4.89,2.15,10,3.79,15,5.49a37.76,37.76,0,0,0,5.38.9,1.21,1.21,0,0,0,1.45-.81,3.2,3.2,0,0,1,.44-.79c1.38-1.67,1.14-3.55.74-5.45a1,1,0,0,0-.56-.68,6.75,6.75,0,0,0-.94-.45,79.39,79.39,0,0,0-9-3,55,55,0,0,1-12.62-5.45,130.53,130.53,0,0,1-12.87-8.36c-2.76-2-5.72-3.76-8.63-5.57-5-3.11-10-6.31-15-9.43a26.2,26.2,0,0,1-6.93-6.43c-.68-.88-.87-.87-1.39.08A2.17,2.17,0,0,0,24.49,193.81Zm35.37-20.89a4.75,4.75,0,0,0-1.1,1.26c-.22.41-.1.66.31.8s.58.17.87.25c1.18.28,2.36.55,3.53.85A3.46,3.46,0,0,1,66,179a5.57,5.57,0,0,1,0,1.68,3.63,3.63,0,0,0,0,.65c.06.45.48.46.79.53s.37-.26.4-.51A5.14,5.14,0,0,0,67.1,180c-.32-2.31-1-4.59-.85-6.94,0-.83-.47-1.51-.41-2.33a.51.51,0,0,0-.61-.52,2.77,2.77,0,0,0-.76.15A13.91,13.91,0,0,0,59.86,172.92ZM92.35,230.3a1.44,1.44,0,0,0-.17-.45,21.77,21.77,0,0,0-5.78-4.91.71.71,0,0,0-.85-.06,10.63,10.63,0,0,0-2,2.05.28.28,0,0,0,.11.43,5.7,5.7,0,0,0,.72.29c2.44.72,4.82,1.62,7.18,2.58C91.82,230.33,92.05,230.5,92.35,230.3ZM68.71,184.69a.59.59,0,0,0,.12-.2,1.35,1.35,0,0,0-.77-1.5,29.53,29.53,0,0,0-4.87-1.34c-.8-.1-1.35.12-1.41.57s.42.83,1.2,1a13.47,13.47,0,0,1,1.64.39l3.46,1.09A.73.73,0,0,0,68.71,184.69Zm-.94,4.75L68,189c.2-.35.13-.55-.29-.62-1.23-.22-2.46-.45-3.69-.66a3,3,0,0,0-1.53.08.61.61,0,0,0-.45.56.6.6,0,0,0,.37.62,4.47,4.47,0,0,0,.86.26c1.31.3,2.67,0,4,.34A.52.52,0,0,0,67.77,189.44Zm-.12,16.24a1,1,0,0,0,.86.52,14.82,14.82,0,0,1,3.68.6c.84.23.91,0,1.24-.71a.38.38,0,0,0-.27-.59A16.15,16.15,0,0,0,69,205a1.65,1.65,0,0,0-1.08.37A1.09,1.09,0,0,0,67.65,205.68Zm1.56-10.18a.39.39,0,0,0-.1-.08,10.68,10.68,0,0,0-5.2-1.45,1.82,1.82,0,0,0-.51.09c-.2.06-.43.14-.48.37s.12.41.31.52a3.59,3.59,0,0,0,2,.6,7.1,7.1,0,0,1,3.06.47,2.76,2.76,0,0,0,.75.14.39.39,0,0,0,.36-.32A.36.36,0,0,0,69.21,195.5Zm-.36-6.44a11.89,11.89,0,0,1-3.41,3.77.52.52,0,0,0-.17.19c-.09.16-.12.35.1.41.75.18,1.51.44,2.15-.29a10.33,10.33,0,0,1,.77-.7A2.7,2.7,0,0,0,68.85,189.06Zm1.68,11.33a24.64,24.64,0,0,0-4.46-.4,2.59,2.59,0,0,0-1.26.19c-.16.08-.31.19-.26.39a.46.46,0,0,0,.21.28,3.32,3.32,0,0,0,1.87.39,11.68,11.68,0,0,1,2.44.13C70,201.5,70,201.49,70.53,200.39ZM76.67,212a.4.4,0,0,0-.11-.5,5.4,5.4,0,0,0-4.63-1.17,1,1,0,0,0-.45.22.55.55,0,0,0-.25.56c.06.25.27.3.5.32a45.12,45.12,0,0,1,4.63.61C76.46,212.07,76.59,212,76.67,212Zm-7.91-7.83a1.61,1.61,0,0,0,2-.74,5.54,5.54,0,0,1,.65-.8,1.49,1.49,0,0,0,.37-1.32c0-.29,0-.7-.31-.8s-.4.33-.57.55c-.53.68-1.06,1.35-1.58,2C69.12,203.4,68.78,203.64,68.76,204.17Zm-2.14-4.92c.91.11,1.5.33,2,.05a4.25,4.25,0,0,0,1.47-1.45,1.13,1.13,0,0,0-.21-1.53A20.81,20.81,0,0,1,66.62,199.25Zm5.72,10.27a1.1,1.1,0,0,0,1.56-.45,6.26,6.26,0,0,0,.81-1.45,2.39,2.39,0,0,0,.09-1.27c0-.19-.09-.44-.36-.46s-.29.17-.37.31Zm3.06,5.84c-.18.23-.38.4-.31.62s.35.24.56.22l2.2-.17c.34,0,.69-.05,1-.11s.41-.31.2-.56a1.09,1.09,0,0,0-.63-.42A5.63,5.63,0,0,0,76,215,2.42,2.42,0,0,0,75.4,215.36ZM64.94,187c1.54.63,2.38.4,3.1-.74.16-.27.3-.57,0-.83a.66.66,0,0,0-.84-.11A11.12,11.12,0,0,0,64.94,187Zm16.78,32.69s.08-.06.16-.15a.64.64,0,0,0,0-.84.52.52,0,0,0-.79-.11c-.66.42-1.33.82-2,1.26-.23.16-.57.37-.42.72s.59.27.91.22A4.56,4.56,0,0,0,81.72,219.73ZM62.44,189.92c-.34-.48-.95-.69-1-1.32s.42-1,.69-1.58c-.85-.12-1.48,0-1.79.68a1.91,1.91,0,0,0,.49,2A1.15,1.15,0,0,0,62.44,189.92Zm2,9.5c-.89-.2-1.15-.11-1.5.48a1.33,1.33,0,0,0,.08,1.68,1.61,1.61,0,0,0,1.77.44.2.2,0,0,0,.08-.32c-.15-.14-.37-.22-.53-.36-.65-.54-.68-.82-.16-1.51C64.25,199.7,64.42,199.62,64.41,199.42Zm2.79,5.26c-1.13.37-1.43.85-1.15,1.68a1.42,1.42,0,0,0,1.87,1.09.65.65,0,0,0,.37-.32c.11-.21-.12-.25-.26-.33C66.87,206.15,66.85,206.1,67.2,204.68Zm-5.3-20.94c-1.11-1.45-1.11-1.45.21-2.94a.94.94,0,0,0-1.18.16,1.77,1.77,0,0,0-.79,1.27C60.06,183.1,60.65,183.65,61.9,183.74ZM51.65,171.41a12.77,12.77,0,0,0,5.87,3,.3.3,0,0,0-.14-.33C55.51,173.08,53.48,172.47,51.65,171.41Zm19.49,38.34c-1.12.1-1.66.62-1.58,1.46a1.55,1.55,0,0,0,1.84,1.38c.12,0,.29-.1.32-.19s-.12-.25-.28-.32c-1.07-.48-1.17-.75-.65-1.76C70.88,210.14,71,210,71.14,209.75Zm-3-12.53c.17-.21.18-.41-.07-.52a4.72,4.72,0,0,0-1.46-.43c-.33,0-.49.13-.42.45.12.49,0,1.16.51,1.37s.73-.47,1.14-.66A1.61,1.61,0,0,0,68.16,197.22Zm-2.69-5.33A3,3,0,0,0,67,190.35c-1.73-.46-1.8-.4-1.62,1.3A1.73,1.73,0,0,0,65.47,191.89ZM68,193.47c-.12.17-.46.33-.2.6a1.27,1.27,0,0,0,1.11.45c.22,0,.13-1-.14-1.27S68.24,193.34,68,193.47Zm3.23,10.34c-.07.17-.46.33-.15.58a.69.69,0,0,0,.83.06c.3-.24,0-.54-.13-.76S71.4,203.67,71.21,203.81ZM70.38,199c-.2-.25-.38-.11-.54,0s-.37.3-.14.5a.52.52,0,0,0,.7,0C70.59,199.43,70.46,199.22,70.38,199Zm-4.09-14.17c-.23-.21-.7-.23-.79,0s-.16.48,0,.61.56-.07.77-.27A.2.2,0,0,0,66.29,184.86ZM72.47,208c.09-.17.13-.33-.07-.45a.38.38,0,0,0-.48,0c-.16.18,0,.32.11.44A.27.27,0,0,0,72.47,208ZM69,202.44c.06-.12.17-.25,0-.33s-.37-.14-.47-.07-.09.31,0,.45S68.87,202.54,69,202.44Zm5.6,7.19v-.13s-.1,0-.13,0,0,.08,0,.12Z"/><path class="cls-14" d="M68.76,187.6c-.35-.12-.65.54-.92.15s.32-.58.5-.87a.82.82,0,0,1,.2-.17C68.67,187,68.87,187.26,68.76,187.6Z"/><path class="cls-15" d="M24.49,193.81c1.52,2.19,3.68,3.66,5.74,5.25A60.29,60.29,0,0,0,38,204c3.74,2,7.23,4.46,10.77,6.81,5,3.33,9.87,6.92,14.83,10.35a50.79,50.79,0,0,0,9.56,5.25A132.92,132.92,0,0,0,86,231.24c1.42.41,2.88.66,4.31,1a2.2,2.2,0,0,1,1.3.52,1.71,1.71,0,0,1-1.31,0,44.23,44.23,0,0,1-6.43-1.64,132,132,0,0,1-12.71-5,53.52,53.52,0,0,1-9.27-5.5C55.34,216,48.77,211.35,42,207c-2.44-1.57-5-3-7.5-4.43a63.18,63.18,0,0,1-8.13-5.85,12.11,12.11,0,0,1-1.83-2c-.23-.29-.43-.16-.63,0A1.33,1.33,0,0,1,24.49,193.81Z"/><path class="cls-16" d="M68.76,204.17c0-.53.36-.77.59-1.07.52-.69,1.05-1.36,1.58-2,.17-.22.2-.68.57-.55s.26.51.31.8a1.49,1.49,0,0,1-.37,1.32,5.54,5.54,0,0,0-.65.8A1.61,1.61,0,0,1,68.76,204.17Z"/><path class="cls-16" d="M66.62,199.25a20.81,20.81,0,0,0,3.26-2.93,1.13,1.13,0,0,1,.21,1.53,4.25,4.25,0,0,1-1.47,1.45C68.12,199.58,67.53,199.36,66.62,199.25Z"/><path class="cls-17" d="M72.34,209.52l1.73-3.32c.08-.14.17-.32.37-.31s.31.27.36.46a2.39,2.39,0,0,1-.09,1.27,6.26,6.26,0,0,1-.81,1.45A1.1,1.1,0,0,1,72.34,209.52Z"/><path class="cls-18" d="M75.4,215.36A2.42,2.42,0,0,1,76,215a5.63,5.63,0,0,1,2.45-.08,1.09,1.09,0,0,1,.63.42c.21.25.13.5-.2.56s-.69.08-1,.11l-2.2.17c-.21,0-.47,0-.56-.22S75.22,215.59,75.4,215.36Z"/><path class="cls-19" d="M64.94,187a11.12,11.12,0,0,1,2.3-1.68.66.66,0,0,1,.84.11c.26.26.12.56,0,.83C67.32,187.44,66.48,187.67,64.94,187Z"/><path class="cls-20" d="M81.72,219.73a4.56,4.56,0,0,1-2.07,1.1c-.32,0-.73.21-.91-.22s.19-.56.42-.72c.63-.44,1.3-.84,2-1.26a.52.52,0,0,1,.79.11.64.64,0,0,1,0,.84C81.8,219.67,81.7,219.76,81.72,219.73Z"/><path class="cls-21" d="M75.46,218.07A2,2,0,0,1,73,216.3a1.74,1.74,0,0,1,.78-1.8,1.51,1.51,0,0,1,1.91,0l-1.17,1.17.31-.82c-1.11.25-1.49,1-1,1.92a1.68,1.68,0,0,0,1.64.81Z"/><path class="cls-19" d="M62.44,189.92a1.15,1.15,0,0,1-1.64-.2,1.91,1.91,0,0,1-.49-2c.31-.66.94-.8,1.79-.68-.27.56-.77,1-.69,1.58S62.1,189.44,62.44,189.92Z"/><path class="cls-22" d="M62.17,194.45c0,.61.54.82.88,1.18.08.09.2.23.18.31a.44.44,0,0,1-.38.31,1.32,1.32,0,0,1-1.46-.57A7.3,7.3,0,0,1,61,195c.3-1.5.54-1.72,1.7-1.52C62.54,193.81,62.09,194,62.17,194.45Z"/><path class="cls-20" d="M64.41,199.42c0,.2-.16.28-.26.41-.52.69-.49,1,.16,1.51.16.14.38.22.53.36a.2.2,0,0,1-.08.32,1.61,1.61,0,0,1-1.77-.44,1.33,1.33,0,0,1-.08-1.68C63.26,199.31,63.52,199.22,64.41,199.42Z"/><path class="cls-23" d="M67.2,204.68c-.35,1.42-.33,1.47.83,2.12.14.08.37.12.26.33a.65.65,0,0,1-.37.32,1.42,1.42,0,0,1-1.87-1.09C65.77,205.53,66.07,205.05,67.2,204.68Z"/><path class="cls-24" d="M61.9,183.74c-1.25-.09-1.84-.64-1.76-1.51a1.77,1.77,0,0,1,.79-1.27.94.94,0,0,1,1.18-.16C60.79,182.29,60.79,182.29,61.9,183.74Z"/><path class="cls-25" d="M51.65,171.41c1.83,1.06,3.86,1.67,5.73,2.64a.3.3,0,0,1,.14.33A12.77,12.77,0,0,1,51.65,171.41Z"/><path class="cls-26" d="M71.14,209.75c-.13.21-.26.39-.35.57-.52,1-.42,1.28.65,1.76.16.07.35.11.28.32s-.2.17-.32.19a1.55,1.55,0,0,1-1.84-1.38C69.48,210.37,70,209.85,71.14,209.75Z"/><path class="cls-27" d="M75.48,217.55a1.68,1.68,0,0,1-1.64-.81c-.53-.88-.15-1.67,1-1.92l-.31.82c0,1,0,1,1.08,1.2.14,0,.36,0,.39.19s-.14.28-.28.38Z"/><path class="cls-28" d="M68.16,197.22a1.61,1.61,0,0,1-.3.21c-.41.19-.7.85-1.14.66s-.39-.88-.51-1.37c-.07-.32.09-.48.42-.45a4.72,4.72,0,0,1,1.46.43C68.34,196.81,68.33,197,68.16,197.22Z"/><path class="cls-29" d="M62.17,194.45c-.08-.46.37-.64.56-1-1.16-.2-1.4,0-1.7,1.52h-.5c-.05-1.83,1.07-2.65,2.81-2A3.25,3.25,0,0,1,62.17,194.45Z"/><path class="cls-30" d="M65.47,191.89a1.73,1.73,0,0,1-.14-.24c-.18-1.7-.11-1.76,1.62-1.3A3,3,0,0,1,65.47,191.89Z"/><path class="cls-31" d="M78.37,222a.27.27,0,0,0-.19-.1l-.55-.55-.22-.34-.11-.43h0l0-.38h0a4.41,4.41,0,0,1,.57-.64c.34-.24.41,0,.42.3-.55,1.14-.33,1.46,1,1.58l.48.26-.3.28-.38.09h-.39Z"/><path class="cls-32" d="M78.31,219.9c0-.28-.08-.54-.42-.3a4.41,4.41,0,0,0-.57.64l-.53.16c.28-1.42.93-1.79,2.37-1.33Z"/><path class="cls-33" d="M68,193.47c.26-.13.44-.52.77-.22s.36,1.23.14,1.27a1.27,1.27,0,0,1-1.11-.45C67.52,193.8,67.86,193.64,68,193.47Z"/><path class="cls-34" d="M65.19,180.44a4,4,0,0,1-1.37-.93c-.09-.12-.25-.26-.07-.43s.32,0,.46,0c.32.19.53.58,1,.57A.78.78,0,0,1,65.19,180.44Z"/><path class="cls-31" d="M71.21,203.81c.19-.14.37-.36.55-.12s.43.52.13.76a.69.69,0,0,1-.83-.06C70.75,204.14,71.14,204,71.21,203.81Z"/><path class="cls-35" d="M70.38,199c.08.19.21.4,0,.57a.52.52,0,0,1-.7,0c-.23-.2,0-.37.14-.5S70.18,198.78,70.38,199Z"/><path class="cls-36" d="M66.29,184.86a.2.2,0,0,1,0,.32c-.21.2-.45.48-.77.27s-.12-.41,0-.61S66.06,184.65,66.29,184.86Z"/><path class="cls-37" d="M72.47,208a.27.27,0,0,1-.44,0c-.12-.12-.27-.26-.11-.44a.38.38,0,0,1,.48,0C72.6,207.62,72.56,207.78,72.47,208Z"/><path class="cls-38" d="M69,202.44c-.13.1-.27.23-.43.05s-.18-.35,0-.45.33,0,.47.07S69.06,202.32,69,202.44Z"/><path class="cls-32" d="M79.82,221.74l-.48-.26C79.6,221.37,79.84,221.31,79.82,221.74Z"/><path class="cls-32" d="M77.63,221.37l.55.55A.57.57,0,0,1,77.63,221.37Z"/><path class="cls-32" d="M77.86,222.32a.69.69,0,0,1-.63-.63Z"/><path class="cls-32" d="M80,222.25a.71.71,0,0,1-.72.35A1.12,1.12,0,0,1,80,222.25Z"/><path class="cls-32" d="M80.44,221.52a.5.5,0,0,1-.22.55A.87.87,0,0,1,80.44,221.52Z"/><path class="cls-32" d="M77.11,221.52a.54.54,0,0,1-.25-.57A.93.93,0,0,1,77.11,221.52Z"/><path class="cls-32" d="M78.57,222.6a.51.51,0,0,1-.53-.17A.74.74,0,0,1,78.57,222.6Z"/><path class="cls-32" d="M79.14,222.11l.38-.09Z"/><path class="cls-32" d="M77.32,220.23l0,.38Z"/><path class="cls-32" d="M78.77,222.11h0Z"/><path class="cls-32" d="M77.3,220.6l.11.43Z"/><path class="cls-32" d="M78.37,222l.38.08Z"/><path class="cls-32" d="M79.3,222.61a.29.29,0,0,1-.36,0Z"/><path class="cls-32" d="M76.79,220.73a.2.2,0,0,1,0-.29Z"/><path class="cls-32" d="M79,222.63a.27.27,0,0,1-.36,0Z"/><path class="cls-39" d="M74.6,209.63h-.13s0-.1,0-.12.08,0,.13,0Z"/><path class="cls-40" d="M51.41,208.82a2,2,0,0,1,.08-2.89,1.92,1.92,0,1,1,2.72,2.72A2,2,0,0,1,51.41,208.82Zm2.36-.73a1.15,1.15,0,0,0-.06-1.73,1.31,1.31,0,0,0-1.87,0,1.42,1.42,0,0,0,.08,2A1.37,1.37,0,0,0,53.77,208.09Z"/><path class="cls-41" d="M28.9,191.81a2.5,2.5,0,0,1,.4-2.16,6.72,6.72,0,0,1,3.47-3.43c-.69.91-1.64,1.58-2.3,2.52A21.12,21.12,0,0,0,28.9,191.81Z"/><path class="cls-41" d="M30.67,193.55c-.06,0-.13,0-.13,0a5.43,5.43,0,0,1,1.31-4.78c.1-.13.27-.25.44-.13s0,.32-.06.42a6.54,6.54,0,0,0-1.32,3.59C30.87,192.93,31,193.31,30.67,193.55Z"/><path class="cls-42" d="M31.9,194.35a5.71,5.71,0,0,1,.61-4.07.3.3,0,0,1,.43-.15.25.25,0,0,1,.06.23,9.91,9.91,0,0,0-.79,3.64S32.16,194.06,31.9,194.35Z"/><path class="cls-43" d="M33.92,195.8c-1-1.28-.69-2.54-.42-3.79,0-.06.12-.12.2-.13a.18.18,0,0,1,.21.23A30.34,30.34,0,0,0,33.92,195.8Z"/><path class="cls-44" d="M57.78,179.05a2.63,2.63,0,0,1,.16-1.55.37.37,0,0,1,.32-.15,2.53,2.53,0,0,1,1.1.34.24.24,0,0,1,.11.32.31.31,0,0,1-.2.13,1.22,1.22,0,0,1-.38,0c-.41-.13-.54.06-.57.43a1.78,1.78,0,0,1-.17.61C58.09,179.25,57.92,179.26,57.78,179.05Z"/><path class="cls-45" d="M35.19,196.32a3.2,3.2,0,0,1-.33-2.19A.33.33,0,0,1,35,194c.16-.06.24.07.25.2.08.71.15,1.42.22,2.14Z"/><path class="cls-46" d="M36.91,198.26a3.14,3.14,0,0,1-.81-2.48c0-.17,0-.37.24-.4s.23.2.25.35C36.69,196.48,36.78,197.24,36.91,198.26Z"/><path class="cls-47" d="M68.59,217.64c0-.15-.14-.29-.11-.38s.29-.18.43-.1c.37.21.8.36.9.85,0,0,0,.07-.09.08C69.21,218.25,69,217.75,68.59,217.64Z"/><path class="cls-48" d="M58.27,182.06c-.16.15-.3.13-.38,0a1.79,1.79,0,0,1-.09-1.45.19.19,0,0,1,.32,0A2.43,2.43,0,0,1,58.27,182.06Z"/><path class="cls-49" d="M38.34,198.77a2.31,2.31,0,0,1-.61-1.78c0-.11,0-.27.21-.24s.18.08.19.14A4.29,4.29,0,0,1,38.34,198.77Z"/><path class="cls-50" d="M62.29,178.82c-.3.22-1.37-.1-1.46-.44a.16.16,0,0,1,0-.12.15.15,0,0,1,.07-.1,1.7,1.7,0,0,1,1.41.43S62.31,178.74,62.29,178.82Z"/><path class="cls-51" d="M55.31,176.92c0-.1-.1-.18-.09-.25a.23.23,0,0,1,.16-.16c.45-.08,1.26.24,1.32.52,0,.07-.05.2-.1.21A1.87,1.87,0,0,1,55.31,176.92Z"/><path class="cls-52" d="M51.25,173.76a4.2,4.2,0,0,1,.3.38.24.24,0,0,1,0,.22.26.26,0,0,1-.22.07,1.24,1.24,0,0,1-.44-.23c-.22-.22-.72-.45-.47-.76S51,173.6,51.25,173.76Z"/><path class="cls-53" d="M62.69,204.47c-.15-.28-.43-.57-.37-1,0-.06.12-.15.17-.14.47.08.48.55.69.84s.18.44,0,.56S62.82,204.67,62.69,204.47Z"/><path class="cls-54" d="M66,209.27c-.19-.29-.57-.53-.41-1,.09-.24.51,0,.9.65a.68.68,0,0,1,.12.22c0,.12.06.26-.08.34a.26.26,0,0,1-.33-.06A1.62,1.62,0,0,1,66,209.27Z"/><path class="cls-55" d="M73.18,218.47c-.1-.13-.21-.27-.3-.41s-.25-.4,0-.56.37.06.51.2a2.4,2.4,0,0,1,.3.41c.13.21.33.47,0,.64S73.32,218.64,73.18,218.47Z"/><path class="cls-56" d="M76.23,222.44a2,2,0,0,1,.37,1.29c0,.13-.23.19-.31.11a1.64,1.64,0,0,1-.41-1.31C75.89,222.4,76.05,222.37,76.23,222.44Z"/><path class="cls-57" d="M73.15,221.21c.34.41.62.69.61,1.11,0,.05-.11.14-.17.14-.46,0-.54-.48-.78-.75s-.22-.41,0-.55A.3.3,0,0,1,73.15,221.21Z"/><path class="cls-58" d="M64.74,215.07a1.57,1.57,0,0,1-1.37-.42.2.2,0,0,1,0-.22c.23-.25,1.3.07,1.42.43C64.84,214.91,64.77,215,64.74,215.07Z"/><path class="cls-59" d="M62,214.27a1.61,1.61,0,0,1-1.43-.14c-.09-.09-.12-.26,0-.32a1.75,1.75,0,0,1,1.38.1C62.08,214,62.09,214.12,62,214.27Z"/><path class="cls-60" d="M61.78,202.11a.25.25,0,0,1-.34-.06c-.34-.44-.51-1.11-.33-1.29a.13.13,0,0,1,.11,0c.24,0,.61.67.65,1.17C61.88,202,61.82,202,61.78,202.11Z"/><path class="cls-52" d="M64.27,206.85c-.16-.3-.66-.6-.33-.87s.52.26.74.48a.61.61,0,0,1,.19.33.64.64,0,0,1-.08.35s-.17,0-.23,0A3.7,3.7,0,0,1,64.27,206.85Z"/><path class="cls-60" d="M58.66,190.9a.57.57,0,0,1-.24,0,.34.34,0,0,1-.13-.2c0-.44-.32-.9.12-1.3a.13.13,0,0,1,.12,0,1.77,1.77,0,0,1,.21,1.45S58.69,190.87,58.66,190.9Z"/><path class="cls-51" d="M48.35,172.13a2.49,2.49,0,0,1-.2-.24c-.06-.11-.13-.23,0-.32a.34.34,0,0,1,.24,0,1.85,1.85,0,0,1,.88.68c.08.1.13.25,0,.32a.4.4,0,0,1-.34,0A6.13,6.13,0,0,1,48.35,172.13Z"/><path class="cls-55" d="M60.7,199.41c-.12.07-.27.07-.33,0a7.78,7.78,0,0,1-.42-.93.33.33,0,0,1,.13-.45c.17-.07.32.08.39.24.12.32.23.65.32,1C60.81,199.25,60.74,199.34,60.7,199.41Z"/><path class="cls-48" d="M53.91,175.65c0,.08.13.23.09.31s-.26.19-.43.11a8.35,8.35,0,0,1-.77-.43.3.3,0,0,1-.14-.42c.08-.15.22-.12.34-.09A2.55,2.55,0,0,1,53.91,175.65Z"/><path class="cls-61" d="M59.13,193.76l-.23,0s-.07,0-.1-.08c-.26-.44-.3-1.3,0-1.44a.16.16,0,0,1,.12,0c.25.08.46,1,.33,1.41A.28.28,0,0,1,59.13,193.76Z"/><path class="cls-62" d="M46.46,170.2c-.14-.22-.6-.46-.36-.7s.54.21.8.37a.67.67,0,0,1,.17.2c.09.14.2.31,0,.45s-.3,0-.43-.12A1.88,1.88,0,0,1,46.46,170.2Z"/><path class="cls-63" d="M67.71,211.73a1.67,1.67,0,0,1-.47-1,.23.23,0,0,1,.2-.12c.46,0,.47.53.72.79s.19.42,0,.54S67.81,211.88,67.71,211.73Z"/><path class="cls-49" d="M71.26,216.1c-.15-.24-.58-.51-.32-.75s.52.23.76.41a.62.62,0,0,1,.16.2c.1.15.19.34,0,.46s-.31,0-.43-.14Z"/><path class="cls-42" d="M67.32,216.46a.23.23,0,0,1-.33.08,6.59,6.59,0,0,1-.76-.45.31.31,0,0,1-.15-.42c.11-.2.29-.11.43,0s.5.32.74.49A.26.26,0,0,1,67.32,216.46Z"/><path class="cls-64" d="M58.4,188c-.17,0-.31,0-.34-.12a8.46,8.46,0,0,1-.15-1c0-.17,0-.35.22-.38s.28.16.3.31a5.15,5.15,0,0,1,.09.88C58.53,187.76,58.44,187.87,58.4,188Z"/><path class="cls-65" d="M58.2,183.58a1.74,1.74,0,0,1,0,1.45.25.25,0,0,1-.22,0,1.37,1.37,0,0,1,0-1.41C58,183.54,58.12,183.58,58.2,183.58Z"/><path class="cls-43" d="M59.79,196.6a.24.24,0,0,1-.32-.09c-.16-.41-.45-.83-.17-1.3,0,0,.2-.06.22,0a1.89,1.89,0,0,1,.34,1.31S59.82,196.57,59.79,196.6Z"/><path class="cls-49" d="M69.37,213.82a1.64,1.64,0,0,1-.23-.28c-.09-.14-.22-.3-.06-.45s.31,0,.43.09a2.5,2.5,0,0,1,.35.38c.13.17.34.37.14.56s-.37-.07-.52-.19S69.42,213.87,69.37,213.82Z"/><path class="cls-44" d="M75,220.05c.2.29.57.52.49,1,0,.12-.09.15-.2.11a1.52,1.52,0,0,1-.79-1.1c0-.15.15-.2.28-.14A1,1,0,0,1,75,220.05Z"/><path class="cls-40" d="M70.81,219.15a1.06,1.06,0,0,1,1.06.84s-.07.08-.09.07C71.23,220,71,219.58,70.81,219.15Z"/><path class="cls-55" d="M64.46,172.15c-.31.34-1.17.61-1.38.43a.12.12,0,0,1,0-.1c0-.29.7-.7,1.25-.69a.28.28,0,0,1,.2.13C64.51,172,64.47,172.07,64.46,172.15Z"/><path class="cls-66" d="M61.46,173.92c-.12.08-.28.21-.46.31a.24.24,0,1,1-.29-.37,7.33,7.33,0,0,1,.65-.6c.13-.1.33-.16.45,0s0,.31-.12.43Z"/><path class="cls-67" d="M53.77,208.09a1.37,1.37,0,0,1-1.85.31,1.42,1.42,0,0,1-.08-2,1.31,1.31,0,0,1,1.87,0A1.15,1.15,0,0,1,53.77,208.09Zm-1.41-.34a.7.7,0,0,0,1-.05.69.69,0,0,0-.08-1,.71.71,0,0,0-.94,1.06Z"/><path class="cls-68" d="M52.36,207.75a.71.71,0,0,1,.94-1.06.69.69,0,0,1,.08,1A.7.7,0,0,1,52.36,207.75Z"/><path class="cls-69" d="M96.29,156.14c.4,0,65.64-20.43,65.64-20.43L163.11,162l-32.62,12.58s-23.58,2.35-24.76-.4S96.29,156.14,96.29,156.14Z"/><line class="cls-70" x1="97.08" y1="157.32" x2="97.46" y2="157.2"/><line class="cls-71" x1="98.21" y1="156.97" x2="160.98" y2="137.14"/><line class="cls-70" x1="161.35" y1="137.02" x2="161.73" y2="136.9"/><path class="cls-1" d="M133.88,150.81l6,18.83s2.58,7.79,9.12,7.53c-7.9,9.62-2.37,145.18-2.37,145.18l-18.29,1.31S91.73,164.29,96,156C104.38,154.94,124.66,155.12,133.88,150.81Z"/><path class="cls-70" d="M116.36,163.82s0,4.79-5.92,8A63.22,63.22,0,0,1,98,176.68"/><path class="cls-70" d="M117.91,163.61s0,.14,0,.39"/><path class="cls-72" d="M117.74,164.75a12.16,12.16,0,0,1-6.12,8.29A67.14,67.14,0,0,1,99,178"/><path class="cls-70" d="M98.64,178.05l-.38.1"/><path class="cls-70" d="M136.87,159.52a72,72,0,0,1-21.05,4.2c-11.66.49-19.52.24-19.52.24"/><polyline class="cls-73" points="102.58 175.4 101.8 167.54 113.19 166.76 113.59 169.51"/><path class="cls-1" d="M127.93,152.8l5.9,18.87s2.36,7.86-3.15,11.4c12,3.34,85.29,117.51,85.29,117.51l15.72-9.43s-61.51-151.51-69.76-155.84C154.46,139.24,138,151,127.93,152.8Z"/><path class="cls-70" d="M149.75,153.39s2.75,3.93,9.43,3.15a63.28,63.28,0,0,0,13-3.15"/><path class="cls-70" d="M148.57,154.18a2.4,2.4,0,0,0,.2.33"/><path class="cls-74" d="M149.22,155.13c1.09,1.33,3.65,3.54,8.39,3a122.09,122.09,0,0,0,14.57-3"/><path class="cls-70" d="M172.56,155.07l.37-.1"/><path class="cls-70" d="M130.49,161.65A72.12,72.12,0,0,0,150.14,153c9.83-6.29,16.11-11,16.11-11"/><path class="cls-70" d="M130.1,160.47l.37-.1"/><path class="cls-75" d="M131.23,160.16a73.14,73.14,0,0,0,18.52-8.34c8-5.12,13.65-9.19,15.47-10.53"/><path class="cls-70" d="M165.55,141.05l.31-.23"/><path class="cls-70" d="M130.1,160.47a3.76,3.76,0,0,1-.36.16"/><path class="cls-76" d="M129,160.89c-1.64.51-5.43,1.33-13.28,1.55-9.5.26-16.48.07-18.73,0"/><path class="cls-70" d="M96.61,162.42l-.39,0"/><path class="cls-70" d="M162.72,136.1l-.32.22"/><path class="cls-77" d="M161.75,136.75c-4.44,3-23.2,15.36-33.23,17.43s-27.9,2.94-31.84,3.11"/><path class="cls-70" d="M96.29,157.31H95.9"/><path class="cls-78" d="M130.59,157.78a.32.32,0,0,1-.15,0,9,9,0,0,1,2.51-1.21,10.14,10.14,0,0,1,2.57-.67.32.32,0,0,1,.15,0,8.67,8.67,0,0,1-2.51,1.22A10.45,10.45,0,0,1,130.59,157.78Z"/><path class="cls-79" d="M135.33,156a12.46,12.46,0,0,1-2.21,1,11.6,11.6,0,0,1-2.33.65,11.09,11.09,0,0,1,2.2-1,11.26,11.26,0,0,1,2.34-.64m.19-.23a9.91,9.91,0,0,0-2.6.67c-1.5.54-2.64,1.15-2.57,1.37,0,.05.1.07.24.07a10.38,10.38,0,0,0,2.61-.67c1.49-.55,2.64-1.16,2.56-1.37,0,0-.1-.07-.24-.07Z"/><path class="cls-78" d="M133,158.5a1.77,1.77,0,1,1,1.77-1.77A1.77,1.77,0,0,1,133,158.5Z"/><path class="cls-79" d="M133,155.16a1.58,1.58,0,1,1-1.57,1.57,1.57,1.57,0,0,1,1.57-1.57m0-.39a2,2,0,1,0,2,2,2,2,0,0,0-2-2Z"/><path class="cls-80" d="M137.17,159.68s.05.13.13.37"/><path class="cls-81" d="M137.56,160.79c.53,1.55,1.47,4.39,2,6.36.75,3,3,10-3.14,11.27"/><path class="cls-80" d="M136,178.49l-.39.06"/><path class="cls-80" d="M138.35,158.9l.11.37"/><path class="cls-82" d="M138.68,160c.7,2.34,2.27,7.68,2.81,9.87.76,3,.79,8.95-5.49,10.1"/><path class="cls-80" d="M135.6,180.07l-.4.05"/><path class="cls-80" d="M132.06,161.25s0,.14.12.37"/><path class="cls-83" d="M132.41,162.39c.79,2.55,2.65,8.67,3.19,11.05s.41,6.92-2.79,9.88"/><path class="cls-80" d="M132.5,183.59l-.3.25"/><line class="cls-84" x1="146.6" y1="320.04" x2="146.21" y2="320.07"/><line class="cls-85" x1="145.42" y1="320.12" x2="130.02" y2="321.26"/><path class="cls-84" d="M129.63,321.29l-.4,0s0-.13-.08-.38"/><path class="cls-86" d="M129,320.18c-2.73-12.37-26.8-121.87-30.25-155"/><path class="cls-84" d="M98.69,164.79c0-.13,0-.26,0-.39"/><line class="cls-84" x1="215" y1="298.65" x2="215.34" y2="298.45"/><line class="cls-85" x1="216.02" y1="298.05" x2="229.37" y2="290.28"/><path class="cls-84" d="M229.71,290.09l.34-.2-.15-.36"/><path class="cls-87" d="M229.59,288.81c-5-11.74-49-115.67-64.92-144.94"/><path class="cls-84" d="M164.48,143.52l-.19-.35"/><polygon class="cls-88" points="120.65 153.85 122.11 164.83 119.23 165.17 118.05 154.24 120.65 153.85"/><polygon class="cls-88" points="140.51 147.69 145.62 157.52 148.17 156.14 142.87 146.51 140.51 147.69"/><path class="cls-13" d="M35.31,276.5a4.64,4.64,0,0,1,.19-2.42,3.06,3.06,0,0,1,1.35-1.7,1.35,1.35,0,0,0,.74-1,15.21,15.21,0,0,1,.48-1.49,1.46,1.46,0,0,0,0-1,2.15,2.15,0,0,1,.54-2.27c.69-.75.7-.93.19-1.86a1.09,1.09,0,0,1-.15-.74,3.15,3.15,0,0,1,.88-2c.77-.62.69-1.45.77-2.25a1,1,0,0,0-.64-.91c-.35-.19-.71-.32-.78-.78a2.29,2.29,0,0,1,.19-1.39,4.23,4.23,0,0,1,1-1.19,1.7,1.7,0,0,0,.43-2.29,3.3,3.3,0,0,1-.45-2.49c.2-.65.37-.71,1-.28.16.12.3.38.52.21a.63.63,0,0,0,.13-.48,1.29,1.29,0,0,0-.78-1.36,1.69,1.69,0,0,1-1.15-1.72c0-.4.06-.81.5-1s.43-.49.29-.83c-.24-.54-.32-1.14-.95-1.49a1,1,0,0,1-.38-1.57,2.17,2.17,0,0,0,.18-1.49c-.1-.86-.17-1.72-.27-2.59a4.44,4.44,0,0,0-.91-2.38,11,11,0,0,1-1.49-3.17c-.43-1.17-.73-2.4-1.06-3.62a3.34,3.34,0,0,1,.31-2.51,13.36,13.36,0,0,0,.74-1.8,5.88,5.88,0,0,1,3.4-3.86,3.14,3.14,0,0,0,.79-.46,2,2,0,0,1,2.59.09,26.73,26.73,0,0,1,5.83,5.14c2.6,3.15,5.32,6.18,7.8,9.42a34.86,34.86,0,0,1,5.21,9.56A113.83,113.83,0,0,0,71.81,265c1.73,2.9,3.15,6,4.87,8.89a68.64,68.64,0,0,1,5.76,13.36,19.21,19.21,0,0,1,.42,2,1.75,1.75,0,0,1-.66,1.85,4.47,4.47,0,0,1-1.07.72A14.69,14.69,0,0,0,77.75,294a4.6,4.6,0,0,1-3.11,1.43.77.77,0,0,0-.48.16,14.52,14.52,0,0,1-6.55,2.3,67.93,67.93,0,0,0-8.82,1.69,38.29,38.29,0,0,0-9.48,4.2,25.72,25.72,0,0,0-2.93,2.37c-.13.12-.22.28-.35.38-.81.6-1.22.55-1.9-.18a6.63,6.63,0,0,1-1.33-2.51,29.15,29.15,0,0,0-5.2-9.25.75.75,0,0,0-1-.28,13.49,13.49,0,0,1-6.06.24,6.06,6.06,0,0,1-1.25-.33,1.4,1.4,0,0,1-1-1.62,4.32,4.32,0,0,1,.58-1.85,47.59,47.59,0,0,0,3.23-7.52,1.7,1.7,0,0,1,.09-.24,2.51,2.51,0,0,0,.47-2.7c-.19-.41.09-.93.3-1.36a1.28,1.28,0,0,1,1-.85c.37,0,.7-.46,1-.71a.7.7,0,0,0,.25-.05c.3-.15.91.07.87-.49S35.54,276.78,35.31,276.5Zm8.94-35.37.29.21h0a.68.68,0,0,0,.37.41.24.24,0,0,1,.1.19l.22.87a.18.18,0,0,1,0,.2.84.84,0,0,0-.07.62.23.23,0,0,1-.06.22l-.14.25,0,0-.54-.12h0l.2-.32h0l.13-.42,0-.41a.57.57,0,0,0-.2-.75.29.29,0,0,1-.11-.18l-.29-.27h0l-.29-.18h0l-.37-.11-.4.09c-.24.36,0,.43.29.47,1.11.78,1.13,1.17.08,1.88l-1.14.28-.64,0c-.72,0-.75.05-.53.7.11.33.21.65.3,1a1.57,1.57,0,0,0,2.19,1.17,1.53,1.53,0,0,1,1.35-.08l-.27.44-.25,0c-.17,0-.35,0-.43.19s.13.26.24.36c.85.73.85.77.32,1.57l-1.6.42c-.24,0-.52-.13-.6.27-.29,1.44-.29,1.44,1,2.37a3.22,3.22,0,0,1,.41.32.89.89,0,0,0,1.15.25,1.34,1.34,0,0,1,1.14,0,2.28,2.28,0,0,1,1.13,2.85,2,2,0,0,1-2.6,1.06c-.34-.11-.6-.53-1.08-.34a10.89,10.89,0,0,1,0,1.28,1.24,1.24,0,0,0,.57,1.21,1,1,0,0,0,1.17.15,2,2,0,0,1,2.23.62,2.59,2.59,0,0,1,0,2.71,1.56,1.56,0,0,1-1.8.72,11,11,0,0,1-1.08-.43.54.54,0,0,0-.76.3,1.87,1.87,0,0,0,.07,1.61,1.68,1.68,0,0,0,1.68.72A2.07,2.07,0,0,1,48,267.11a2,2,0,0,1-1.2,2.33c-1,.46-1.77.18-2.49-.93-.15-.24-.26-.44-.58-.37a.53.53,0,0,0-.44.41c-.18.62-.37,1.24-.56,1.86a.43.43,0,0,0,.22.54,1.81,1.81,0,0,0,1.16.43c1.82-.06,2.57,1.05,2,2.91l-.43-.26a6.74,6.74,0,0,0,0-.77,1.32,1.32,0,0,0-1-1.23.46.46,0,0,0-.48.07c-.06.07,0,.25,0,.36.11.49.47.94.16,1.47a3.2,3.2,0,0,0-1.77.7c-.19-.21-.22-.6-.62-.56a.82.82,0,0,0-.78.56,7.88,7.88,0,0,1-.76,1.36c-.26.4-.08.6.2.87s.62.18,1,.15a1.93,1.93,0,0,1,2.19,2.12,3.93,3.93,0,0,1-.15,1,1.71,1.71,0,0,1-2.09,1.29,2.26,2.26,0,0,1-1.79-1.32c-.44-.91-1.07-.92-1.66-.11-.15.2-.28.43-.43.64-.57.8-.54.94.16,1.56a1.65,1.65,0,0,0,1.07.36,2.07,2.07,0,0,1,1.94,2.07A2.23,2.23,0,0,1,39,286.78a2,2,0,0,1-2.43-1.42,2.09,2.09,0,0,0-.64-1.07c-.56-.5-.56-.5-1.18.19a.79.79,0,0,0-.37.65,3,3,0,0,0,.82,3.85c.78.68,1.52,1.43,2.28,2.13.18.18.43.49.58.46.59-.15.51.17.52.54s.27.43.43.63c.51.65,1,1.28,1.53,1.94a14.84,14.84,0,0,1,3.09,7.07,20.92,20.92,0,0,0,.71,2.91,5,5,0,0,0,.47,1.06c.19.34.53.32.67-.06s.07-.66.62-.58c.28,0,.48-.32.7-.53a15.75,15.75,0,0,1,2.72-2,35.93,35.93,0,0,1,4.29-2.17,42.84,42.84,0,0,1,9.47-2.76c1.88-.33,3.77-.6,5.65-.92a13.35,13.35,0,0,0,3.93-1.34c.77-.4,1-.74.85-1.56a24.53,24.53,0,0,0-2.15-7.73c-2.8-5.58-5.64-11.14-8.59-16.65-1.51-2.83-3-5.67-4.4-8.56-.38-.79-.4-1.81-1.33-2.29a.23.23,0,0,1-.09-.33c.25-.52-.12-.92-.31-1.33-.5-1.1-1.05-2.19-1.59-3.28a109.71,109.71,0,0,0-5.59-10.13c-.34-.53-1-.75-1.24-1.24a17,17,0,0,0-.72-1.66A53.76,53.76,0,0,0,44,236.09a.81.81,0,0,0-1-.25,12.57,12.57,0,0,1-2.5.72c-.63.12-.65.2-.56.91s.21,1.54.3,2.32c.2,1.92.19,1.92,2.21,1.54a.83.83,0,0,0,.46-.36l.25-.07a1.06,1.06,0,0,0,.8.07h0l.32.16Zm32.38,52.41a1.3,1.3,0,0,0,1-.51,2.79,2.79,0,0,1,.46-.45,1.38,1.38,0,0,0,.68-1.63,15.05,15.05,0,0,0-.9-3.25,67.07,67.07,0,0,0-4.92-10.47c-2.34-4.11-4.56-8.28-6.82-12.43C63.52,260.09,61.88,255,60,250a.42.42,0,0,1,.15-.57c.23-.12.42,0,.57.18a4.75,4.75,0,0,1,1,2A67,67,0,0,0,65,260.35c2.07,4.45,4.44,8.74,6.83,13a110.38,110.38,0,0,1,5.9,11.44,24.56,24.56,0,0,1,1.8,5.28c.24,1.43.31,1.47,1.52.7a1.39,1.39,0,0,0,.8-1.83,10.67,10.67,0,0,0-.3-1.27,85.19,85.19,0,0,0-3-8.17c-1-2.24-2.27-4.29-3.4-6.44-1.69-3.18-3.37-6.36-5.2-9.47a99.65,99.65,0,0,1-4.62-8.88c-1.51-3.32-2.75-6.75-4-10.17a30.91,30.91,0,0,0-3.88-7.48c-3.13-4.33-6.68-8.32-10.18-12.35a41.1,41.1,0,0,0-4.19-3.5,1.22,1.22,0,0,0-1.66,0,2.81,2.81,0,0,1-.78.46c-2,.75-2.78,2.49-3.4,4.33a1,1,0,0,0,.14.88,8.19,8.19,0,0,0,.59.86,78.49,78.49,0,0,0,6.23,7.16A55.25,55.25,0,0,1,52.3,246a131,131,0,0,1,6.86,13.72c1.36,3.15,3,6.14,4.63,9.17,2.74,5.23,5.4,10.49,8.14,15.72a26.3,26.3,0,0,1,2.72,9c.13,1.11.3,1.2,1.23.64A2.16,2.16,0,0,0,76.63,293.54Zm-41.08.13a4.89,4.89,0,0,0,1.59-.54.48.48,0,0,0,.14-.84c-.2-.23-.42-.45-.64-.66-.86-.84-1.74-1.67-2.6-2.52a3.45,3.45,0,0,1-.73-3.85,5.38,5.38,0,0,1,.82-1.46,2.67,2.67,0,0,0,.36-.54c.18-.42-.18-.64-.41-.85s-.44,0-.6.23a5.57,5.57,0,0,0-.61,1.28c-.89,2.16-1.47,4.45-2.78,6.42-.45.69-.36,1.54-.83,2.21a.52.52,0,0,0,.27.76,3.18,3.18,0,0,0,.73.26A13.93,13.93,0,0,0,35.55,293.67Zm1-65.94a1.55,1.55,0,0,0-.08.47,21.79,21.79,0,0,0,2.5,7.17c.14.27.36.53.7.47a10.36,10.36,0,0,0,2.73-.76.28.28,0,0,0,.13-.43,4,4,0,0,0-.48-.61c-1.74-1.86-3.33-3.84-4.88-5.86C37,228,36.93,227.71,36.57,227.73ZM33.88,279a.72.72,0,0,0-.21.12,1.36,1.36,0,0,0-.1,1.68,31,31,0,0,0,3.53,3.63c.63.48,1.23.57,1.5.22s.06-.94-.54-1.45a12.24,12.24,0,0,1-1.22-1.17c-.8-.9-1.62-1.8-2.44-2.69C34.26,279.21,34.13,279,33.88,279Zm3.2-3.62-.43.24c-.35.19-.39.4-.06.68l2.84,2.44a3,3,0,0,0,1.37.7.61.61,0,0,0,.67-.26.6.6,0,0,0,0-.72,4.23,4.23,0,0,0-.61-.66c-1-.92-2.28-1.39-3.26-2.31A.55.55,0,0,0,37.08,275.41Zm8.33-14a1,1,0,0,0-.48-.87,14.94,14.94,0,0,1-2.87-2.39c-.61-.62-.77-.48-1.43,0a.38.38,0,0,0-.06.65,16.2,16.2,0,0,0,3.36,2.59,1.63,1.63,0,0,0,1.12.23A.89.89,0,0,0,45.41,261.46Zm-6.5,8,.05.12a10.54,10.54,0,0,0,3.75,3.87,1.55,1.55,0,0,0,.48.19c.21.05.45.1.61-.08s.1-.41,0-.6a3.55,3.55,0,0,0-1.39-1.51A7.32,7.32,0,0,1,40,269.5a2.14,2.14,0,0,0-.58-.5.36.36,0,0,0-.46.09C38.85,269.21,38.89,269.33,38.91,269.46ZM36,275.2a11.91,11.91,0,0,1,4.85-1.53.66.66,0,0,0,.25-.07c.16-.1.28-.25.12-.41-.56-.54-1.08-1.15-2-.84a8.21,8.21,0,0,1-1,.21A2.72,2.72,0,0,0,36,275.2Zm4.29-10.62a26.48,26.48,0,0,0,3.64,2.6,2.64,2.64,0,0,0,1.19.47c.18,0,.36,0,.42-.2a.56.56,0,0,0,0-.36A3.37,3.37,0,0,0,44,265.81a11.45,11.45,0,0,1-2-1.35C41.3,263.9,41.29,263.91,40.25,264.58Zm.58-13.13a.39.39,0,0,0-.15.49,5.35,5.35,0,0,0,3.39,3.35,1.09,1.09,0,0,0,.51,0,.56.56,0,0,0,.5-.36c.07-.24-.09-.39-.28-.53a44.3,44.3,0,0,1-3.68-2.87A.89.89,0,0,0,40.83,251.45Zm2.86,10.76a1.6,1.6,0,0,0-2.12-.39,5.66,5.66,0,0,1-1,.36,1.47,1.47,0,0,0-1,.95c-.1.28-.34.62-.14.85s.52-.08.77-.19l2.4-1C43,262.69,43.4,262.65,43.69,262.21ZM43,267.53c-.73-.55-1.12-1-1.69-1a4.15,4.15,0,0,0-2,.5,1.14,1.14,0,0,0-.6,1.43A21,21,0,0,1,43,267.53Zm.26-11.75a1.1,1.1,0,0,0-1.57-.4,5.69,5.69,0,0,0-1.42.85,2.3,2.3,0,0,0-.73,1c0,.19-.14.43.08.58s.34,0,.48-.09Zm.32-6.59c.28-.1.54-.14.58-.38s-.17-.37-.36-.47c-.66-.33-1.32-.65-2-1-.31-.15-.62-.31-.94-.43s-.51.06-.46.38a1.18,1.18,0,0,0,.33.69,5.6,5.6,0,0,0,2.16,1.16A2.23,2.23,0,0,0,43.62,249.19Zm-5.31,29.72c-1-1.32-1.85-1.55-3-.92-.28.15-.55.34-.46.69a.67.67,0,0,0,.67.52A11.39,11.39,0,0,0,38.31,278.91Zm2.08-36.69-.22.06a.63.63,0,0,0-.44.71c0,.36.27.5.62.49.78,0,1.56,0,2.33-.09.28,0,.67,0,.72-.42s-.37-.52-.67-.64A4.65,4.65,0,0,0,40.39,242.22Zm1.54,35.47c0,.6.47,1.08.22,1.66s-.88.68-1.4,1c.68.53,1.29.73,1.89.32a1.91,1.91,0,0,0,.6-2C43.14,278,42.66,277.71,41.93,277.69ZM45,268.51c.66.61.93.67,1.54.34a1.33,1.33,0,0,0,.77-1.49,1.61,1.61,0,0,0-1.3-1.28c-.14,0-.27.11-.23.24s.21.38.28.58c.28.79.16,1.05-.64,1.39C45.31,268.35,45.13,268.33,45,268.51Zm.25-5.95c1.16.25,1.67,0,1.85-.87a1.44,1.44,0,0,0-1.07-1.89.68.68,0,0,0-.48.09c-.2.13,0,.28.06.42C46.32,261.46,46.31,261.51,45.29,262.56Zm-6,20.74c.23,1.82.23,1.82-1.66,2.43a.94.94,0,0,0,1.09.46,1.78,1.78,0,0,0,1.33-.7C40.53,284.78,40.3,284,39.26,283.3Zm2.6,15.83a12.62,12.62,0,0,0-3.55-5.54.29.29,0,0,0-.05.35C39.38,295.73,40.82,297.29,41.86,299.13Zm2.6-42.94c1,.48,1.75.31,2.1-.46a1.54,1.54,0,0,0-.89-2.12.43.43,0,0,0-.37,0c-.17.15,0,.28.08.42.68.95.63,1.24-.32,1.85C44.88,256,44.68,256.07,44.46,256.19Zm-3.77,12.32c-.26.09-.37.26-.2.48a4.39,4.39,0,0,0,1,1.11c.27.19.49.14.59-.18.14-.47.56-1,.25-1.43s-.86,0-1.32,0A2.09,2.09,0,0,0,40.69,268.51Zm-.38,5.95a3.08,3.08,0,0,0-2.06.58c1.26,1.28,1.36,1.26,2.06-.3A2.07,2.07,0,0,0,40.31,274.46ZM39,271.83c.19-.09.56-.05.47-.42a1.27,1.27,0,0,0-.73-1c-.21-.08-.63.81-.51,1.17S38.66,271.82,39,271.83Zm2.45-10.55c.14-.12.55,0,.42-.42a.69.69,0,0,0-.68-.48c-.39.06-.3.46-.28.72S41.16,261.31,41.4,261.28Zm-1.71,4.53c0,.32.27.3.48.26s.48-.07.38-.36a.52.52,0,0,0-.59-.39C39.72,265.37,39.71,265.62,39.69,265.81ZM36,280.11c.09.3.49.55.68.42s.38-.34.28-.54-.52-.22-.8-.16A.2.2,0,0,0,36,280.11Zm6.36-23c-.16.1-.27.22-.16.42a.36.36,0,0,0,.42.22c.22-.06.18-.26.13-.43S42.61,257,42.4,257.07Zm.21,6.51c-.12.07-.28.13-.18.28s.25.3.37.3.24-.23.2-.41S42.77,263.55,42.61,263.58Zm-1.19-9-.07.1s.07.07.1.06,0-.06.07-.1Z"/><path class="cls-14" d="M35.31,276.5c.23.28.83-.14.86.34s-.57.34-.87.49a.7.7,0,0,1-.25.05C35.07,277.07,35,276.74,35.31,276.5Z"/><path class="cls-15" d="M76.63,293.54c-.21-2.64-1.32-5-2.3-7.42a59.37,59.37,0,0,0-4.21-8.21c-2.2-3.66-4-7.51-5.84-11.33-2.66-5.42-5-11-7.55-16.43a50.67,50.67,0,0,0-5.59-9.37,132.39,132.39,0,0,0-8.59-10.62c-1-1.08-2.14-2-3.2-3-.32-.32-.74-.58-.86-1.11a1.68,1.68,0,0,1,1.15.64,44.09,44.09,0,0,1,4.71,4.66,134.18,134.18,0,0,1,8.43,10.75A53.55,53.55,0,0,1,58,251.49c3.24,7.34,6.57,14.64,10.19,21.8,1.31,2.59,2.82,5.09,4.24,7.62a63.8,63.8,0,0,1,4,9.15,12.93,12.93,0,0,1,.55,2.67c0,.38.29.36.57.3A1.3,1.3,0,0,1,76.63,293.54Z"/><path class="cls-16" d="M43.69,262.21c-.29.44-.7.48-1,.63l-2.4,1c-.25.11-.51.49-.77.19s0-.57.14-.85a1.47,1.47,0,0,1,1-.95,5.66,5.66,0,0,0,1-.36A1.6,1.6,0,0,1,43.69,262.21Z"/><path class="cls-16" d="M43,267.53a21,21,0,0,0-4.29.88,1.14,1.14,0,0,1,.6-1.43,4.15,4.15,0,0,1,2-.5C41.92,266.49,42.31,267,43,267.53Z"/><path class="cls-17" d="M43.3,255.78l-3.16,2c-.14.09-.31.2-.48.09s-.13-.39-.08-.58a2.3,2.3,0,0,1,.73-1,5.69,5.69,0,0,1,1.42-.85A1.1,1.1,0,0,1,43.3,255.78Z"/><path class="cls-18" d="M43.62,249.19a2.23,2.23,0,0,1-.68,0A5.6,5.6,0,0,1,40.78,248a1.18,1.18,0,0,1-.33-.69c-.05-.32.14-.5.46-.38s.63.28.94.43c.67.31,1.33.63,2,1,.19.1.42.22.36.47S43.9,249.09,43.62,249.19Z"/><path class="cls-19" d="M38.31,278.91a11.39,11.39,0,0,1-2.83.29.67.67,0,0,1-.67-.52c-.09-.35.18-.54.46-.69C36.46,277.36,37.31,277.59,38.31,278.91Z"/><path class="cls-20" d="M40.39,242.22a4.65,4.65,0,0,1,2.34.11c.3.12.73.19.67.64s-.44.39-.72.42c-.77.05-1.55.06-2.33.09-.35,0-.59-.13-.62-.49a.63.63,0,0,1,.44-.71Z"/><path class="cls-21" d="M44.94,246.83a2.05,2.05,0,0,1,1.26,2.79,1.75,1.75,0,0,1-1.58,1.15,1.51,1.51,0,0,1-1.67-.94l1.6-.42-.68.55c1.09.35,1.81-.14,1.8-1.17a1.67,1.67,0,0,0-1-1.52Z"/><path class="cls-19" d="M41.93,277.69c.73,0,1.21.31,1.31,1a1.91,1.91,0,0,1-.6,2c-.6.41-1.21.21-1.89-.32.52-.34,1.15-.44,1.4-1S42,278.29,41.93,277.69Z"/><path class="cls-22" d="M44.45,273.93c.31-.53-.05-1-.16-1.47,0-.11,0-.29,0-.36a.46.46,0,0,1,.48-.07,1.32,1.32,0,0,1,1,1.23,6.74,6.74,0,0,1,0,.77c-1,1.14-1.33,1.21-2.23.45C43.81,274.29,44.28,274.36,44.45,273.93Z"/><path class="cls-20" d="M45,268.51c.09-.18.27-.16.42-.22.8-.34.92-.6.64-1.39-.07-.2-.22-.38-.28-.58s.09-.24.23-.24a1.61,1.61,0,0,1,1.3,1.28,1.33,1.33,0,0,1-.77,1.49C46,269.18,45.7,269.12,45,268.51Z"/><path class="cls-23" d="M45.29,262.56c1-1.05,1-1.1.36-2.25-.08-.14-.26-.29-.06-.42a.68.68,0,0,1,.48-.09,1.44,1.44,0,0,1,1.07,1.89C47,262.55,46.45,262.81,45.29,262.56Z"/><path class="cls-24" d="M39.26,283.3c1,.71,1.27,1.48.76,2.19a1.78,1.78,0,0,1-1.33.7.94.94,0,0,1-1.09-.46C39.49,285.12,39.49,285.12,39.26,283.3Z"/><path class="cls-25" d="M41.86,299.13c-1-1.84-2.48-3.4-3.6-5.19a.29.29,0,0,1,.05-.35A12.62,12.62,0,0,1,41.86,299.13Z"/><path class="cls-26" d="M44.46,256.19c.22-.12.42-.2.6-.31.95-.61,1-.9.32-1.85-.1-.14-.25-.27-.08-.42a.43.43,0,0,1,.37,0,1.54,1.54,0,0,1,.89,2.12C46.21,256.5,45.48,256.67,44.46,256.19Z"/><path class="cls-27" d="M44.67,247.27a1.67,1.67,0,0,1,1,1.52c0,1-.71,1.52-1.8,1.17l.68-.55c.53-.8.53-.84-.32-1.57-.11-.1-.33-.15-.24-.36s.26-.18.43-.19Z"/><path class="cls-28" d="M40.69,268.51a2.09,2.09,0,0,1,.36,0c.46,0,1-.37,1.32,0s-.11,1-.25,1.43c-.1.32-.32.37-.59.18a4.39,4.39,0,0,1-1-1.11C40.32,268.77,40.43,268.6,40.69,268.51Z"/><path class="cls-29" d="M44.45,273.93c-.17.43-.64.36-1,.55.9.76,1.22.69,2.23-.45l.43.26c-.89,1.61-2.26,1.74-3.46.34A3.2,3.2,0,0,1,44.45,273.93Z"/><path class="cls-30" d="M40.31,274.46a2.07,2.07,0,0,1,0,.28c-.7,1.56-.8,1.58-2.06.3A3.08,3.08,0,0,1,40.31,274.46Z"/><path class="cls-31" d="M44.44,242a.29.29,0,0,0,.11.18l.2.75,0,.41-.13.42h0l-.2.32h0a4.11,4.11,0,0,1-.82.26c-.41,0-.34-.22-.21-.47,1.05-.71,1-1.1-.08-1.88l-.29-.47.4-.09.37.11h0l.29.18h0Z"/><path class="cls-32" d="M43.41,243.81c-.13.25-.2.51.21.47a4.11,4.11,0,0,0,.82-.26l.54.12c-1,1.09-1.71,1.08-2.71,0Z"/><path class="cls-33" d="M39,271.83c-.29,0-.64.23-.77-.2s.3-1.25.51-1.17a1.27,1.27,0,0,1,.73,1C39.51,271.78,39.14,271.74,39,271.83Z"/><path class="cls-34" d="M34.76,284.48a4.26,4.26,0,0,1,.71,1.49c0,.15.08.36-.16.41s-.29-.13-.37-.28c-.18-.32-.16-.76-.55-1A.79.79,0,0,1,34.76,284.48Z"/><path class="cls-31" d="M41.4,261.28c-.24,0-.51.12-.54-.18s-.11-.66.28-.72a.69.69,0,0,1,.68.48C42,261.23,41.54,261.16,41.4,261.28Z"/><path class="cls-35" d="M39.69,265.81c0-.19,0-.44.27-.49a.52.52,0,0,1,.59.39c.1.29-.18.33-.38.36S39.73,266.13,39.69,265.81Z"/><path class="cls-36" d="M36,280.11a.2.2,0,0,1,.16-.28c.28-.06.63-.18.8.16s-.1.41-.28.54S36.13,280.41,36,280.11Z"/><path class="cls-37" d="M42.4,257.07c.21-.08.33,0,.39.21s.09.37-.13.43a.36.36,0,0,1-.42-.22C42.13,257.29,42.24,257.17,42.4,257.07Z"/><path class="cls-38" d="M42.61,263.58c.16,0,.34-.07.39.17s0,.4-.2.41-.28-.17-.37-.3S42.49,263.65,42.61,263.58Z"/><path class="cls-32" d="M43,241.46l.29.47C43,241.89,42.8,241.82,43,241.46Z"/><path class="cls-32" d="M44.75,242.88l-.2-.75A.57.57,0,0,1,44.75,242.88Z"/><path class="cls-32" d="M45,242a.7.7,0,0,1,.22.86C45.18,242.53,45.1,242.24,45,242Z"/><path class="cls-32" d="M43.11,240.9a.71.71,0,0,1,.8.07A1.06,1.06,0,0,1,43.11,240.9Z"/><path class="cls-32" d="M42.4,241.33a.48.48,0,0,1,.46-.36A.83.83,0,0,1,42.4,241.33Z"/><path class="cls-32" d="M45.27,243a.56.56,0,0,1-.07.62A.84.84,0,0,1,45.27,243Z"/><path class="cls-32" d="M44.56,241.35a.52.52,0,0,1,.37.41A.68.68,0,0,1,44.56,241.35Z"/><path class="cls-32" d="M43.81,241.48l-.37-.11Z"/><path class="cls-32" d="M44.44,244l.2-.32Z"/><path class="cls-32" d="M44.13,241.67l-.29-.18Z"/><path class="cls-32" d="M44.64,243.71l.13-.42Z"/><path class="cls-32" d="M44.44,242l-.29-.27Z"/><path class="cls-32" d="M43.93,241a.28.28,0,0,1,.32.16Z"/><path class="cls-32" d="M45.14,243.86a.19.19,0,0,1-.14.25Z"/><path class="cls-32" d="M44.25,241.13a.28.28,0,0,1,.29.21Z"/><path class="cls-39" d="M41.42,254.55l.1.06s0,.1-.07.1-.07,0-.1-.06Z"/><path class="cls-40" d="M61,267a2,2,0,0,1-1.54,2.45,1.92,1.92,0,1,1-1-3.72A2,2,0,0,1,61,267Zm-2.41-.57a1.14,1.14,0,0,0-.82,1.52,1.3,1.3,0,0,0,1.64.91,1.43,1.43,0,0,0,.94-1.76A1.39,1.39,0,0,0,58.6,266.41Z"/><path class="cls-41" d="M71.81,293c-.13.89-.82,1.25-1.44,1.66a6.79,6.79,0,0,1-4.73,1.21c1.06-.45,2.22-.53,3.26-1A21.73,21.73,0,0,0,71.81,293Z"/><path class="cls-41" d="M71.16,290.65s.11.08.1.1a5.41,5.41,0,0,1-3.55,3.45c-.16.06-.36.08-.45-.11s.14-.28.27-.33a6.49,6.49,0,0,0,3-2.43C70.68,291.08,70.77,290.69,71.16,290.65Z"/><path class="cls-42" d="M70.51,289.33a5.69,5.69,0,0,1-2.59,3.2.3.3,0,0,1-.44-.09.23.23,0,0,1,.06-.22,10,10,0,0,0,2.52-2.74A2.35,2.35,0,0,1,70.51,289.33Z"/><path class="cls-43" d="M69.5,287.06c.17,1.59-.69,2.54-1.56,3.48a.29.29,0,0,1-.23,0,.18.18,0,0,1-.07-.31A31.9,31.9,0,0,0,69.5,287.06Z"/><path class="cls-44" d="M40.44,289.43a2.58,2.58,0,0,1-.92,1.26.4.4,0,0,1-.35,0,2.61,2.61,0,0,1-.78-.84.24.24,0,0,1,.08-.33.26.26,0,0,1,.23,0,1.1,1.1,0,0,1,.31.22c.29.32.5.22.72-.09a1.68,1.68,0,0,1,.45-.43C40.28,289.1,40.43,289.18,40.44,289.43Z"/><path class="cls-45" d="M68.67,286a3.25,3.25,0,0,1-.83,2.06.27.27,0,0,1-.23.06c-.17,0-.17-.17-.12-.29.29-.66.59-1.31.89-2Z"/><path class="cls-46" d="M68.17,283.43a3.15,3.15,0,0,1-.56,2.54c-.08.15-.22.31-.41.23s-.1-.29,0-.43C67.45,285.07,67.76,284.37,68.17,283.43Z"/><path class="cls-47" d="M50.65,250.68c0,.15,0,.31-.1.38s-.34,0-.42-.13c-.21-.37-.51-.72-.34-1.19,0,0,.08,0,.12,0C50.43,249.84,50.37,250.38,50.65,250.68Z"/><path class="cls-48" d="M41.55,286.59c.21-.06.32,0,.35.16a1.83,1.83,0,0,1-.66,1.29.19.19,0,0,1-.28-.16A2.34,2.34,0,0,1,41.55,286.59Z"/><path class="cls-49" d="M67.2,282.26a2.32,2.32,0,0,1-.38,1.84c-.06.1-.17.22-.31.1a.25.25,0,0,1-.09-.21A4.31,4.31,0,0,1,67.2,282.26Z"/><path class="cls-50" d="M36.44,287.34c.37,0,1.13.79,1,1.12a.18.18,0,0,1-.07.1.15.15,0,0,1-.12.05,1.68,1.68,0,0,1-1-1.09C36.29,287.46,36.38,287.4,36.44,287.34Z"/><path class="cls-51" d="M41.5,292.51c0,.11,0,.22,0,.27a.25.25,0,0,1-.22.06c-.43-.16-1-.85-.87-1.12,0-.06.14-.15.19-.13A1.93,1.93,0,0,1,41.5,292.51Z"/><path class="cls-52" d="M43.4,297.3c0-.14-.06-.31-.07-.48a.26.26,0,0,1,.12-.18.23.23,0,0,1,.23,0,1.33,1.33,0,0,1,.26.42c.08.3.39.75,0,.89S43.57,297.58,43.4,297.3Z"/><path class="cls-53" d="M49.08,265c0,.32.08.71-.18,1a.2.2,0,0,1-.22,0c-.36-.3-.14-.71-.17-1.07s.07-.46.32-.46S49.06,264.78,49.08,265Z"/><path class="cls-54" d="M48.67,259.21c0,.35.22.75-.14,1.05-.2.16-.42-.29-.45-1a1,1,0,0,1,0-.25c0-.12.08-.25.24-.25a.28.28,0,0,1,.26.22C48.62,259,48.64,259.12,48.67,259.21Z"/><path class="cls-55" d="M47.11,247.64c0,.16,0,.33.06.5s0,.47-.25.51-.29-.25-.34-.44a2.07,2.07,0,0,1-.06-.5c0-.24,0-.57.3-.57S47.08,247.43,47.11,247.64Z"/><path class="cls-56" d="M46.49,242.67a2.06,2.06,0,0,1,.34-1.3.2.2,0,0,1,.32.06,1.66,1.66,0,0,1-.31,1.34C46.76,242.88,46.62,242.82,46.49,242.67Z"/><path class="cls-57" d="M48.52,245.29c-.08-.53-.18-.91,0-1.27a.22.22,0,0,1,.22,0c.38.26.23.69.29,1s0,.47-.28.47A.33.33,0,0,1,48.52,245.29Z"/><path class="cls-58" d="M52.68,254.84a1.61,1.61,0,0,1,1,1.06.25.25,0,0,1-.14.18c-.33.09-1.09-.73-1-1.09C52.51,254.93,52.61,254.89,52.68,254.84Z"/><path class="cls-59" d="M54.65,256.93a1.6,1.6,0,0,1,1.16.84c0,.12,0,.29-.19.26a1.81,1.81,0,0,1-1.14-.78C54.4,257.15,54.48,257,54.65,256.93Z"/><path class="cls-60" d="M48.67,267.51a.27.27,0,0,1,.26.23c.07.55-.12,1.22-.37,1.28a.16.16,0,0,1-.12,0c-.2-.13-.19-.89,0-1.34A.8.8,0,0,1,48.67,267.51Z"/><path class="cls-52" d="M48.92,262.17c0,.34.27.85-.16.92s-.31-.49-.4-.79a.7.7,0,0,1,0-.38.65.65,0,0,1,.26-.26.4.4,0,0,1,.17.16A2.48,2.48,0,0,1,48.92,262.17Z"/><path class="cls-60" d="M45.68,278.77c.07.05.16.08.19.15a.33.33,0,0,1,0,.24c-.2.39-.18.94-.76,1.06a.13.13,0,0,1-.1-.06,1.77,1.77,0,0,1,.54-1.36A.7.7,0,0,1,45.68,278.77Z"/><path class="cls-51" d="M45.07,300.17c0,.15,0,.23.06.31s0,.26-.17.27a.29.29,0,0,1-.22-.07,1.84,1.84,0,0,1-.42-1c0-.12,0-.27.16-.27a.44.44,0,0,1,.31.17A4.1,4.1,0,0,1,45.07,300.17Z"/><path class="cls-55" d="M48.23,270.39c.14,0,.27.08.26.21a7.07,7.07,0,0,1-.11,1c0,.17-.16.34-.33.32s-.25-.23-.22-.41.13-.67.21-1C48.06,270.47,48.16,270.44,48.23,270.39Z"/><path class="cls-48" d="M42.06,294.32c0-.09,0-.26.08-.31a.3.3,0,0,1,.43.12c.16.25.31.5.45.76a.29.29,0,0,1-.1.43c-.14.09-.24,0-.33-.09A2.48,2.48,0,0,1,42.06,294.32Z"/><path class="cls-61" d="M46.73,276.06a1.33,1.33,0,0,1,.21.09.16.16,0,0,1,0,.12c0,.52-.4,1.28-.68,1.27a.17.17,0,0,1-.11-.06c-.17-.19.09-1.05.43-1.37C46.64,276.08,46.69,276.07,46.73,276.06Z"/><path class="cls-62" d="M45.73,302.8c0,.25.28.69,0,.77-.49.13-.37-.44-.51-.72a.66.66,0,0,1,0-.25c0-.17,0-.37.21-.4s.25.16.31.32S45.7,302.69,45.73,302.8Z"/><path class="cls-63" d="M48.42,256.22a1.73,1.73,0,0,1-.1,1.1.23.23,0,0,1-.23,0c-.37-.28-.14-.69-.22-1.05,0-.21,0-.45.3-.45S48.41,256,48.42,256.22Z"/><path class="cls-49" d="M47.57,250.65c0,.29.24.74-.1.81s-.33-.46-.45-.74a.69.69,0,0,1,0-.25c0-.18,0-.38.22-.41s.26.18.3.34S47.55,250.57,47.57,250.65Z"/><path class="cls-42" d="M51.15,252.34a.22.22,0,0,1,.32.09,8.35,8.35,0,0,1,.43.77.31.31,0,0,1-.08.44c-.2.12-.31,0-.39-.19s-.26-.52-.38-.79A.26.26,0,0,1,51.15,252.34Z"/><path class="cls-64" d="M44.42,281.43c.16.06.27.14.23.28-.1.31-.23.62-.36.93a.32.32,0,0,1-.4.21c-.22-.08-.15-.27-.09-.42a6.33,6.33,0,0,1,.36-.8C44.21,281.54,44.34,281.49,44.42,281.43Z"/><path class="cls-65" d="M42.38,285.31c-.06-.31.48-1.21.75-1.24,0,0,.15.09.17.15.07.38-.4,1.17-.73,1.21C42.51,285.43,42.44,285.35,42.38,285.31Z"/><path class="cls-43" d="M47.59,273.27c.14,0,.25.12.23.24-.06.45,0,.95-.51,1.21,0,0-.19-.05-.2-.09a1.89,1.89,0,0,1,.37-1.3S47.55,273.29,47.59,273.27Z"/><path class="cls-49" d="M48.05,253.57c0,.11.05.24.06.36s0,.37-.18.43-.28-.15-.33-.3a3.1,3.1,0,0,1-.11-.51c0-.21-.1-.48.17-.55s.28.25.35.43A1.27,1.27,0,0,1,48.05,253.57Z"/><path class="cls-44" d="M46.37,245.37c0-.36-.23-.74.07-1.09.08-.09.15-.08.22,0a1.48,1.48,0,0,1,.13,1.35c-.08.12-.22.1-.31,0A1.17,1.17,0,0,1,46.37,245.37Z"/><path class="cls-40" d="M49.5,248.25A1.08,1.08,0,0,1,49,247a.23.23,0,0,1,.12,0A1.28,1.28,0,0,1,49.5,248.25Z"/><path class="cls-55" d="M31.19,292c.44-.13,1.32.07,1.41.33a.14.14,0,0,1,0,.11c-.13.26-1,.24-1.44,0a.25.25,0,0,1-.1-.21C31.06,292.12,31.14,292.06,31.19,292Z"/><path class="cls-66" d="M34.68,292a4.33,4.33,0,0,1,.55,0,.24.24,0,0,1,.27.21.25.25,0,0,1-.21.26,8.77,8.77,0,0,1-.86.18c-.17,0-.37,0-.39-.23s.17-.25.32-.3Z"/><path class="cls-67" d="M58.6,266.41a1.39,1.39,0,0,1,1.76.67,1.43,1.43,0,0,1-.94,1.76,1.3,1.3,0,0,1-1.64-.91A1.14,1.14,0,0,1,58.6,266.41Zm1,1a.71.71,0,0,0-.91-.47.69.69,0,0,0-.44.91.68.68,0,0,0,.83.43A.69.69,0,0,0,59.65,267.42Z"/><path class="cls-68" d="M59.65,267.42a.69.69,0,0,1-.52.87.68.68,0,0,1-.83-.43.69.69,0,0,1,.44-.91A.71.71,0,0,1,59.65,267.42Z"/><path class="cls-89" d="M197.85,82.94a8.57,8.57,0,0,1,3.81.63,3.34,3.34,0,0,1,1.84,3.3c0,1.57-1.27,3.27-2.93,4.59A10.42,10.42,0,0,1,194.89,94c-2.53,0-2.95-2-2.95-4.31l.05-1.44v0l0-1.33A3.33,3.33,0,0,1,194,83.56,9.1,9.1,0,0,1,197.85,82.94Z"/><path class="cls-90" d="M208,68.55a3.35,3.35,0,0,1,1.86,3.32c0,1.56-1.28,3.25-2.93,4.58a10.46,10.46,0,0,1-5.68,2.5c-2.54,0-2.95-2-2.95-4.29l0-1.44,0-1.35a3.35,3.35,0,0,1,2-3.32,9.07,9.07,0,0,1,3.87-.64A8.58,8.58,0,0,1,208,68.55Z"/><path class="cls-91" d="M204,98.82a8.71,8.71,0,0,1,3.81.63,3.35,3.35,0,0,1,1.84,3.31c0,1.56-1.27,3.26-2.93,4.6a10.46,10.46,0,0,1-5.67,2.49c-2.53,0-3-2-3-4.29l0-1.46h0l0-1.33a3.33,3.33,0,0,1,2-3.31A9.1,9.1,0,0,1,204,98.82Z"/><path class="cls-92" d="M221.15,102.21a8.48,8.48,0,0,1,3.8.63,3.34,3.34,0,0,1,1.85,3.32c0,1.54-1.28,3.25-2.93,4.58a10.48,10.48,0,0,1-5.67,2.5c-2.54,0-3-2-3-4.29l0-1.44v0l0-1.31a3.36,3.36,0,0,1,2-3.33A9.1,9.1,0,0,1,221.15,102.21Z"/><path class="cls-93" d="M235.76,93.73a8.66,8.66,0,0,1,3.81.63,3.39,3.39,0,0,1,1.84,3.33c0,1.55-1.26,3.25-2.93,4.58a10.51,10.51,0,0,1-5.67,2.5c-2.54,0-3-2-3-4.29L229.9,99l0-1.34a3.35,3.35,0,0,1,1.95-3.33A9.1,9.1,0,0,1,235.76,93.73Z"/><path class="cls-94" d="M231.21,58.29a58.38,58.38,0,0,0-8.48-.77c-1.59,0-3.12-.07-4.45-.16a27.06,27.06,0,0,1-7-1.28c-.92-.28-2-.59-3.4-.92l-1-.17c-4.9-.87-10.39,3.61-14.21,6.71-8.68,7.08-8.79,11.1-8.93,16.6a38.2,38.2,0,0,1-1.44,10.58c-1.45,5-1.77,8.61-.71,11.77s3.56,6,7.71,9.26a55,55,0,0,1,6.46,6.07c4.56,4.74,8.83,9.22,16.57,8.65a57.38,57.38,0,0,0,9.68-2.88l.4-.17a31.5,31.5,0,0,1,9.2-1.55c2.91-.18,5.66-.36,8.19-1.53a14.16,14.16,0,0,0,5.85-6.6,45.76,45.76,0,0,0,2.88-9l.56-2.33c1.92-7.86,2.44-10-1.91-18.32l0-.08a42.78,42.78,0,0,1-3.51-10.33,39.51,39.51,0,0,0-2.4-7.59,9.27,9.27,0,0,0-1.45-2.24,28.09,28.09,0,0,0-2.14-2"/><path class="cls-94" d="M229,66a3.61,3.61,0,0,0-.77.12h-.06c-1.93.52-4.28,2.49-6.47,6.26a14.73,14.73,0,0,0-1.72,10c1.67-2.08,3.7-2.65,5.6-3.18,1.58-.45,3-.87,3.9-2.34,2.18-3.78,2.7-6.81,2.2-8.74a.16.16,0,0,1,0-.08,3.32,3.32,0,0,0-.22-.58"/><path class="cls-94" d="M229.6,61.18l-1.28,2.21a3.17,3.17,0,0,0-.43,1.57A3.22,3.22,0,0,0,228,66a3.85,3.85,0,0,1,1,0h0a3.56,3.56,0,0,1,1.3.43,3.49,3.49,0,0,1,1.11,1s0,0,0,0a4.15,4.15,0,0,1,.42.71,2.86,2.86,0,0,0,1-.4A3.17,3.17,0,0,0,234,66.65c.44-.75.85-1.49,1.27-2.21"/><path class="cls-94" d="M232.53,56.24l-1.23,2.07c-.69,1.18-1.46,2.47-1.7,2.87l5.63,3.26,2.43-4.33c.18-.31.3-.54.38-.68"/><path class="cls-94" d="M232.53,56.24,238,59.43c6.52-11.83,10.17-20,11.31-24.24.44-1.57.58-2.4.44-2.49s-.79.47-1.94,1.63C244.76,37.44,239.52,44.68,232.53,56.24Z"/><path class="cls-79" d="M223.24,250.9c-5.29-10.23-8.59-22.28-5.08-33.65,2.87-9.27,10.3-17.11,20-18.95-.22.8-.43,1.6-.65,2.4a36,36,0,0,1-9.66-36.57,36.65,36.65,0,0,1,9.88-15.61c5.61-5.29,12.79-7.67,19.69-10.75,1.69-.76,2.8,1.9,1.11,2.65-6.11,2.72-12.53,4.79-17.72,9.17a33.82,33.82,0,0,0-9.87,14.3c-4.36,12-.8,25.75,8.21,34.68a1.36,1.36,0,0,1-.65,2.4c-9.1,1.65-15.87,9.47-18.32,18.11-3,10.45,0,21.67,4.49,31.22.43.92-1,1.48-1.44.6Z"/><path class="cls-79" d="M258.22,141.41c-1.14,5.87-3.65,11.68-5.65,17.3-.56,1.57-3,.84-2.78-.78a59.91,59.91,0,0,1,6.07-18.75c.25.63.51,1.25.76,1.88L248,138c-2.57-.92-5.67-1.57-7.89-3.19a1.23,1.23,0,0,1,.91-2.17c2.74.19,5.57,1.72,8.13,2.66l8.62,3.15a1.46,1.46,0,0,1,.77,1.89,57.13,57.13,0,0,0-5.84,18l-2.78-.77c2.08-5.49,3.92-11.46,6.8-16.58.41-.73,1.72-.55,1.53.42Z"/><path class="cls-79" d="M250.75,158.81q-3.34-6.47-6.74-12.93c-1.09-2.07-2.19-4.15-3.3-6.22s-2.53-3.95-3-6.16a1.09,1.09,0,0,1,1.73-1c1.51,1.44,2.28,3.45,3.24,5.3,1.15,2.22,2.27,4.45,3.34,6.71q3.23,6.78,5.89,13.79a.65.65,0,0,1-1.2.5Z"/><rect class="cls-95" x="1.66" y="0.97" width="270.43" height="328.82"/></svg>