<svg id="Layer_1" data-name="Layer 1" xmlns="http://www.w3.org/2000/svg" viewBox="0 0 267.61 328.44"><defs><style>.cls-1,.cls-71,.cls-74,.cls-81,.cls-91{fill:#fff;}.cls-1,.cls-10,.cls-11,.cls-12,.cls-13,.cls-14,.cls-15,.cls-16,.cls-17,.cls-18,.cls-19,.cls-2,.cls-20,.cls-21,.cls-22,.cls-23,.cls-24,.cls-25,.cls-26,.cls-27,.cls-28,.cls-29,.cls-3,.cls-30,.cls-31,.cls-32,.cls-33,.cls-34,.cls-35,.cls-36,.cls-37,.cls-38,.cls-39,.cls-4,.cls-40,.cls-41,.cls-42,.cls-43,.cls-44,.cls-45,.cls-46,.cls-47,.cls-48,.cls-49,.cls-50,.cls-51,.cls-52,.cls-53,.cls-54,.cls-55,.cls-56,.cls-57,.cls-58,.cls-59,.cls-6,.cls-60,.cls-61,.cls-62,.cls-63,.cls-64,.cls-65,.cls-66,.cls-67,.cls-69,.cls-7,.cls-70,.cls-71,.cls-74,.cls-8,.cls-9,.cls-91{stroke:#231f20;}.cls-1,.cls-10,.cls-11,.cls-12,.cls-13,.cls-14,.cls-15,.cls-16,.cls-17,.cls-18,.cls-19,.cls-2,.cls-20,.cls-21,.cls-22,.cls-23,.cls-24,.cls-25,.cls-26,.cls-27,.cls-28,.cls-29,.cls-3,.cls-30,.cls-31,.cls-32,.cls-33,.cls-34,.cls-35,.cls-36,.cls-37,.cls-38,.cls-39,.cls-4,.cls-40,.cls-41,.cls-42,.cls-43,.cls-44,.cls-45,.cls-46,.cls-47,.cls-48,.cls-49,.cls-50,.cls-51,.cls-52,.cls-53,.cls-54,.cls-55,.cls-56,.cls-57,.cls-58,.cls-59,.cls-6,.cls-60,.cls-61,.cls-62,.cls-63,.cls-64,.cls-65,.cls-66,.cls-67,.cls-69,.cls-7,.cls-70,.cls-71,.cls-72,.cls-73,.cls-74,.cls-75,.cls-76,.cls-77,.cls-78,.cls-79,.cls-8,.cls-80,.cls-83,.cls-84,.cls-85,.cls-86,.cls-87,.cls-88,.cls-89,.cls-9,.cls-90,.cls-91{stroke-miterlimit:10;}.cls-1{stroke-width:1.71px;}.cls-10,.cls-11,.cls-12,.cls-2,.cls-3,.cls-6,.cls-7,.cls-72,.cls-73,.cls-75,.cls-76,.cls-77,.cls-78,.cls-79,.cls-8,.cls-80,.cls-83,.cls-84,.cls-85,.cls-86,.cls-87,.cls-88,.cls-89,.cls-9,.cls-90,.cls-93{fill:none;}.cls-10,.cls-11,.cls-12,.cls-2,.cls-3,.cls-4,.cls-6,.cls-7,.cls-8,.cls-9{stroke-width:0.34px;}.cls-3{stroke-dasharray:0.34 0.17;}.cls-4,.cls-5{fill:#feaebb;}.cls-6{stroke-dasharray:0.33 0.16;}.cls-7{stroke-dasharray:0.34 0.17;}.cls-8{stroke-dasharray:0.33 0.17;}.cls-9{stroke-dasharray:0.34 0.17;}.cls-10{stroke-dasharray:0.33 0.17;}.cls-11{stroke-dasharray:0.34 0.17;}.cls-12{stroke-dasharray:0.34 0.17;}.cls-13,.cls-82{fill:#010101;}.cls-13,.cls-14,.cls-15,.cls-16,.cls-17,.cls-18,.cls-19,.cls-20,.cls-21,.cls-22,.cls-23,.cls-24,.cls-25,.cls-26,.cls-27,.cls-28,.cls-29,.cls-30,.cls-31,.cls-32,.cls-33,.cls-34,.cls-35,.cls-36,.cls-37,.cls-38,.cls-39,.cls-40,.cls-41,.cls-42,.cls-43,.cls-44,.cls-45,.cls-46,.cls-47,.cls-48,.cls-49,.cls-50,.cls-51,.cls-52,.cls-53,.cls-54,.cls-55,.cls-56,.cls-57,.cls-58,.cls-59,.cls-60,.cls-61,.cls-62,.cls-63,.cls-64,.cls-65,.cls-66,.cls-67,.cls-69,.cls-70{stroke-width:0.5px;}.cls-14{fill:#848484;}.cls-15{fill:#1a1a1a;}.cls-16{fill:#ebebeb;}.cls-17{fill:#efefef;}.cls-18{fill:#f1f1f1;}.cls-19{fill:#e8e8e8;}.cls-20{fill:#e9e9e9;}.cls-21{fill:#1d1d1d;}.cls-22{fill:#e7e7e7;}.cls-23{fill:#eaeaea;}.cls-24{fill:#dfdfdf;}.cls-25{fill:#6b6b6b;}.cls-26{fill:#e3e3e3;}.cls-27{fill:#e1e1e1;}.cls-28{fill:#eee;}.cls-29{fill:#212121;}.cls-30{fill:#ededed;}.cls-31{fill:#d7d7d7;}.cls-32{fill:#202020;}.cls-33{fill:#d1d1d1;}.cls-34{fill:#515151;}.cls-35{fill:#aeaeae;}.cls-36{fill:#d4d4d4;}.cls-37{fill:#8c8c8c;}.cls-38{fill:#e6e6e6;}.cls-39{fill:#cacaca;}.cls-40{fill:#080808;}.cls-41{fill:#181818;}.cls-42{fill:#3e3e3e;}.cls-43{fill:#4b4b4b;}.cls-44{fill:#424242;}.cls-45{fill:#494949;}.cls-46{fill:#464646;}.cls-47{fill:#353535;}.cls-48{fill:#525252;}.cls-49{fill:#5d5d5d;}.cls-50{fill:#414141;}.cls-51{fill:#535353;}.cls-52{fill:#4e4e4e;}.cls-53{fill:#484848;}.cls-54{fill:#5a5a5a;}.cls-55{fill:#5e5e5e;}.cls-56{fill:#5c5c5c;}.cls-57{fill:#4f4f4f;}.cls-58{fill:#646464;}.cls-59{fill:#4d4d4d;}.cls-60{fill:#5b5b5b;}.cls-61{fill:#505050;}.cls-62{fill:#565656;}.cls-63{fill:#444;}.cls-64{fill:#545454;}.cls-65{fill:#595959;}.cls-66{fill:#454545;}.cls-67{fill:#4c4c4c;}.cls-68{fill:#f9bfcb;}.cls-69{fill:#dedede;}.cls-70{fill:#131313;}.cls-71{stroke-width:0.46px;}.cls-72,.cls-73,.cls-75,.cls-76,.cls-77,.cls-78,.cls-79,.cls-80,.cls-83,.cls-84,.cls-85,.cls-86,.cls-87,.cls-88,.cls-89,.cls-90{stroke:#010101;}.cls-72,.cls-73,.cls-75,.cls-77,.cls-78,.cls-79,.cls-80{stroke-width:0.39px;}.cls-73{stroke-dasharray:0.79 0.79;}.cls-74{stroke-width:2px;}.cls-75{stroke-dasharray:0.77 0.77;}.cls-76{stroke-width:0.29px;}.cls-77{stroke-dasharray:0.77 0.77;}.cls-78{stroke-dasharray:0.79 0.79;}.cls-79{stroke-dasharray:0.77 0.77;}.cls-80{stroke-dasharray:0.78 0.78;}.cls-83,.cls-84,.cls-85,.cls-86{stroke-width:0.29px;}.cls-84{stroke-dasharray:0.79 0.79;}.cls-85{stroke-dasharray:0.79 0.79;}.cls-86{stroke-dasharray:0.81 0.81;}.cls-87,.cls-88,.cls-89,.cls-90{stroke-width:0.39px;}.cls-88{stroke-dasharray:0.79 0.79;}.cls-89{stroke-dasharray:0.78 0.78;}.cls-90{stroke-dasharray:0.79 0.79;}.cls-91{stroke-width:1.18px;}.cls-92{fill:#af8cc0;}</style></defs><path class="cls-1" d="M184.9,53,165.38,96.08s2.78,13.84,2.67,16.84-9.55,38-9.55,38-.62,4,7.15,5.42,6.89-.12,6.89-.12,13.36-40.48,13.71-43.52,2.5-14.45,1.92-19.61,1.17-10.38.62-14.37S186.41,52.71,184.9,53Z"/><path class="cls-2" d="M171.61,137.8s6.6-23.3,8-32.35-1.86-35-1.86-35"/><path class="cls-2" d="M169.89,140.3l.05-.16"/><path class="cls-3" d="M170,140c.81-3,7.07-26.29,8.38-34.74s-1.12-29.8-1.42-32.36"/><path class="cls-2" d="M176.93,72.79l0-.16"/><path class="cls-2" d="M160.15,154.14l11.47-16.3s-1.17,18.5-1.34,19.12"/><path class="cls-4" d="M176.17,116.37a65.77,65.77,0,0,1-8.29-2.24"/><path class="cls-5" d="M176.24,115.44a57.07,57.07,0,0,1-8.14-2.12"/><path class="cls-2" d="M176.24,115.44l-.16,0"/><path class="cls-6" d="M175.92,115.38a57.1,57.1,0,0,1-7.57-2"/><path class="cls-2" d="M168.26,113.38l-.16-.06"/><line class="cls-2" x1="160.93" y1="154.79" x2="161.02" y2="154.65"/><line class="cls-7" x1="161.12" y1="154.51" x2="170.45" y2="140.67"/><path class="cls-2" d="M170.5,140.6l.09-.14v.16"/><path class="cls-8" d="M170.56,140.78c-.18,2.12-1.18,13.88-1.42,15.79"/><path class="cls-2" d="M169.13,156.66c0,.08,0,.13,0,.16"/><path class="cls-1" d="M94.12,28.55l-4.77,47S80,86.15,78.58,88.79s-10.86,37.66-10.86,37.66-1.49,3.79-8.9,1.09-5.9-3.57-5.9-3.57,8.8-41.7,10-44.51,5.1-13.75,8.2-17.91S75.36,52,77.84,48.81,93,27.52,94.12,28.55Z"/><path class="cls-2" d="M63,108.51s6-23.47,9.36-32S91.56,47.18,91.56,47.18"/><path class="cls-2" d="M63.22,111.53l0-.16"/><path class="cls-3" d="M63.31,111.21c.8-3,7.1-26.27,10.22-34.24s16-25.2,17.49-27.26"/><path class="cls-2" d="M91.08,49.64l.09-.13"/><path class="cls-2" d="M64.69,128.4,63,108.54s-8.29,16.57-8.45,17.2"/><path class="cls-4" d="M69.83,87.69a65.81,65.81,0,0,0,8.28,2.23"/><path class="cls-5" d="M70.23,86.85a57.31,57.31,0,0,0,8.1,2.26"/><path class="cls-2" d="M70.23,86.85l.16.06"/><path class="cls-6" d="M70.54,87a58.08,58.08,0,0,0,7.54,2.11"/><path class="cls-2" d="M78.17,89.08l.16,0"/><path class="cls-1" d="M114.51,136.68c14.3,4.56,31.73,3.1,31.73,3.1s1.11-4.76,2.38-11.4c1.88-8.91,13.61-29.13,16.73-32.31,4.82-6.21,19.52-43,19.52-43s-9.63-7.83-12.42-9.8-8.09-6.2-14-10.93-13.79-6.67-13.79-6.67l-1.13-.32s-8.74-2.53-16.2-1.4S113.18,26,109.79,26.32s-15.67,2.23-15.67,2.23-5.81,39.24-4.77,47c1.1,4.32-.65,26.79-2.5,36.22A80.84,80.84,0,0,1,83.9,123s15,10.16,29.7,13.41Z"/><path class="cls-1" d="M146.77,18.92s6.44,1.84,9.28,2.95a6.67,6.67,0,0,1,3.73,3.45l3.64,10.93S152,29.79,142.5,27.63c-8.21-1.87-21.4-2.79-21.4-2.79l8.64-7.62a6.69,6.69,0,0,1,5-1.11c3,.46,10.68,2.42,10.68,2.42Z"/><path class="cls-2" d="M90.17,60.06S93,64.16,93,73.57"/><line class="cls-2" x1="63.68" y1="128.56" x2="63.67" y2="128.4"/><line class="cls-7" x1="63.66" y1="128.23" x2="62.55" y2="111.57"/><path class="cls-2" d="M62.55,111.49v-.17l-.07.15"/><path class="cls-8" d="M62.4,111.61c-.91,1.92-6,12.59-6.71,14.37"/><path class="cls-2" d="M55.66,126.06l-.06.15"/><path class="cls-2" d="M102.56,27l0,.17"/><path class="cls-9" d="M102.52,27.37C102.11,30.93,98.33,62.59,93,70"/><path class="cls-2" d="M93,70.06a1.13,1.13,0,0,0-.1.13"/><path class="cls-2" d="M120.07,25.72h.17"/><path class="cls-10" d="M120.4,25.73c2,.1,12.5.67,20.22,2.74a78.62,78.62,0,0,1,18.59,7.73"/><path class="cls-2" d="M159.29,36.25l.14.08"/><path class="cls-2" d="M103.76,27.12S99.32,67.51,92.85,71.23c0,0,2.29,17.8-4,41.47-2.77,9.84-3.07,11.37-3.07,11.37"/><path class="cls-2" d="M90.07,62.13s0,.1.05.15"/><path class="cls-11" d="M90.17,62.44c1.67,5.12,5,21.55-1.89,49a108.06,108.06,0,0,1-3.52,11.18"/><path class="cls-2" d="M84.72,122.73a.67.67,0,0,1-.07.14"/><path class="cls-2" d="M172,82.12s-4.46,2.16-9.28,10.24"/><path class="cls-2" d="M177.88,47.35l-.07.15"/><path class="cls-9" d="M177.75,47.65c-1.44,3.29-14.09,32.56-13.2,41.64"/><path class="cls-2" d="M164.56,89.37c0,.06,0,.11,0,.17"/><path class="cls-2" d="M176.8,46.81S160.34,84,164.06,90.44c0,0-10.94,14.23-17.42,37.83-2.55,9.9-3.07,11.38-3.07,11.38"/><path class="cls-2" d="M171,84l-.13.11"/><path class="cls-11" d="M170.79,84.18c-4,3.59-15.11,16.15-23,43.33a107.51,107.51,0,0,0-2.57,11.43"/><path class="cls-2" d="M145.19,139c0,.12,0,.16,0,.16"/><path class="cls-12" d="M86.21,122.61s15.55,9,27.85,12.39c13.94,3.82,30.82,2.73,30.82,2.73"/><path class="cls-13" d="M95.5,161.8a4.67,4.67,0,0,1,.45,2.39,3,3,0,0,1-.85,2,1.37,1.37,0,0,0-.46,1.15c0,.52,0,1-.06,1.56a1.36,1.36,0,0,0,.25,1,2.16,2.16,0,0,1,.08,2.33c-.47.9-.43,1.08.3,1.84a1,1,0,0,1,.34.68,3.09,3.09,0,0,1-.33,2.14c-.57.8-.27,1.58-.14,2.37a1,1,0,0,0,.86.71c.38.09.76.12,1,.55a2.3,2.3,0,0,1,.19,1.39,4.23,4.23,0,0,1-.66,1.41,1.7,1.7,0,0,0,.2,2.32,3.3,3.3,0,0,1,1.09,2.28c0,.68-.17.79-.87.53-.19-.07-.39-.28-.56-.06a.66.66,0,0,0,0,.5,1.3,1.3,0,0,0,1.12,1.1A1.7,1.7,0,0,1,99,191.29c.08.39.15.8-.23,1.07s-.29.6,0,.88c.36.46.6,1,1.3,1.19a1,1,0,0,1,.78,1.41,2.18,2.18,0,0,0,.22,1.48c.32.81.62,1.62,1,2.43a4.37,4.37,0,0,0,1.5,2.06,10.54,10.54,0,0,1,2.27,2.66c.73,1,1.34,2.13,2,3.21a3.37,3.37,0,0,1,.36,2.51,13.8,13.8,0,0,0-.24,1.92,5.86,5.86,0,0,1-2.26,4.63,3,3,0,0,0-.64.65,1.94,1.94,0,0,1-2.52.6,27,27,0,0,1-7-3.42c-3.33-2.35-6.76-4.55-10-7a34.46,34.46,0,0,1-7.55-7.84,113.63,113.63,0,0,0-14.52-17.14c-2.43-2.34-4.62-4.94-7-7.3a68.49,68.49,0,0,1-9.08-11.36,18.93,18.93,0,0,1-1-1.85,1.76,1.76,0,0,1,.15-2,4.62,4.62,0,0,1,.84-1,14.49,14.49,0,0,0,2.69-3,4.64,4.64,0,0,1,2.62-2.2.75.75,0,0,0,.42-.28,14.62,14.62,0,0,1,5.71-3.95,68.32,68.32,0,0,0,8.06-3.95,39,39,0,0,0,8-6.56A25.41,25.41,0,0,0,77,136.12c.1-.15.14-.32.25-.46.61-.79,1-.85,1.87-.32a6.22,6.22,0,0,1,2,2.07A29.22,29.22,0,0,0,88.51,145a.76.76,0,0,0,1,0,13.31,13.31,0,0,1,5.78-1.83,5.57,5.57,0,0,1,1.29,0,1.38,1.38,0,0,1,1.4,1.29,4.24,4.24,0,0,1-.07,1.94,48,48,0,0,0-1.13,8.1,1.1,1.1,0,0,1,0,.26,2.54,2.54,0,0,0,.25,2.73c.3.34.16.92.07,1.39a1.27,1.27,0,0,1-.77,1.1c-.34.14-.55.62-.82.95a.84.84,0,0,0-.23.12c-.26.23-.9.18-.72.7S95.2,161.6,95.5,161.8Zm.72,36.48-.34-.12,0,0a.71.71,0,0,0-.46-.29.22.22,0,0,1-.15-.16l-.45-.77a.2.2,0,0,1-.07-.19.89.89,0,0,0-.09-.62.21.21,0,0,1,0-.23l.07-.28v0l.56,0h0l-.11.37h0v.44l.12.39a.58.58,0,0,0,.39.67.36.36,0,0,1,.16.14l.35.19h0l.32.09h.42l.37-.2c.13-.41-.12-.41-.4-.38-1.29-.46-1.41-.83-.59-1.79l1-.57.63-.14c.69-.19.71-.24.32-.82-.18-.28-.37-.57-.54-.86a1.57,1.57,0,0,0-2.42-.55A1.54,1.54,0,0,1,94,193l.15-.49.23-.08c.16-.06.34-.11.37-.3s-.2-.22-.33-.28c-1-.49-1-.52-.73-1.44l1.44-.82c.23-.06.54,0,.51-.42-.1-1.47-.1-1.47-1.58-2a4,4,0,0,1-.48-.2.9.9,0,0,0-1.18.06,1.32,1.32,0,0,1-1.1.29,2.3,2.3,0,0,1-1.85-2.46,2,2,0,0,1,2.23-1.71c.36,0,.72.36,1.14,0a9.5,9.5,0,0,1-.31-1.25,1.26,1.26,0,0,0-.87-1,1,1,0,0,0-1.17.16,1.94,1.94,0,0,1-2.32,0,2.57,2.57,0,0,1-.7-2.61A1.55,1.55,0,0,1,89,177.24a9.15,9.15,0,0,1,1.16.13.54.54,0,0,0,.65-.49,1.89,1.89,0,0,0-.49-1.54,1.72,1.72,0,0,0-1.82-.25,2.06,2.06,0,0,1-2.77-.88,2,2,0,0,1,.54-2.56c.81-.71,1.66-.65,2.64.23.21.19.37.36.66.21a.55.55,0,0,0,.32-.52c0-.64,0-1.29,0-1.94a.43.43,0,0,0-.36-.46,1.77,1.77,0,0,0-1.23-.11c-1.74.54-2.75-.33-2.75-2.27l.48.15c.06.25.1.5.17.75a1.32,1.32,0,0,0,1.26.92.44.44,0,0,0,.45-.19c0-.08,0-.24-.09-.35-.23-.44-.7-.78-.54-1.37a3.33,3.33,0,0,0,1.52-1.15c.24.16.37.52.75.38a.83.83,0,0,0,.6-.75,8.76,8.76,0,0,1,.37-1.51c.15-.45-.07-.6-.42-.78s-.64,0-1,.1a1.92,1.92,0,0,1-2.67-1.46,3.53,3.53,0,0,1-.13-1,1.7,1.7,0,0,1,1.67-1.8,2.25,2.25,0,0,1,2.08.8c.66.77,1.27.6,1.63-.33.09-.24.16-.49.25-.74.33-.92.27-1-.57-1.46a1.66,1.66,0,0,0-1.12-.06,2.06,2.06,0,0,1-2.42-1.48,2.23,2.23,0,0,1,1.28-2.57,2,2,0,0,1,2.72.72,2.07,2.07,0,0,0,.91.87c.66.33.67.33,1.08-.5a.79.79,0,0,0,.19-.72,3,3,0,0,0-1.81-3.5c-.94-.45-1.84-1-2.76-1.46-.23-.12-.55-.35-.69-.28-.52.29-.54,0-.64-.38s-.37-.35-.58-.5c-.67-.49-1.35-1-2-1.47a14.81,14.81,0,0,1-4.85-6A19.75,19.75,0,0,0,79.34,137a4.93,4.93,0,0,0-.74-.9c-.27-.27-.59-.17-.62.23s.1.67-.44.73c-.29,0-.39.44-.54.69a15.84,15.84,0,0,1-2.09,2.65,36.38,36.38,0,0,1-3.57,3.23,43,43,0,0,1-8.41,5.16c-1.73.81-3.48,1.58-5.21,2.38a13.36,13.36,0,0,0-3.43,2.34,1.25,1.25,0,0,0-.41,1.72A24.69,24.69,0,0,0,58,162.15c4.18,4.64,8.39,9.26,12.68,13.79,2.21,2.33,4.41,4.67,6.51,7.1.58.66.87,1.63,1.89,1.85a.23.23,0,0,1,.17.29c-.1.57.36.86.65,1.21.78.93,1.59,1.84,2.4,2.74a108.87,108.87,0,0,0,8.07,8.29c.47.43,1.12.47,1.52.88s.65,1,1.13,1.41c1.5,1.26,3.18,2.26,4.79,3.36a.82.82,0,0,0,1.07,0,11.93,11.93,0,0,1,2.21-1.36c.58-.28.58-.37.31-1s-.62-1.43-.9-2.16c-.71-1.8-.7-1.8-2.54-.9a.86.86,0,0,0-.36.46l-.22.14a1,1,0,0,0-.78.15h0l-.36-.07Zm-45.07-42a1.32,1.32,0,0,0-.8.75,2.36,2.36,0,0,1-.33.55,1.39,1.39,0,0,0-.21,1.76,15.27,15.27,0,0,0,1.71,2.89A67.85,67.85,0,0,0,59,171c3.34,3.34,6.59,6.78,9.86,10.18,3.72,3.87,6.64,8.33,9.74,12.67.12.18.2.41,0,.59s-.41.09-.6,0a4.87,4.87,0,0,1-1.46-1.63,65.82,65.82,0,0,0-5.46-7.6c-3.17-3.75-6.6-7.26-10-10.75A110,110,0,0,1,52.39,165a24.22,24.22,0,0,1-3.13-4.62c-.61-1.31-.69-1.33-1.66-.27a1.4,1.4,0,0,0-.28,2,11.36,11.36,0,0,0,.62,1.14c1.57,2.45,3.28,4.8,5.08,7.08,1.51,1.91,3.32,3.55,5,5.31,2.46,2.62,4.93,5.25,7.51,7.76q3.58,3.51,6.8,7.35c2.33,2.8,4.43,5.78,6.55,8.75a31.13,31.13,0,0,0,5.72,6.19c4.17,3.35,8.64,6.26,13.08,9.22a40.27,40.27,0,0,0,5,2.27,1.22,1.22,0,0,0,1.62-.4,3,3,0,0,1,.63-.65c1.76-1.26,2-3.13,2.14-5.08a1.06,1.06,0,0,0-.37-.8,8.24,8.24,0,0,0-.79-.67A78.09,78.09,0,0,0,98,204.29a55,55,0,0,1-10.77-8.56,132,132,0,0,1-10.25-11.41c-2.14-2.68-4.55-5.13-6.88-7.63-4-4.31-8-8.69-12-13a26.26,26.26,0,0,1-5-8c-.42-1-.61-1.07-1.36-.29A2.23,2.23,0,0,0,51.15,156.28Zm39.58-11a4.83,4.83,0,0,0-1.39.93.5.5,0,0,0,.09.86c.25.17.52.31.78.46,1.06.58,2.13,1.15,3.19,1.75a3.45,3.45,0,0,1,1.71,3.51,5.79,5.79,0,0,1-.4,1.64,2.32,2.32,0,0,0-.21.61c-.07.45.34.57.62.71s.42-.15.52-.38a5.56,5.56,0,0,0,.25-1.4c.29-2.31.24-4.68,1-6.92.26-.79-.06-1.58.22-2.36a.51.51,0,0,0-.46-.66,2.85,2.85,0,0,0-.77-.05A13.89,13.89,0,0,0,90.73,145.31Zm16.43,63.86a1.24,1.24,0,0,0,0-.47,21.89,21.89,0,0,0-4.3-6.26.7.7,0,0,0-.8-.27,11.19,11.19,0,0,0-2.44,1.46.29.29,0,0,0,0,.45,4,4,0,0,0,.62.46c2.17,1.34,4.23,2.83,6.25,4.37C106.64,209.06,106.82,209.29,107.16,209.17ZM96.21,159c.06,0,.14-.09.17-.16a1.36,1.36,0,0,0-.35-1.65,30.78,30.78,0,0,0-4.36-2.57c-.74-.3-1.34-.23-1.51.19s.19.91.91,1.25a11.72,11.72,0,0,1,1.48.8l3.06,2A.73.73,0,0,0,96.21,159Zm-2.14,4.34.36-.34c.28-.28.27-.49-.12-.68-1.14-.52-2.26-1.07-3.39-1.59a2.89,2.89,0,0,0-1.5-.32.62.62,0,0,0-.58.42.6.6,0,0,0,.2.7,4.63,4.63,0,0,0,.76.48c1.19.63,2.57.73,3.75,1.36A.51.51,0,0,0,94.07,163.32ZM89.72,179c.22.52.46.66.7.72a15.1,15.1,0,0,1,3.4,1.54c.75.44.87.27,1.38-.36a.38.38,0,0,0-.11-.64,17,17,0,0,0-3.92-1.61,1.66,1.66,0,0,0-1.14.08A1.14,1.14,0,0,0,89.72,179Zm4.16-9.42a.44.44,0,0,0-.08-.11,10.66,10.66,0,0,0-4.64-2.75,2.15,2.15,0,0,0-.51-.05c-.21,0-.46,0-.57.24a.49.49,0,0,0,.17.58A3.67,3.67,0,0,0,90,168.55a7.34,7.34,0,0,1,2.83,1.24,2.61,2.61,0,0,0,.69.34.38.38,0,0,0,.43-.22C94,169.77,93.94,169.66,93.88,169.55Zm1.33-6.32A12,12,0,0,1,90.94,166a.61.61,0,0,0-.22.13c-.13.14-.21.32,0,.43.68.37,1.35.82,2.16.28a9.84,9.84,0,0,1,.91-.48A2.71,2.71,0,0,0,95.21,163.23Zm-1.33,11.38a25.48,25.48,0,0,0-4.2-1.55,2.61,2.61,0,0,0-1.27-.14c-.17,0-.34.11-.35.31a.46.46,0,0,0,.13.33,3.4,3.4,0,0,0,1.71.86,11.88,11.88,0,0,1,2.32.76C93,175.54,93.05,175.52,93.88,174.61Zm2.91,12.81a.39.39,0,0,0,0-.51,5.38,5.38,0,0,0-4.16-2.33,1.08,1.08,0,0,0-.5.09.57.57,0,0,0-.39.48c0,.25.19.35.41.44a42.38,42.38,0,0,1,4.3,1.79A.94.94,0,0,0,96.79,187.42Zm-5.6-9.62a1.61,1.61,0,0,0,2.15-.18,5.63,5.63,0,0,1,.84-.61,1.47,1.47,0,0,0,.7-1.17c0-.3.16-.69-.09-.86s-.48.21-.7.38L92,176.92C91.74,177.15,91.35,177.29,91.19,177.8Zm-.78-5.31c.84.35,1.36.71,1.91.57a4.25,4.25,0,0,0,1.8-1,1.14,1.14,0,0,0,.19-1.54A20.62,20.62,0,0,1,90.41,172.49Zm2.85,11.41a1.1,1.1,0,0,0,1.62,0A6.17,6.17,0,0,0,96,182.68a2.29,2.29,0,0,0,.42-1.2c0-.2,0-.45-.22-.54s-.33.09-.44.21C95,182.05,94.12,183,93.26,183.9Zm1.43,6.43c-.24.18-.48.29-.46.53s.27.31.48.35c.72.15,1.44.28,2.17.41.34.06.68.13,1,.16s.47-.19.34-.48a1.1,1.1,0,0,0-.5-.58,5.51,5.51,0,0,0-2.39-.55A2.37,2.37,0,0,0,94.69,190.33ZM92,160.27c1.32,1,2.2,1,3.18.09.23-.22.45-.48.26-.8a.66.66,0,0,0-.78-.31A11.58,11.58,0,0,0,92,160.27Zm7.69,35.93a.53.53,0,0,0,.19-.11.64.64,0,0,0,.25-.8.53.53,0,0,0-.74-.31c-.74.24-1.49.45-2.22.71-.26.09-.64.2-.59.59s.5.41.83.44A4.6,4.6,0,0,0,99.65,196.2ZM88.8,162.4c-.2-.56-.74-.91-.66-1.54s.68-.89,1.09-1.35c-.8-.33-1.44-.37-1.91.19a1.88,1.88,0,0,0,0,2.07C87.55,162.43,88.08,162.57,88.8,162.4Zm-.58,9.68c-.8-.42-1.07-.41-1.57.08a1.34,1.34,0,0,0-.36,1.64,1.63,1.63,0,0,0,1.6.89c.13,0,.23-.18.16-.29s-.3-.31-.43-.49c-.48-.69-.43-1,.25-1.5C88,172.31,88.19,172.28,88.22,172.08Zm1.33,5.8c-1.18.07-1.61.46-1.55,1.33s.63,1.59,1.52,1.54a.73.73,0,0,0,.45-.21c.15-.18-.06-.28-.18-.39C88.85,179.22,88.84,179.17,89.55,177.88Zm.34-21.59c-.7-1.69-.7-1.69,1-2.78a.93.93,0,0,0-1.18-.16,1.84,1.84,0,0,0-1.1,1C88.27,155.19,88.7,155.88,89.89,156.29ZM83.2,141.71a12.75,12.75,0,0,0,4.89,4.4.28.28,0,0,0,0-.35C86.49,144.33,84.69,143.21,83.2,141.71ZM92,183.81c-1.11-.2-1.78.17-1.91,1a1.54,1.54,0,0,0,1.42,1.82c.12,0,.3,0,.35-.1s-.05-.28-.19-.39c-.9-.73-.92-1-.17-1.86A5.8,5.8,0,0,1,92,183.81Zm.38-12.88c.22-.16.28-.34.07-.52a4.72,4.72,0,0,0-1.31-.79c-.3-.11-.5,0-.51.33,0,.49-.27,1.13.13,1.45s.83-.26,1.28-.34A2,2,0,0,0,92.42,170.93Zm-1.21-5.84A3.1,3.1,0,0,0,93,164c-1.55-.9-1.64-.86-1.9.83C91.13,164.86,91.16,164.9,91.21,165.09Zm2,2.18c-.16.13-.53.2-.35.52a1.29,1.29,0,0,0,1,.73c.22,0,.39-1,.19-1.27S93.5,167.2,93.22,167.27Zm.42,10.83c-.1.14-.52.19-.29.51a.71.71,0,0,0,.79.28c.35-.16.16-.52.07-.77S93.87,178,93.64,178.1Zm.45-4.83c-.12-.3-.34-.21-.53-.13s-.44.2-.27.46a.54.54,0,0,0,.67.22C94.19,173.7,94.12,173.46,94.09,173.27Zm-.26-14.75c-.16-.27-.61-.41-.76-.23s-.27.42-.12.59.55.08.81,0A.2.2,0,0,0,93.83,158.52Zm0,23.89c.13-.13.2-.28,0-.44a.36.36,0,0,0-.46-.11c-.2.13-.1.31,0,.45S93.6,182.55,93.79,182.41Zm-1.92-6.22c.09-.09.23-.2.1-.31s-.33-.23-.44-.19-.17.28-.09.44S91.72,176.26,91.87,176.19Zm3.53,8.4,0-.12s-.09,0-.11,0,0,.07,0,.11Z"/><path class="cls-14" d="M95.5,161.8c-.3-.2-.77.36-.93-.1s.46-.47.72-.7a.84.84,0,0,1,.23-.12C95.58,161.19,95.7,161.5,95.5,161.8Z"/><path class="cls-15" d="M51.15,156.28c.89,2.5,2.59,4.49,4.17,6.55a59.13,59.13,0,0,0,6.23,6.81c3.09,2.94,5.82,6.19,8.63,9.38,4,4.52,7.72,9.26,11.62,13.86a50.66,50.66,0,0,0,7.87,7.55,128,128,0,0,0,11.08,8c1.26.77,2.6,1.39,3.89,2.1.4.22.87.36,1.12.84a1.64,1.64,0,0,1-1.27-.31,45.51,45.51,0,0,1-5.78-3.25,136.46,136.46,0,0,1-11-8.15,53.38,53.38,0,0,1-7.52-7.73c-5.07-6.22-10.21-12.38-15.59-18.33-2-2.15-4.06-4.16-6.1-6.23a62.78,62.78,0,0,1-6.32-7.76A11.84,11.84,0,0,1,51,157.16c-.15-.35-.38-.27-.63-.13A1.32,1.32,0,0,1,51.15,156.28Z"/><path class="cls-16" d="M91.19,177.8c.16-.51.55-.65.84-.88l2.06-1.56c.22-.17.37-.6.7-.38s.11.56.09.86a1.47,1.47,0,0,1-.7,1.17,5.63,5.63,0,0,0-.84.61A1.61,1.61,0,0,1,91.19,177.8Z"/><path class="cls-16" d="M90.41,172.49a20.62,20.62,0,0,0,3.9-2,1.14,1.14,0,0,1-.19,1.54,4.25,4.25,0,0,1-1.8,1C91.77,173.2,91.25,172.84,90.41,172.49Z"/><path class="cls-17" d="M93.26,183.9c.86-.94,1.69-1.85,2.53-2.75.11-.12.25-.27.44-.21s.22.34.22.54a2.29,2.29,0,0,1-.42,1.2,6.17,6.17,0,0,1-1.15,1.19A1.1,1.1,0,0,1,93.26,183.9Z"/><path class="cls-18" d="M94.69,190.33a2.37,2.37,0,0,1,.66-.16,5.51,5.51,0,0,1,2.39.55,1.1,1.1,0,0,1,.5.58c.13.29,0,.51-.34.48s-.68-.1-1-.16c-.73-.13-1.45-.26-2.17-.41-.21,0-.47-.09-.48-.35S94.45,190.51,94.69,190.33Z"/><path class="cls-19" d="M92,160.27a11.58,11.58,0,0,1,2.66-1,.66.66,0,0,1,.78.31c.19.32,0,.58-.26.8C94.16,161.28,93.28,161.28,92,160.27Z"/><path class="cls-20" d="M99.65,196.2a4.6,4.6,0,0,1-2.28.52c-.33,0-.76,0-.83-.44s.33-.5.59-.59c.73-.26,1.48-.47,2.22-.71a.53.53,0,0,1,.74.31.64.64,0,0,1-.25.8A.53.53,0,0,1,99.65,196.2Z"/><path class="cls-21" d="M94,193a2,2,0,0,1-1.94-2.35,1.73,1.73,0,0,1,1.21-1.53,1.5,1.5,0,0,1,1.86.47l-1.44.82.52-.71c-1.14,0-1.71.61-1.43,1.6a1.68,1.68,0,0,0,1.37,1.21Z"/><path class="cls-19" d="M88.8,162.4c-.72.17-1.25,0-1.53-.63a1.88,1.88,0,0,1,0-2.07c.47-.56,1.11-.52,1.91-.19-.41.46-1,.72-1.09,1.35S88.6,161.84,88.8,162.4Z"/><path class="cls-22" d="M87.36,166.7c-.16.59.31.93.54,1.37.06.11.13.27.09.35a.44.44,0,0,1-.45.19,1.32,1.32,0,0,1-1.26-.92c-.07-.25-.11-.5-.17-.75.69-1.37,1-1.53,2-1C87.88,166.18,87.4,166.24,87.36,166.7Z"/><path class="cls-20" d="M88.22,172.08c0,.2-.22.23-.35.33-.68.53-.73.81-.25,1.5.13.18.32.31.43.49s0,.26-.16.29a1.63,1.63,0,0,1-1.6-.89,1.34,1.34,0,0,1,.36-1.64C87.15,171.67,87.42,171.66,88.22,172.08Z"/><path class="cls-23" d="M89.55,177.88c-.71,1.29-.7,1.34.24,2.27.12.11.33.21.18.39a.73.73,0,0,1-.45.21c-.89.05-1.46-.54-1.52-1.54S88.37,178,89.55,177.88Z"/><path class="cls-24" d="M89.89,156.29c-1.19-.41-1.62-1.1-1.32-1.92a1.84,1.84,0,0,1,1.1-1,.93.93,0,0,1,1.18.16C89.19,154.6,89.19,154.6,89.89,156.29Z"/><path class="cls-25" d="M83.2,141.71c1.49,1.5,3.29,2.62,4.84,4a.28.28,0,0,1,0,.35A12.75,12.75,0,0,1,83.2,141.71Z"/><path class="cls-26" d="M92,183.81a5.8,5.8,0,0,0-.5.46c-.75.84-.73,1.13.17,1.86.14.11.32.2.19.39s-.23.11-.35.1a1.54,1.54,0,0,1-1.42-1.82C90.26,184,90.93,183.61,92,183.81Z"/><path class="cls-27" d="M94.19,192.47a1.68,1.68,0,0,1-1.37-1.21c-.28-1,.29-1.65,1.43-1.6l-.52.71c-.29.92-.28.95.73,1.44.13.06.36.05.33.28s-.21.24-.37.3Z"/><path class="cls-28" d="M92.42,170.93a2,2,0,0,1-.34.13c-.45.08-.9.64-1.28.34s-.15-1-.13-1.45c0-.33.21-.44.51-.33a4.72,4.72,0,0,1,1.31.79C92.7,170.59,92.64,170.77,92.42,170.93Z"/><path class="cls-29" d="M87.36,166.7c0-.46.52-.52.79-.79-1.06-.5-1.35-.34-2,1l-.48-.15c.43-1.78,1.73-2.27,3.25-1.24A3.33,3.33,0,0,1,87.36,166.7Z"/><path class="cls-30" d="M91.21,165.09c0-.19-.08-.23-.07-.27.26-1.69.35-1.73,1.9-.83A3.1,3.1,0,0,1,91.21,165.09Z"/><path class="cls-31" d="M95.82,197.53a.36.36,0,0,0-.16-.14l-.39-.67-.12-.39v-.44h0l.11-.37h0a4,4,0,0,1,.72-.46c.39-.15.38.12.32.39-.82,1-.7,1.33.59,1.79l.4.38-.37.2h-.42l-.32-.09h0Z"/><path class="cls-32" d="M96.31,195.47c.06-.27.07-.54-.32-.39a4,4,0,0,0-.72.46l-.56,0c.65-1.3,1.37-1.48,2.63-.66Z"/><path class="cls-33" d="M93.22,167.27c.28-.07.56-.39.8,0s0,1.29-.19,1.27a1.29,1.29,0,0,1-1-.73C92.69,167.47,93.06,167.4,93.22,167.27Z"/><path class="cls-34" d="M93.92,154a4.17,4.17,0,0,1-1.08-1.25c0-.14-.17-.33,0-.43s.32,0,.43.16c.27.27.37.7.8.8A.79.79,0,0,1,93.92,154Z"/><path class="cls-31" d="M93.64,178.1c.23-.1.46-.26.57,0s.28.61-.07.77a.71.71,0,0,1-.79-.28C93.12,178.29,93.54,178.24,93.64,178.1Z"/><path class="cls-35" d="M94.09,173.27c0,.19.1.43-.13.55a.54.54,0,0,1-.67-.22c-.17-.26.09-.37.27-.46S94,173,94.09,173.27Z"/><path class="cls-36" d="M93.83,158.52a.2.2,0,0,1-.07.31c-.26.13-.56.34-.81,0s0-.42.12-.59S93.67,158.25,93.83,158.52Z"/><path class="cls-37" d="M93.79,182.41c-.19.14-.33.06-.43-.1s-.19-.32,0-.45a.36.36,0,0,1,.46.11C94,182.13,93.92,182.28,93.79,182.41Z"/><path class="cls-38" d="M91.87,176.19c-.15.07-.32.16-.43-.06s-.08-.39.09-.44.32.08.44.19S92,176.1,91.87,176.19Z"/><path class="cls-32" d="M97.3,197.64l-.4-.38C97.18,197.23,97.43,197.23,97.3,197.64Z"/><path class="cls-32" d="M95.27,196.72l.39.67A.58.58,0,0,1,95.27,196.72Z"/><path class="cls-32" d="M95.25,197.69a.7.7,0,0,1-.45-.77Z"/><path class="cls-32" d="M97.37,198.2a.71.71,0,0,1-.78.15A1,1,0,0,1,97.37,198.2Z"/><path class="cls-32" d="M98,197.6a.47.47,0,0,1-.36.46A.86.86,0,0,1,98,197.6Z"/><path class="cls-32" d="M94.73,196.73a.56.56,0,0,1-.09-.62A.89.89,0,0,1,94.73,196.73Z"/><path class="cls-32" d="M95.86,198.14a.47.47,0,0,1-.46-.29A.71.71,0,0,1,95.86,198.14Z"/><path class="cls-32" d="M96.54,197.83h0Z"/><path class="cls-32" d="M95.27,195.53l-.11.37Z"/><path class="cls-32" d="M96.19,197.73l.32.09Z"/><path class="cls-32" d="M95.16,195.89v0Z"/><path class="cls-32" d="M95.82,197.53l.35.19Z"/><path class="cls-32" d="M96.57,198.35a.29.29,0,0,1-.36-.07Z"/><path class="cls-32" d="M94.63,195.88a.2.2,0,0,1,.07-.28Z"/><path class="cls-32" d="M96.22,198.28a.28.28,0,0,1-.34-.12Z"/><path class="cls-39" d="M95.4,184.59l-.12,0s0-.1,0-.11.07,0,.11,0Z"/><path class="cls-40" d="M78.64,158.46a11.28,11.28,0,0,1-3.3,1,14.14,14.14,0,0,1-6.55-.6,3.15,3.15,0,0,1-.71-.3,1.07,1.07,0,0,1-.6-1.18,20,20,0,0,1,2.68-7.69,8.74,8.74,0,0,1,1.66-1.83,3.11,3.11,0,0,1,5,1.07,6.25,6.25,0,0,1,.59,2.25c.07.88.08.9.92.95a3,3,0,0,1,1.79.66,2.48,2.48,0,0,1,.92,2.66A4.78,4.78,0,0,1,78.64,158.46Zm-.4-.61A4,4,0,0,0,80.11,156a2.06,2.06,0,0,0-2-3.13c-.39,0-.78.07-1.16.09s-.65-.15-.48-.62a3.84,3.84,0,0,0-.57-3.46,2.27,2.27,0,0,0-3.18-.77,5.65,5.65,0,0,0-.92.71,9.28,9.28,0,0,0-2,3,22.46,22.46,0,0,0-1.38,4.47c-.33,1.47-.47,1.48,1.17,2.19a4,4,0,0,0,.75.21,14.67,14.67,0,0,0,5.68,0A7.62,7.62,0,0,0,78.24,157.85Z"/><path class="cls-41" d="M73.22,177.77a2,2,0,0,1,.84-2.77A1.92,1.92,0,0,1,76,178.33,2,2,0,0,1,73.22,177.77Zm2.48-.09a1.15,1.15,0,0,0,.39-1.68,1.31,1.31,0,0,0-1.82-.44,1.42,1.42,0,0,0-.45,1.94A1.38,1.38,0,0,0,75.7,177.68Z"/><path class="cls-42" d="M55.92,155.49c-.11-.89.46-1.42.95-2a6.74,6.74,0,0,1,4.24-2.41c-.9.7-2,1.09-2.87,1.83A21.7,21.7,0,0,0,55.92,155.49Z"/><path class="cls-42" d="M57.18,157.63l-.12-.07a5.43,5.43,0,0,1,2.51-4.28c.14-.09.33-.16.46,0s-.06.31-.17.39a6.55,6.55,0,0,0-2.21,3.12C57.54,157.08,57.55,157.48,57.18,157.63Z"/><path class="cls-43" d="M58.16,158.72A5.68,5.68,0,0,1,59.81,155a.31.31,0,0,1,.45,0,.24.24,0,0,1,0,.23,10,10,0,0,0-1.71,3.32S58.48,158.51,58.16,158.72Z"/><path class="cls-44" d="M59.73,160.65c-.58-1.49,0-2.63.58-3.77a.27.27,0,0,1,.22-.08c.16,0,.22.14.15.28A30.86,30.86,0,0,0,59.73,160.65Z"/><path class="cls-45" d="M87.13,150.69a2.58,2.58,0,0,1,.56-1.46.41.41,0,0,1,.35-.06,2.75,2.75,0,0,1,1,.61.24.24,0,0,1,0,.34.32.32,0,0,1-.22.08,1,1,0,0,1-.36-.13c-.36-.23-.54-.08-.67.27a1.64,1.64,0,0,1-.32.54C87.37,151,87.21,150.93,87.13,150.69Z"/><path class="cls-46" d="M60.82,161.48a3.17,3.17,0,0,1,.26-2.2.31.31,0,0,1,.2-.13c.18,0,.22.13.2.26-.11.71-.23,1.41-.35,2.12Z"/><path class="cls-47" d="M62,163.8a3.15,3.15,0,0,1-.13-2.6c0-.16.13-.35.33-.33s.18.26.16.41C62.23,162,62.12,162.78,62,163.8Z"/><path class="cls-48" d="M87.52,190.76c0-.16-.06-.31,0-.39s.33-.11.45,0c.29.3.67.56.64,1.06,0,0-.07.05-.11.05C88,191.51,87.86,191,87.52,190.76Z"/><path class="cls-49" d="M86.82,153.72c-.2.11-.33.05-.38-.06a1.78,1.78,0,0,1,.29-1.42.19.19,0,0,1,.31.07A2.47,2.47,0,0,1,86.82,153.72Z"/><path class="cls-50" d="M63.22,164.67a2.3,2.3,0,0,1-.12-1.88c0-.11.1-.25.27-.18s.15.12.14.18A4.3,4.3,0,0,1,63.22,164.67Z"/><path class="cls-51" d="M91.55,151.64c-.35.14-1.3-.45-1.3-.8a.18.18,0,0,1,0-.12.23.23,0,0,1,.09-.08,1.7,1.7,0,0,1,1.25.79C91.66,151.49,91.58,151.57,91.55,151.64Z"/><path class="cls-52" d="M85.3,148a.52.52,0,0,1,0-.27.24.24,0,0,1,.19-.11c.45,0,1.16.56,1.14.85,0,.06-.1.18-.15.17A1.82,1.82,0,0,1,85.3,148Z"/><path class="cls-53" d="M82.2,143.88a3.63,3.63,0,0,1,.19.44.23.23,0,0,1-.07.21.26.26,0,0,1-.23,0,1.17,1.17,0,0,1-.36-.34c-.16-.27-.58-.62-.26-.85S82,143.65,82.2,143.88Z"/><path class="cls-54" d="M85.25,176.51c-.07-.31-.27-.67-.1-1a.24.24,0,0,1,.2-.09c.43.2.33.65.45,1s0,.47-.19.53S85.33,176.74,85.25,176.51Z"/><path class="cls-55" d="M87.17,182c-.1-.33-.41-.66-.14-1,.15-.21.48.17.7.86a.71.71,0,0,1,.06.25c0,.12,0,.26-.16.3a.26.26,0,0,1-.31-.14Z"/><path class="cls-56" d="M91.74,192.76a4.62,4.62,0,0,1-.19-.47c-.06-.2-.14-.45.1-.55s.35.15.44.32a2.11,2.11,0,0,1,.19.47c.07.24.2.54-.13.63S91.82,193,91.74,192.76Z"/><path class="cls-57" d="M93.65,197.39a2,2,0,0,1,0,1.34.2.2,0,0,1-.32,0,1.64,1.64,0,0,1-.06-1.37C93.33,197.25,93.48,197.27,93.65,197.39Z"/><path class="cls-58" d="M91,195.4c.22.48.42.82.3,1.23a.23.23,0,0,1-.2.09c-.43-.15-.4-.6-.56-.93s-.11-.45.15-.53A.29.29,0,0,1,91,195.4Z"/><path class="cls-59" d="M84.47,187.28a1.6,1.6,0,0,1-1.22-.76.24.24,0,0,1,.09-.21c.29-.18,1.24.41,1.26.78C84.6,187.15,84.51,187.22,84.47,187.28Z"/><path class="cls-60" d="M82,185.79a1.63,1.63,0,0,1-1.34-.51c-.06-.11,0-.28.12-.3a1.77,1.77,0,0,1,1.3.45C82.19,185.51,82.16,185.67,82,185.79Z"/><path class="cls-61" d="M85,174c-.14,0-.26,0-.31-.15-.22-.51-.21-1.2,0-1.33a.17.17,0,0,1,.12,0c.23.08.42.81.32,1.31C85.12,173.88,85,173.94,85,174Z"/><path class="cls-53" d="M86.15,179.22c-.07-.33-.48-.75-.09-.93s.44.39.6.66a.5.5,0,0,1-.08.69.46.46,0,0,1-.21-.12A2.86,2.86,0,0,1,86.15,179.22Z"/><path class="cls-61" d="M84.89,162.35a.63.63,0,0,1-.22-.09.33.33,0,0,1-.07-.23c.09-.43-.08-.95.45-1.22a.11.11,0,0,1,.12,0,1.83,1.83,0,0,1-.17,1.45A.3.3,0,0,1,84.89,162.35Z"/><path class="cls-52" d="M79.83,141.55a2.37,2.37,0,0,1-.14-.29c0-.11-.06-.25.09-.3a.33.33,0,0,1,.24,0,1.85,1.85,0,0,1,.68.88c0,.12.06.27-.09.3a.4.4,0,0,1-.34-.07A5.85,5.85,0,0,1,79.83,141.55Z"/><path class="cls-56" d="M84.65,171.11a.23.23,0,0,1-.31-.13,7.07,7.07,0,0,1-.16-1,.35.35,0,0,1,.24-.41c.18,0,.29.17.31.34a8.72,8.72,0,0,1,.06,1C84.79,171,84.7,171.05,84.65,171.11Z"/><path class="cls-49" d="M84.27,146.4c0,.09.07.25,0,.32a.31.31,0,0,1-.45,0c-.22-.2-.43-.4-.64-.62a.29.29,0,0,1,0-.44c.11-.12.23-.06.34,0A2.37,2.37,0,0,1,84.27,146.4Z"/><path class="cls-62" d="M84.6,165.25l-.23,0a.15.15,0,0,1-.07-.1c-.14-.5,0-1.34.32-1.41a.17.17,0,0,1,.12,0c.22.14.19,1,0,1.44C84.68,165.2,84.63,165.22,84.6,165.25Z"/><path class="cls-63" d="M78.5,139.19c-.08-.24-.45-.59-.16-.76s.46.34.67.56a.49.49,0,0,1,.11.23c.06.17.12.36-.09.45s-.29-.09-.39-.23S78.56,139.29,78.5,139.19Z"/><path class="cls-64" d="M88.2,184.83a1.73,1.73,0,0,1-.18-1.09s.16-.09.21-.07c.43.18.33.64.49,1s.09.45-.16.51S88.27,185,88.2,184.83Z"/><path class="cls-50" d="M90.5,190c-.08-.27-.43-.65-.12-.8s.44.35.63.59a.82.82,0,0,1,.11.23c0,.17.09.37-.11.45s-.29-.1-.38-.25A2.53,2.53,0,0,1,90.5,190Z"/><path class="cls-43" d="M86.6,189.29a.24.24,0,0,1-.34,0c-.22-.2-.42-.41-.62-.63a.32.32,0,0,1,0-.45c.16-.17.31,0,.42.08a7.21,7.21,0,0,1,.58.66A.26.26,0,0,1,86.6,189.29Z"/><path class="cls-65" d="M85.4,159.46c-.16,0-.29-.07-.29-.21,0-.33.06-.67.11-1a.31.31,0,0,1,.32-.31c.23,0,.22.23.2.38a4.94,4.94,0,0,1-.14.87C85.58,159.3,85.46,159.38,85.4,159.46Z"/><path class="cls-66" d="M86.35,155.17a1.73,1.73,0,0,1-.39,1.4s-.18,0-.21-.1a1.37,1.37,0,0,1,.39-1.36S86.28,155.15,86.35,155.17Z"/><path class="cls-44" d="M84.5,168.16c-.14,0-.27,0-.28-.17-.06-.45-.22-.92.17-1.3,0,0,.2,0,.22,0a2,2,0,0,1,0,1.36S84.54,168.13,84.5,168.16Z"/><path class="cls-50" d="M89.26,187.28c0-.1-.11-.21-.15-.33s-.13-.35.07-.46.3.07.39.21a2.51,2.51,0,0,1,.24.46c.08.19.23.43,0,.57s-.33-.16-.45-.32A1.05,1.05,0,0,1,89.26,187.28Z"/><path class="cls-45" d="M93.05,194.75c.12.34.42.65.22,1.07,0,.1-.12.11-.22.05a1.54,1.54,0,0,1-.48-1.27c.05-.14.19-.15.31-.07A1,1,0,0,1,93.05,194.75Z"/><path class="cls-41" d="M89.27,192.8a1.06,1.06,0,0,1,.8,1.08s-.08.06-.11.05C89.45,193.72,89.35,193.27,89.27,192.8Z"/><path class="cls-56" d="M95.38,145.77c-.4.24-1.3.28-1.45.06a.24.24,0,0,1,0-.12c.06-.28.87-.49,1.4-.34a.27.27,0,0,1,.15.18C95.46,145.61,95.4,145.7,95.38,145.77Z"/><path class="cls-67" d="M92,146.7c-.13,0-.32.13-.52.18s-.27,0-.32-.14a.25.25,0,0,1,.14-.3,8.3,8.3,0,0,1,.78-.41c.16-.06.36-.07.44.12s-.1.29-.23.38Z"/><path class="cls-68" d="M78.24,157.85a7.62,7.62,0,0,1-2.23.79,14.67,14.67,0,0,1-5.68,0,4,4,0,0,1-.75-.21c-1.64-.71-1.5-.72-1.17-2.19a22.46,22.46,0,0,1,1.38-4.47,9.28,9.28,0,0,1,2-3,5.65,5.65,0,0,1,.92-.71,2.27,2.27,0,0,1,3.18.77,3.84,3.84,0,0,1,.57,3.46c-.17.47,0,.64.48.62s.77-.1,1.16-.09a2.06,2.06,0,0,1,2,3.13A4,4,0,0,1,78.24,157.85Z"/><path class="cls-69" d="M75.7,177.68a1.38,1.38,0,0,1-1.88-.18,1.42,1.42,0,0,1,.45-1.94,1.31,1.31,0,0,1,1.82.44A1.15,1.15,0,0,1,75.7,177.68ZM74.42,177a.71.71,0,1,0,1.18-.79.65.65,0,0,0-.9-.18A.67.67,0,0,0,74.42,177Z"/><path class="cls-70" d="M74.42,177a.67.67,0,0,1,.28-1,.65.65,0,0,1,.9.18.71.71,0,1,1-1.18.79Z"/><path class="cls-71" d="M130.28,138.6c.38.1,68.69-2.64,68.69-2.64l-5.72,25.73-34.77,3.65s-23.38-3.86-23.8-6.83S130.28,138.6,130.28,138.6Z"/><line class="cls-72" x1="130.73" y1="139.94" x2="131.12" y2="139.93"/><line class="cls-73" x1="131.91" y1="139.89" x2="197.68" y2="137.09"/><line class="cls-72" x1="198.07" y1="137.07" x2="198.47" y2="137.06"/><path class="cls-74" d="M168,143.24l.89,19.74s.47,8.2,6.85,9.65c-10.13,7.23-40.09,139.56-40.09,139.56l-18-3.51S123.75,145.28,130,138.4C138.4,139.54,157.93,145,168,143.24Z"/><path class="cls-72" d="M147.66,151.23s-1.25,4.64-7.8,6.18a63.2,63.2,0,0,1-13.26,1.47"/><path class="cls-72" d="M149.2,151.44a3.86,3.86,0,0,1-.14.36"/><path class="cls-75" d="M148.74,152.49a12.16,12.16,0,0,1-8.06,6.42,67.18,67.18,0,0,1-13.46,1.45"/><path class="cls-72" d="M126.83,160.36h-.39"/><path class="cls-72" d="M168.57,152.42A71.91,71.91,0,0,1,147.15,151c-11.38-2.56-18.9-4.85-18.9-4.85"/><polyline class="cls-76" points="131.34 158.83 132.62 151.04 143.83 153.25 143.5 156"/><path class="cls-74" d="M161.69,143.61l.79,19.75s.23,8.21-6,10.19c10.71,6.35,51.75,135.67,51.75,135.67l17.63-5s-19.93-162.3-26.78-168.62C190.84,137.43,171.83,144.51,161.69,143.61Z"/><path class="cls-72" d="M182.6,149.86s1.64,4.51,8.29,5.49a63.14,63.14,0,0,0,13.34.34"/><path class="cls-72" d="M181.26,150.31s0,.14.1.38"/><path class="cls-77" d="M181.64,151.4c.71,1.57,2.61,4.37,7.32,5.06a122.65,122.65,0,0,0,14.85.95"/><path class="cls-72" d="M204.19,157.42h.39"/><path class="cls-72" d="M161.86,152.82a71.92,71.92,0,0,0,21.22-3.24c11.13-3.51,18.43-6.43,18.43-6.43"/><path class="cls-72" d="M161.79,151.58h.39"/><path class="cls-78" d="M163,151.58a73.7,73.7,0,0,0,20-3.24c9.06-2.86,15.58-5.32,17.69-6.14"/><path class="cls-72" d="M201.07,142.06l.37-.15"/><path class="cls-72" d="M161.79,151.58a3.34,3.34,0,0,1-.39.06"/><path class="cls-79" d="M160.64,151.7c-1.72.07-5.59-.13-13.23-2-9.24-2.22-15.92-4.22-18.08-4.88"/><path class="cls-72" d="M129,144.74l-.37-.11"/><path class="cls-72" d="M199.63,136.54l-.37.13"/><path class="cls-80" d="M198.53,136.92c-5.08,1.74-26.41,8.78-36.62,8.17s-27.71-4.42-31.55-5.28"/><path class="cls-72" d="M130,139.72l-.38-.08"/><path class="cls-81" d="M164.15,149.21c-1,0-1.29-.11-1.32-.16a9.23,9.23,0,0,1,2.74-.51c.53,0,1-.07,1.47-.07a3,3,0,0,1,1.32.15,8.78,8.78,0,0,1-2.74.52C165.08,149.18,164.58,149.21,164.15,149.21Z"/><path class="cls-82" d="M167,148.58a6.91,6.91,0,0,1,1,0,11.3,11.3,0,0,1-2.39.4c-.52,0-1,.07-1.47.07a6.53,6.53,0,0,1-1-.06,13.18,13.18,0,0,1,2.39-.4c.52,0,1-.06,1.47-.06m0-.22c-.44,0-.94,0-1.48.07-1.59.13-2.85.43-2.83.65s.58.23,1.41.23c.44,0,1,0,1.49-.06,1.58-.14,2.85-.43,2.83-.66s-.58-.23-1.42-.23Z"/><path class="cls-81" d="M165.61,150.51a1.89,1.89,0,0,1-.47-.06,1.81,1.81,0,0,1-1.07-.83,1.77,1.77,0,0,1,2-2.59,1.77,1.77,0,0,1,1.08.83,1.74,1.74,0,0,1,.17,1.34A1.77,1.77,0,0,1,165.61,150.51Z"/><path class="cls-82" d="M165.6,147.17h0a1.4,1.4,0,0,1,.41.05,1.57,1.57,0,0,1-.4,3.09,1.84,1.84,0,0,1-.41-.05,1.57,1.57,0,0,1,.4-3.09m0-.4a2,2,0,0,0-.51,3.87,2.31,2.31,0,0,0,.52.06,2,2,0,0,0,.51-3.86,1.86,1.86,0,0,0-.52-.07Z"/><path class="cls-83" d="M168.82,152.66l0,.39"/><path class="cls-84" d="M168.91,153.83c.11,1.63.28,4.62.24,6.65-.05,3.12.25,10.46-6,10.07"/><path class="cls-83" d="M162.79,170.52l-.4-.06"/><path class="cls-83" d="M170.16,152.21s0,.14,0,.39"/><path class="cls-85" d="M170.19,153.39c.06,2.44.19,8,.15,10.26-.06,3.11-1.58,8.84-7.94,8.32"/><path class="cls-83" d="M162,171.93l-.4-.05"/><path class="cls-83" d="M163.48,152.85s0,.13,0,.38"/><path class="cls-86" d="M163.52,154c.1,2.66.3,9.06.2,11.49-.1,2.58-1.4,6.79-5.26,8.81"/><path class="cls-83" d="M158.09,174.53l-.36.16"/><line class="cls-87" x1="136.18" y1="309.94" x2="135.79" y2="309.86"/><line class="cls-88" x1="135.01" y1="309.72" x2="119.85" y2="306.81"/><path class="cls-87" d="M119.46,306.73l-.39-.07,0-.39"/><path class="cls-89" d="M119.13,305.49c.58-12.66,5.85-124.65,11.15-157.53"/><path class="cls-87" d="M130.34,147.57c0-.13,0-.26.07-.39"/><line class="cls-87" x1="207.78" y1="307.09" x2="208.16" y2="306.99"/><line class="cls-88" x1="208.93" y1="306.79" x2="223.83" y2="302.76"/><path class="cls-87" d="M224.22,302.66l.38-.1-.06-.39"/><path class="cls-90" d="M224.44,301.39c-1.74-12.62-17.2-124.43-24.95-156.84"/><path class="cls-87" d="M199.4,144.16c0-.13-.07-.25-.1-.38"/><polygon class="cls-91" points="154.39 142.73 152.94 153.71 150.07 153.28 151.78 142.42 154.39 142.73"/><polygon class="cls-91" points="175.17 141.95 177.54 152.77 180.37 152.11 177.75 141.43 175.17 141.95"/><path class="cls-13" d="M40.06,238.93a4.54,4.54,0,0,1,.82-2.29,3,3,0,0,1,1.73-1.29,1.36,1.36,0,0,0,1-.75c.25-.46.56-.88.85-1.32a1.36,1.36,0,0,0,.26-.95,2.16,2.16,0,0,1,1.12-2.05c.86-.54.92-.72.67-1.74a1,1,0,0,1,0-.76,3.12,3.12,0,0,1,1.37-1.69c.89-.39,1-1.22,1.32-2a1,1,0,0,0-.38-1c-.29-.28-.6-.49-.55-1a2.3,2.3,0,0,1,.55-1.3,4,4,0,0,1,1.27-.88,1.71,1.71,0,0,0,1-2.1,3.37,3.37,0,0,1,.21-2.53c.37-.57.55-.59,1,0,.13.15.19.44.45.33s.22-.27.25-.42a1.28,1.28,0,0,0-.4-1.52,1.69,1.69,0,0,1-.66-2c.12-.38.27-.76.74-.81s.54-.36.49-.73c-.09-.58,0-1.17-.52-1.68a1,1,0,0,1,0-1.61,2.25,2.25,0,0,0,.56-1.39c.13-.86.28-1.71.41-2.57a4.35,4.35,0,0,0-.26-2.54,10.61,10.61,0,0,1-.61-3.45c-.11-1.25-.08-2.51-.09-3.77a3.39,3.39,0,0,1,1-2.35,14,14,0,0,0,1.19-1.54,5.84,5.84,0,0,1,4.28-2.84,3,3,0,0,0,.88-.24,2,2,0,0,1,2.48.76,26.79,26.79,0,0,1,4.29,6.49c1.69,3.71,3.53,7.34,5.08,11.12a34.9,34.9,0,0,1,2.54,10.58A113.8,113.8,0,0,0,78.3,237.3c.92,3.26,1.49,6.61,2.39,9.86a69.4,69.4,0,0,1,2.08,14.39,20.72,20.72,0,0,1-.12,2.08,1.76,1.76,0,0,1-1.12,1.62,4.87,4.87,0,0,1-1.22.41,15,15,0,0,0-3.83,1.22,4.6,4.6,0,0,1-3.38.57.89.89,0,0,0-.51,0,14.62,14.62,0,0,1-6.92.52,68.72,68.72,0,0,0-9-.67,38.71,38.71,0,0,0-10.25,1.59A24,24,0,0,0,43,270.45c-.16.08-.29.21-.44.27-.94.38-1.32.22-1.79-.67a6.41,6.41,0,0,1-.63-2.77A29.25,29.25,0,0,0,37.56,257a.77.77,0,0,0-.89-.53,13.35,13.35,0,0,1-5.91-1.35,5.41,5.41,0,0,1-1.12-.64,1.4,1.4,0,0,1-.55-1.83,4.21,4.21,0,0,1,1-1.63,46.92,46.92,0,0,0,5.07-6.42,1.06,1.06,0,0,1,.16-.21,2.51,2.51,0,0,0,1.15-2.48c-.08-.45.33-.88.65-1.24a1.26,1.26,0,0,1,1.22-.55c.37,0,.79-.26,1.19-.41a.78.78,0,0,0,.26,0c.34-.07.87.3,1-.25S40.21,239.25,40.06,238.93ZM57.9,207.1l.23.28v0a.71.71,0,0,0,.25.49.23.23,0,0,1,0,.21V209a.18.18,0,0,1,0,.2,1,1,0,0,0-.23.58.2.2,0,0,1-.11.2l-.2.21,0,0-.49-.26h0l.28-.26h0l.23-.37.1-.4a.58.58,0,0,0,0-.78.25.25,0,0,1-.06-.2l-.21-.34v0l-.24-.24,0,0-.33-.21h-.42c-.31.28-.1.41.16.53.87,1,.79,1.42-.4,1.84l-1.19,0-.61-.2c-.69-.18-.73-.15-.69.54,0,.34,0,.68,0,1a1.57,1.57,0,0,0,1.81,1.69,1.52,1.52,0,0,1,1.32.28l-.37.35-.25,0c-.16,0-.35-.07-.46.07s0,.29.14.42c.62.93.62,1-.1,1.6H54.38c-.23-.07-.47-.26-.65.1-.66,1.32-.66,1.31.34,2.55a4.4,4.4,0,0,1,.31.41.9.9,0,0,0,1,.54,1.33,1.33,0,0,1,1.09.31,2.3,2.3,0,0,1,.35,3.06,2,2,0,0,1-2.78.35c-.31-.21-.44-.68-1-.62a12.45,12.45,0,0,1-.36,1.23,1.23,1.23,0,0,0,.23,1.32,1,1,0,0,0,1.09.44,1.94,1.94,0,0,1,2,1.19,2.56,2.56,0,0,1-.71,2.61,1.55,1.55,0,0,1-1.92.22,10.29,10.29,0,0,1-.94-.69.54.54,0,0,0-.81.09,1.87,1.87,0,0,0-.35,1.57A1.69,1.69,0,0,0,52.79,231a2.07,2.07,0,0,1,2,2.17A2,2,0,0,1,53,235.09c-1,.2-1.76-.28-2.16-1.54-.08-.27-.13-.5-.46-.51a.56.56,0,0,0-.54.28c-.33.56-.67,1.11-1,1.66a.43.43,0,0,0,.07.58,1.8,1.8,0,0,0,1,.71c1.77.42,2.2,1.68,1.22,3.35l-.34-.37a7,7,0,0,0,.23-.74,1.3,1.3,0,0,0-.62-1.43.43.43,0,0,0-.48-.06c-.07,0-.09.23-.1.35,0,.49.21,1-.23,1.45a3.27,3.27,0,0,0-1.88.22c-.13-.25-.06-.63-.46-.7a.82.82,0,0,0-.9.34,9.53,9.53,0,0,1-1.08,1.12c-.36.31-.25.55,0,.88s.55.33.89.4a1.93,1.93,0,0,1,1.57,2.62,4.4,4.4,0,0,1-.41,1,1.71,1.71,0,0,1-2.35.7,2.27,2.27,0,0,1-1.39-1.74c-.18-1-.79-1.17-1.57-.55-.2.16-.39.35-.59.51-.75.63-.77.77-.25,1.55a1.7,1.7,0,0,0,.94.63,2.06,2.06,0,0,1,1.33,2.5,2.23,2.23,0,0,1-2.4,1.57,2,2,0,0,1-2-2,2.09,2.09,0,0,0-.34-1.21c-.41-.63-.41-.63-1.19-.12a.8.8,0,0,0-.53.53,3,3,0,0,0-.2,3.93c.57.87,1.09,1.77,1.64,2.66.13.21.29.58.45.58.6,0,.44.31.35.66s.15.49.25.73c.33.75.68,1.5,1,2.27a14.87,14.87,0,0,1,1.14,7.63,19.85,19.85,0,0,0-.07,3,4.52,4.52,0,0,0,.18,1.15c.09.38.42.44.65.12s.25-.63.75-.41c.27.12.55-.18.82-.32A15.39,15.39,0,0,1,47,267.78a37.86,37.86,0,0,1,4.71-1,42.87,42.87,0,0,1,9.87-.19c1.9.17,3.79.4,5.69.58a13.38,13.38,0,0,0,4.14-.28c.85-.18,1.13-.46,1.23-1.28a24.53,24.53,0,0,0-.06-8c-1.25-6.12-2.55-12.23-4-18.31-.72-3.13-1.43-6.26-2-9.41-.16-.87.08-1.85-.69-2.56a.24.24,0,0,1,0-.34c.37-.44.12-.92,0-1.37-.2-1.2-.44-2.39-.68-3.58a110.8,110.8,0,0,0-2.76-11.23c-.19-.61-.73-1-.87-1.53s-.06-1.19-.27-1.79A55.37,55.37,0,0,0,59,202.17a.8.8,0,0,0-.93-.51,13.28,13.28,0,0,1-2.6.05c-.64-.05-.68,0-.78.72s-.19,1.55-.31,2.32c-.31,1.91-.31,1.91,1.73,2.07a.83.83,0,0,0,.54-.23h.26a1.05,1.05,0,0,0,.75.27h0l.27.23Zm17.61,59a1.33,1.33,0,0,0,1.07-.25,2.52,2.52,0,0,1,.56-.3c.74-.2,1-.66,1.08-1.41a15.82,15.82,0,0,0,0-3.37,66.64,66.64,0,0,0-2-11.39c-1.19-4.57-2.25-9.18-3.35-13.77-1.25-5.22-1.51-10.55-2-15.86,0-.22,0-.45.28-.51s.41.13.51.32a4.77,4.77,0,0,1,.43,2.14,66.33,66.33,0,0,0,.87,9.33c.84,4.83,2,9.59,3.21,14.34A113.16,113.16,0,0,1,78.85,258a24.21,24.21,0,0,1,.36,5.57c-.13,1.45-.08,1.5,1.29,1.08,1-.3,1.17-.56,1.25-1.57a11.29,11.29,0,0,0,0-1.3,86.93,86.93,0,0,0-.8-8.68c-.33-2.41-1.07-4.73-1.61-7.1-.8-3.51-1.59-7-2.55-10.49a96.32,96.32,0,0,1-2.14-9.78c-.6-3.6-.9-7.23-1.23-10.86a30.89,30.89,0,0,0-1.8-8.24c-1.89-5-4.28-9.77-6.62-14.57a39.69,39.69,0,0,0-3.12-4.47,1.22,1.22,0,0,0-1.6-.47,3.38,3.38,0,0,1-.88.24c-2.15.19-3.33,1.67-4.41,3.3a1,1,0,0,0-.08.88,7.11,7.11,0,0,0,.34,1,80.05,80.05,0,0,0,4.15,8.54,54.77,54.77,0,0,1,5,12.82,132.65,132.65,0,0,1,3,15c.49,3.39,1.33,6.71,2.08,10.06,1.29,5.75,2.49,11.53,3.77,17.29a26.29,26.29,0,0,1,.27,9.44c-.15,1.1,0,1.23,1,.94A2.22,2.22,0,0,0,75.51,266.14ZM35.82,255.57a5,5,0,0,0,1.68-.11c.44-.12.53-.39.35-.78s-.29-.53-.44-.79c-.62-1-1.26-2.07-1.86-3.12a3.44,3.44,0,0,1,.3-3.9A5.37,5.37,0,0,1,37,245.66a2.47,2.47,0,0,0,.49-.42c.28-.35,0-.66-.17-.93s-.44-.08-.64.07a5.31,5.31,0,0,0-.93,1.08c-1.42,1.85-2.58,3.91-4.35,5.47-.62.55-.75,1.39-1.38,1.92a.52.52,0,0,0,.06.8,3,3,0,0,0,.64.44A14,14,0,0,0,35.82,255.57ZM54,192.17a1.86,1.86,0,0,0-.2.43,21.92,21.92,0,0,0,.55,7.57c.07.3.21.61.56.64a10.73,10.73,0,0,0,2.83,0,.28.28,0,0,0,.23-.39,4.81,4.81,0,0,0-.29-.71c-1.2-2.25-2.22-4.58-3.19-6.93C54.36,192.53,54.33,192.24,54,192.17ZM38,241a.93.93,0,0,0-.24.05,1.36,1.36,0,0,0-.52,1.61,31.13,31.13,0,0,0,2.45,4.41c.49.64,1,.88,1.4.61s.3-.89-.14-1.54a12.61,12.61,0,0,1-.88-1.44c-.54-1.09-1.1-2.16-1.65-3.24C38.34,241.27,38.26,241.06,38,241Zm4-2.66-.48.11c-.39.1-.49.29-.24.65.71,1,1.4,2.06,2.11,3.09a3,3,0,0,0,1.13,1,.62.62,0,0,0,.72-.07.6.6,0,0,0,.18-.7,6,6,0,0,0-.41-.8c-.71-1.14-1.85-1.93-2.55-3.08A.55.55,0,0,0,42.06,238.34ZM53.73,227a1,1,0,0,0-.24-1,14.74,14.74,0,0,1-2.15-3c-.42-.76-.62-.67-1.37-.39a.38.38,0,0,0-.23.61,15.91,15.91,0,0,0,2.57,3.37,1.64,1.64,0,0,0,1,.51A1,1,0,0,0,53.73,227Zm-8.36,6a.5.5,0,0,0,0,.12A10.49,10.49,0,0,0,48,237.91a1.39,1.39,0,0,0,.41.31c.19.1.41.21.61.08a.47.47,0,0,0,.15-.58,3.6,3.6,0,0,0-1-1.82,7.4,7.4,0,0,1-1.81-2.51,2.48,2.48,0,0,0-.43-.64.36.36,0,0,0-.47,0C45.37,232.81,45.38,232.94,45.37,233.07ZM41,237.84a11.91,11.91,0,0,1,5.08-.21.76.76,0,0,0,.26,0c.17-.05.33-.17.21-.36-.39-.67-.74-1.39-1.71-1.33a8.89,8.89,0,0,1-1-.06A2.7,2.7,0,0,0,41,237.84Zm6.91-9.14a25.63,25.63,0,0,0,2.83,3.46,2.56,2.56,0,0,0,1,.76c.18.06.36.09.47-.08a.48.48,0,0,0,.05-.35,3.37,3.37,0,0,0-1-1.61,11.66,11.66,0,0,1-1.61-1.83C49.13,228.32,49.11,228.33,47.94,228.7Zm4-12.52a.39.39,0,0,0-.27.43,5.39,5.39,0,0,0,2.4,4.12,1,1,0,0,0,.48.17.56.56,0,0,0,.57-.21c.14-.22,0-.41-.12-.59a42.79,42.79,0,0,1-2.81-3.73A.87.87,0,0,0,51.91,216.18Zm0,11.13a1.6,1.6,0,0,0-1.95-.93,6.91,6.91,0,0,1-1,.1,1.46,1.46,0,0,0-1.2.66c-.16.24-.49.51-.35.78s.52.06.79,0c.85-.09,1.71-.19,2.56-.3C51.07,227.59,51.48,227.67,51.87,227.31Zm-2,5c-.56-.72-.81-1.3-1.36-1.45a4.14,4.14,0,0,0-2.07,0,1.13,1.13,0,0,0-.94,1.22A21.45,21.45,0,0,1,49.86,232.28ZM53.17,221a1.09,1.09,0,0,0-1.41-.79,5.94,5.94,0,0,0-1.6.44,2.35,2.35,0,0,0-1,.82c-.1.17-.25.38-.07.58s.32.09.48,0C50.78,221.74,52,221.38,53.17,221Zm2-6.27c.29,0,.55,0,.66-.22s-.08-.41-.24-.55c-.54-.49-1.1-1-1.66-1.45-.26-.22-.52-.45-.8-.66s-.5-.07-.54.25a1.09,1.09,0,0,0,.14.75,5.64,5.64,0,0,0,1.78,1.69A2.39,2.39,0,0,0,55.2,214.73ZM42.33,242c-.63-1.54-1.38-2-2.7-1.68-.3.06-.62.18-.62.55a.67.67,0,0,0,.51.67A12,12,0,0,0,42.33,242Zm11.55-34.89s-.09,0-.22,0a.64.64,0,0,0-.61.57c-.07.36.13.56.48.64.75.17,1.5.37,2.27.51.27.06.66.15.8-.2s-.22-.61-.48-.8A4.61,4.61,0,0,0,53.88,207.15ZM46.14,241.8c-.11.59.17,1.16-.22,1.66s-1,.43-1.62.62c.52.69,1.06,1,1.75.8a1.91,1.91,0,0,0,1.09-1.76C47.23,242.41,46.84,242,46.14,241.8Zm5.39-8.06c.48.77.73.9,1.4.74a1.35,1.35,0,0,0,1.14-1.24,1.63,1.63,0,0,0-.93-1.58c-.13,0-.29,0-.28.17s.1.43.12.64c.06.84-.12,1.06-1,1.17C51.84,233.66,51.67,233.59,51.53,233.74Zm1.8-5.67c1.05.54,1.61.42,2-.36a1.42,1.42,0,0,0-.53-2.1.7.7,0,0,0-.49,0c-.22.08-.09.27-.05.42C54.61,227.27,54.59,227.32,53.33,228.07ZM42.11,246.52c-.26,1.81-.26,1.81-2.24,1.91.1.52.49.67.93.73a1.8,1.8,0,0,0,1.47-.32C43,248.28,42.92,247.48,42.11,246.52Zm-1.61,16a12.68,12.68,0,0,0-2-6.27.29.29,0,0,0-.13.33C39,258.55,40,260.43,40.5,262.48ZM54.18,221.7c.86.73,1.61.75,2.15.1a1.54,1.54,0,0,0-.31-2.28.43.43,0,0,0-.35-.09c-.21.1-.1.26,0,.43.41,1.09.29,1.35-.79,1.69C54.64,221.61,54.43,221.64,54.18,221.7Zm-6.85,10.91c-.27,0-.42.16-.32.42a4.73,4.73,0,0,0,.73,1.34c.2.25.43.26.61,0s.8-.84.61-1.32-.84-.2-1.26-.36A2.38,2.38,0,0,0,47.33,232.61Zm-1.91,5.65a3.09,3.09,0,0,0-2.14,0c.89,1.56,1,1.57,2.06.24C45.37,238.5,45.37,238.45,45.42,238.26Zm-.63-2.89c.21,0,.55.09.56-.28a1.22,1.22,0,0,0-.46-1.11c-.17-.13-.81.62-.8,1S44.51,235.28,44.79,235.37Zm5.11-9.56c.17-.07.55.1.51-.29a.68.68,0,0,0-.53-.64c-.38,0-.41.36-.45.62S49.66,225.78,49.9,225.81Zm-2.83,3.94c0,.32.19.35.4.38s.48,0,.46-.26a.53.53,0,0,0-.47-.53C47.21,229.33,47.15,229.57,47.07,229.75ZM39.83,242.6c0,.32.33.66.54.58s.45-.22.41-.44c-.07-.38-.44-.35-.73-.37A.2.2,0,0,0,39.83,242.6ZM52,222c-.19,0-.33.14-.27.36s.15.33.34.32.25-.21.24-.38S52.19,222,52,222Zm-1.5,6.33c-.13,0-.3.06-.24.23s.16.36.28.38.28-.16.3-.34S50.63,228.37,50.47,228.35Zm1.2-9-.09.08s.05.09.08.09.06-.05.1-.08Z"/><path class="cls-14" d="M40.06,238.93c.15.32.84.08.75.55s-.64.18-1,.25a.78.78,0,0,1-.26,0C39.68,239.41,39.73,239.09,40.06,238.93Z"/><path class="cls-15" d="M75.51,266.14c.5-2.61,0-5.18-.28-7.77a59.11,59.11,0,0,0-1.93-9c-1.17-4.1-1.88-8.29-2.69-12.46-1.15-5.92-2-11.89-3-17.83a51.08,51.08,0,0,0-3-10.5,132.31,132.31,0,0,0-5.52-12.49c-.7-1.3-1.55-2.51-2.3-3.78a2.31,2.31,0,0,1-.54-1.3c.54.15.71.58.94.92a45.53,45.53,0,0,1,3.34,5.73,134.69,134.69,0,0,1,5.33,12.58,52.17,52.17,0,0,1,2.57,10.47c1.22,7.93,2.54,15.84,4.17,23.7.6,2.84,1.4,5.64,2.11,8.46a62.37,62.37,0,0,1,1.52,9.89,12.39,12.39,0,0,1-.15,2.72c0,.38.18.43.47.43A1.33,1.33,0,0,1,75.51,266.14Z"/><path class="cls-16" d="M51.87,227.31c-.39.36-.8.28-1.18.33-.85.11-1.71.21-2.56.3-.27,0-.62.34-.79,0s.19-.54.35-.78a1.46,1.46,0,0,1,1.2-.66,6.91,6.91,0,0,0,1-.1A1.6,1.6,0,0,1,51.87,227.31Z"/><path class="cls-16" d="M49.86,232.28a21.45,21.45,0,0,0-4.37-.27,1.13,1.13,0,0,1,.94-1.22,4.14,4.14,0,0,1,2.07,0C49.05,231,49.3,231.56,49.86,232.28Z"/><path class="cls-17" d="M53.17,221c-1.21.38-2.39.74-3.57,1.09-.16,0-.35.11-.48,0s0-.41.07-.58a2.35,2.35,0,0,1,1-.82,5.94,5.94,0,0,1,1.6-.44A1.09,1.09,0,0,1,53.17,221Z"/><path class="cls-18" d="M55.2,214.73a2.39,2.39,0,0,1-.66-.19,5.64,5.64,0,0,1-1.78-1.69,1.09,1.09,0,0,1-.14-.75c0-.32.27-.44.54-.25s.54.44.8.66c.56.48,1.12,1,1.66,1.45.16.14.35.32.24.55S55.49,214.7,55.2,214.73Z"/><path class="cls-19" d="M42.33,242a12,12,0,0,1-2.81-.46.67.67,0,0,1-.51-.67c0-.37.32-.49.62-.55C41,240.06,41.7,240.5,42.33,242Z"/><path class="cls-20" d="M53.88,207.15a4.61,4.61,0,0,1,2.24.72c.26.19.66.37.48.8s-.53.26-.8.2c-.77-.14-1.52-.34-2.27-.51-.35-.08-.55-.28-.48-.64a.64.64,0,0,1,.61-.57C53.79,207.14,53.92,207.16,53.88,207.15Z"/><path class="cls-21" d="M57.08,212.79a2,2,0,0,1,.49,3,1.76,1.76,0,0,1-1.83.7,1.51,1.51,0,0,1-1.36-1.34H56l-.81.35c1,.62,1.79.34,2.05-.66a1.68,1.68,0,0,0-.57-1.73Z"/><path class="cls-19" d="M46.14,241.8c.7.21,1.09.61,1,1.32a1.91,1.91,0,0,1-1.09,1.76c-.69.24-1.23-.11-1.75-.8.6-.19,1.23-.12,1.62-.62S46,242.39,46.14,241.8Z"/><path class="cls-22" d="M49.55,238.82c.44-.43.21-1,.23-1.45,0-.12,0-.3.1-.35a.43.43,0,0,1,.48.06,1.3,1.3,0,0,1,.62,1.43,7,7,0,0,1-.23.74c-1.28.84-1.61.82-2.28-.15C48.84,239,49.28,239.2,49.55,238.82Z"/><path class="cls-20" d="M51.53,233.74c.14-.15.31-.08.47-.1.86-.11,1-.33,1-1.17,0-.21-.12-.42-.12-.64s.15-.21.28-.17a1.63,1.63,0,0,1,.93,1.58,1.35,1.35,0,0,1-1.14,1.24C52.26,234.64,52,234.51,51.53,233.74Z"/><path class="cls-23" d="M53.33,228.07c1.26-.75,1.28-.8.93-2.08,0-.15-.17-.34.05-.42a.7.7,0,0,1,.49,0,1.42,1.42,0,0,1,.53,2.1C54.94,228.49,54.38,228.61,53.33,228.07Z"/><path class="cls-24" d="M42.11,246.52c.81,1,.84,1.76.16,2.32a1.8,1.8,0,0,1-1.47.32c-.44-.06-.83-.21-.93-.73C41.85,248.33,41.85,248.33,42.11,246.52Z"/><path class="cls-25" d="M40.5,262.48c-.53-2.05-1.52-3.93-2.13-5.94a.29.29,0,0,1,.13-.33A12.68,12.68,0,0,1,40.5,262.48Z"/><path class="cls-26" d="M54.18,221.7c.25-.06.46-.09.66-.15,1.08-.34,1.2-.6.79-1.69-.06-.17-.17-.33,0-.43a.43.43,0,0,1,.35.09,1.54,1.54,0,0,1,.31,2.28C55.79,222.45,55,222.43,54.18,221.7Z"/><path class="cls-27" d="M56.71,213.14a1.68,1.68,0,0,1,.57,1.73c-.26,1-1.08,1.28-2.05.66l.81-.35c.72-.64.72-.67.1-1.6-.09-.13-.29-.23-.14-.42s.3-.1.46-.07Z"/><path class="cls-28" d="M47.33,232.61a2.38,2.38,0,0,1,.37.06c.42.16,1.09-.09,1.26.36s-.35.9-.61,1.32-.41.27-.61,0A4.73,4.73,0,0,1,47,233C46.91,232.77,47.06,232.64,47.33,232.61Z"/><path class="cls-29" d="M49.55,238.82c-.27.38-.71.19-1.08.28.67,1,1,1,2.28.15l.34.37c-1.27,1.31-2.64,1.09-3.42-.58A3.27,3.27,0,0,1,49.55,238.82Z"/><path class="cls-30" d="M45.42,238.26c-.05.19-.05.24-.08.27-1.08,1.33-1.17,1.32-2.06-.24A3.09,3.09,0,0,1,45.42,238.26Z"/><path class="cls-31" d="M57.87,208a.25.25,0,0,0,.06.2v.78l-.1.4-.23.37h0l-.28.26h0a4.87,4.87,0,0,1-.85,0c-.41-.07-.28-.3-.08-.5,1.19-.42,1.27-.8.4-1.84l-.16-.53h.42l.33.21,0,0,.24.24v0Z"/><path class="cls-32" d="M56.4,209.48c-.2.2-.33.43.08.5a4.87,4.87,0,0,0,.85,0l.49.26c-1.21.79-1.93.59-2.61-.76Z"/><path class="cls-33" d="M44.79,235.37c-.28-.09-.68,0-.7-.4s.63-1.12.8-1a1.22,1.22,0,0,1,.46,1.11C45.34,235.46,45,235.33,44.79,235.37Z"/><path class="cls-34" d="M37.45,246.49a4.31,4.31,0,0,1,.3,1.62c0,.15,0,.37-.26.36s-.25-.2-.29-.37c-.09-.36,0-.78-.28-1.08A.8.8,0,0,1,37.45,246.49Z"/><path class="cls-31" d="M49.9,225.81c-.24,0-.52,0-.47-.31s.07-.66.45-.62a.68.68,0,0,1,.53.64C50.45,225.91,50.07,225.74,49.9,225.81Z"/><path class="cls-35" d="M47.07,229.75c.08-.18.14-.42.39-.41a.53.53,0,0,1,.47.53c0,.3-.26.27-.46.26S47,230.07,47.07,229.75Z"/><path class="cls-36" d="M39.83,242.6a.2.2,0,0,1,.22-.23c.29,0,.66,0,.73.37,0,.22-.2.37-.41.44S39.84,242.92,39.83,242.6Z"/><path class="cls-37" d="M52,222c.22,0,.3.11.31.3s0,.38-.24.38-.3-.15-.34-.32S51.78,222.07,52,222Z"/><path class="cls-38" d="M50.47,228.35c.16,0,.35,0,.34.27s-.13.38-.3.34-.23-.23-.28-.38S50.34,228.39,50.47,228.35Z"/><path class="cls-32" d="M56.64,207.11l.16.53C56.54,207.52,56.33,207.39,56.64,207.11Z"/><path class="cls-32" d="M57.93,208.93v-.78A.58.58,0,0,1,57.93,208.93Z"/><path class="cls-32" d="M58.44,208.1a.71.71,0,0,1,0,.89C58.43,208.69,58.44,208.4,58.44,208.1Z"/><path class="cls-32" d="M56.86,206.59a.7.7,0,0,1,.75.27A1.05,1.05,0,0,1,56.86,206.59Z"/><path class="cls-32" d="M56.06,206.82a.48.48,0,0,1,.54-.23A.83.83,0,0,1,56.06,206.82Z"/><path class="cls-32" d="M58.39,209.19a.53.53,0,0,1-.23.58A1,1,0,0,1,58.39,209.19Z"/><path class="cls-32" d="M58.14,207.4a.51.51,0,0,1,.25.49A.71.71,0,0,1,58.14,207.4Z"/><path class="cls-32" d="M57.39,207.33l-.33-.21Z"/><path class="cls-32" d="M57.33,210l.28-.26Z"/><path class="cls-32" d="M57.65,207.59l-.24-.24Z"/><path class="cls-32" d="M57.6,209.7l.23-.37Z"/><path class="cls-32" d="M57.87,208l-.21-.34Z"/><path class="cls-32" d="M57.63,206.87a.27.27,0,0,1,.27.23Z"/><path class="cls-32" d="M58.05,210a.19.19,0,0,1-.2.21Z"/><path class="cls-32" d="M57.9,207.1a.29.29,0,0,1,.23.28Z"/><path class="cls-39" d="M51.67,219.32l.09.09s-.07.08-.1.08,0-.06-.08-.09Z"/><path class="cls-40" d="M52.9,250.34a10.75,10.75,0,0,1,3.35.81A14,14,0,0,1,61.6,255a3.49,3.49,0,0,1,.47.62,1.06,1.06,0,0,1-.09,1.32,19.94,19.94,0,0,1-6.2,5.28,8.44,8.44,0,0,1-2.35.73,3.11,3.11,0,0,1-3.78-3.45,6.31,6.31,0,0,1,.63-2.24c.39-.79.39-.81-.31-1.28a3,3,0,0,1-1.21-1.48,2.45,2.45,0,0,1,.56-2.76A4.77,4.77,0,0,1,52.9,250.34Zm0,.73a4,4,0,0,0-2.56.67,2.07,2.07,0,0,0,.1,3.7c.33.2.71.33,1.05.51s.48.45.1.78A3.81,3.81,0,0,0,50.37,260a2.25,2.25,0,0,0,2.35,2.26,5,5,0,0,0,1.15-.14,9.3,9.3,0,0,0,3.28-1.53,22.92,22.92,0,0,0,3.45-3.15c1-1.1,1.16-1.05.1-2.49a3.18,3.18,0,0,0-.54-.56,14.68,14.68,0,0,0-4.9-2.87A7.47,7.47,0,0,0,52.94,251.07Z"/><path class="cls-41" d="M67.35,236.43a2,2,0,0,1-2.12,2,1.93,1.93,0,0,1,0-3.85A2,2,0,0,1,67.35,236.43Zm-2.18-1.18A1.15,1.15,0,0,0,64,236.51a1.32,1.32,0,0,0,1.35,1.3,1.44,1.44,0,0,0,1.37-1.46A1.39,1.39,0,0,0,65.17,235.25Z"/><path class="cls-42" d="M71,264.4c-.35.82-1.11,1-1.82,1.23a6.71,6.71,0,0,1-4.87-.07c1.13-.15,2.27.07,3.41-.13A20.42,20.42,0,0,0,71,264.4Z"/><path class="cls-42" d="M71,261.92c0,.06.08.11.07.12a5.4,5.4,0,0,1-4.33,2.42c-.16,0-.37,0-.4-.23s.21-.24.35-.25a6.5,6.5,0,0,0,3.48-1.58C70.41,262.21,70.6,261.86,71,261.92Z"/><path class="cls-43" d="M70.7,260.48a5.75,5.75,0,0,1-3.33,2.42c-.17,0-.35,0-.4-.2,0-.06.06-.19.11-.2a10.19,10.19,0,0,0,3.16-2S70.32,260.5,70.7,260.48Z"/><path class="cls-44" d="M70.32,258c-.25,1.58-1.32,2.27-2.41,3a.26.26,0,0,1-.23-.05.18.18,0,0,1,0-.31A29.18,29.18,0,0,0,70.32,258Z"/><path class="cls-45" d="M41.65,252.75a2.6,2.6,0,0,1-1.22,1,.39.39,0,0,1-.33-.12,2.5,2.5,0,0,1-.53-1,.23.23,0,0,1,.16-.3.28.28,0,0,1,.23,0,1.17,1.17,0,0,1,.24.3c.19.38.42.33.71.1a1.74,1.74,0,0,1,.55-.3C41.58,252.39,41.7,252.5,41.65,252.75Z"/><path class="cls-46" d="M69.8,256.76a3.22,3.22,0,0,1-1.33,1.77.33.33,0,0,1-.24,0c-.16-.08-.13-.22,0-.32l1.37-1.65Z"/><path class="cls-47" d="M70,254.17a3.12,3.12,0,0,1-1.2,2.31c-.12.12-.29.24-.45.12s0-.31.07-.43Z"/><path class="cls-48" d="M61.6,218c-.08.14-.11.3-.2.34s-.33-.07-.37-.23c-.11-.41-.31-.83,0-1.24,0,0,.09,0,.13,0C61.6,217.12,61.41,217.63,61.6,218Z"/><path class="cls-49" d="M43.45,250.29c.23,0,.31.12.3.24a1.81,1.81,0,0,1-1,1.09.19.19,0,0,1-.23-.23A2.46,2.46,0,0,1,43.45,250.29Z"/><path class="cls-50" d="M69.35,252.79a2.34,2.34,0,0,1-.85,1.68c-.08.08-.22.16-.32,0a.28.28,0,0,1,0-.23A4.4,4.4,0,0,1,69.35,252.79Z"/><path class="cls-51" d="M38.32,249.69c.37.06.9,1.05.71,1.35a.34.34,0,0,1-.09.08.2.2,0,0,1-.13,0,1.72,1.72,0,0,1-.68-1.31S38.26,249.73,38.32,249.69Z"/><path class="cls-52" d="M41.87,256c0,.1-.06.2-.12.24a.24.24,0,0,1-.23,0c-.37-.26-.71-1.07-.55-1.3,0-.06.18-.11.22-.08A1.91,1.91,0,0,1,41.87,256Z"/><path class="cls-53" d="M42.45,261.11a4.47,4.47,0,0,1,.07-.47.2.2,0,0,1,.16-.15.21.21,0,0,1,.2.1,1.23,1.23,0,0,1,.15.47c0,.32.18.83-.21.87S42.55,261.43,42.45,261.11Z"/><path class="cls-54" d="M56.34,231.43c-.1.3-.11.71-.45,1a.25.25,0,0,1-.22,0c-.26-.39,0-.72.12-1.08s.19-.43.43-.36S56.39,231.19,56.34,231.43Z"/><path class="cls-55" d="M57.46,225.72c-.07.34,0,.78-.4,1-.24.11-.33-.39-.18-1.1a1,1,0,0,1,.08-.24c.06-.1.14-.22.29-.18a.28.28,0,0,1,.2.28A2.26,2.26,0,0,1,57.46,225.72Z"/><path class="cls-56" d="M59,214.13c0,.17,0,.34-.08.5s-.11.46-.37.43-.22-.31-.21-.51a2.08,2.08,0,0,1,.07-.5c.06-.23.11-.57.44-.48S59,213.92,59,214.13Z"/><path class="cls-57" d="M59.67,209.17a2,2,0,0,1,.66-1.16c.1-.09.3,0,.29.14a1.61,1.61,0,0,1-.64,1.21C59.87,209.45,59.74,209.36,59.67,209.17Z"/><path class="cls-58" d="M61,212.23c0-.53.06-.92.36-1.21a.25.25,0,0,1,.22,0c.3.35,0,.73,0,1.09s-.13.44-.4.38A.3.3,0,0,1,61,212.23Z"/><path class="cls-59" d="M62.47,222.54a1.58,1.58,0,0,1,.66,1.27A.28.28,0,0,1,63,224c-.34,0-.86-1-.69-1.32C62.28,222.58,62.39,222.57,62.47,222.54Z"/><path class="cls-60" d="M63.83,225.07a1.62,1.62,0,0,1,.9,1.11c0,.13-.1.27-.25.2a1.76,1.76,0,0,1-.9-1C63.53,225.21,63.64,225.09,63.83,225.07Z"/><path class="cls-61" d="M55.29,233.73c.13.05.22.13.2.28-.07.55-.43,1.15-.69,1.15a.28.28,0,0,1-.11,0c-.16-.18.05-.91.38-1.29C55.12,233.77,55.22,233.76,55.29,233.73Z"/><path class="cls-53" d="M56.93,228.64c-.1.32,0,.88-.39.84s-.18-.55-.18-.86a.66.66,0,0,1,.1-.37.63.63,0,0,1,.31-.19s.11.13.13.2A2.53,2.53,0,0,1,56.93,228.64Z"/><path class="cls-61" d="M49.49,243.82c0,.07.12.12.14.19a.34.34,0,0,1-.06.24c-.29.32-.42.86-1,.82,0,0-.08,0-.09-.08-.06-.27.51-1,.88-1.17Z"/><path class="cls-52" d="M43.32,264.33a2,2,0,0,1,0,.31c0,.12-.07.25-.23.22a.3.3,0,0,1-.19-.14,1.81,1.81,0,0,1-.14-1.1c0-.12.08-.27.23-.22a.4.4,0,0,1,.25.24A3.91,3.91,0,0,1,43.32,264.33Z"/><path class="cls-56" d="M54.12,236.39c.14,0,.24.15.21.27a9.9,9.9,0,0,1-.38,1,.33.33,0,0,1-.41.23c-.17-.07-.17-.29-.1-.45s.3-.61.47-.91C53.94,236.43,54.05,236.42,54.12,236.39Z"/><path class="cls-49" d="M41.94,257.89c0-.08.07-.25.15-.28a.29.29,0,0,1,.38.23,8.29,8.29,0,0,1,.25.85.3.3,0,0,1-.22.39c-.15.05-.23-.07-.29-.17A2.56,2.56,0,0,1,41.94,257.89Z"/><path class="cls-62" d="M51.2,241.47a1.3,1.3,0,0,1,.18.15.19.19,0,0,1,0,.13c-.13.49-.72,1.12-1,1.05,0,0-.07-.06-.09-.09-.12-.23.36-1,.77-1.22C51.11,241.47,51.16,241.48,51.2,241.47Z"/><path class="cls-63" d="M43.28,267c-.06.25.09.74-.25.74-.5,0-.23-.53-.3-.83a.53.53,0,0,1,0-.25c0-.17.08-.37.31-.34s.2.23.22.39Z"/><path class="cls-64" d="M58,222.76a1.68,1.68,0,0,1-.39,1s-.18,0-.22,0c-.28-.37,0-.71.06-1.07s.16-.43.41-.36S58,222.58,58,222.76Z"/><path class="cls-50" d="M58.62,217.16c-.06.28.05.78-.3.75s-.2-.52-.24-.82a.8.8,0,0,1,0-.26c0-.17.1-.36.31-.33s.2.24.21.41A2.09,2.09,0,0,1,58.62,217.16Z"/><path class="cls-43" d="M61.64,219.72a.23.23,0,0,1,.29.18,8.15,8.15,0,0,1,.22.85c0,.17,0,.36-.2.41s-.28-.13-.32-.29-.12-.57-.17-.86A.27.27,0,0,1,61.64,219.72Z"/><path class="cls-65" d="M47.57,246.06c.14.1.23.21.15.33-.18.27-.38.54-.59.8a.32.32,0,0,1-.44.11c-.19-.14-.07-.31,0-.44a7.1,7.1,0,0,1,.56-.67A.67.67,0,0,1,47.57,246.06Z"/><path class="cls-66" d="M44.59,249.28c0-.32.78-1.05,1-1,0,0,.12.13.12.19,0,.39-.69,1-1,1C44.69,249.43,44.64,249.33,44.59,249.28Z"/><path class="cls-44" d="M52.76,239c.12.06.21.18.16.29-.18.41-.28.9-.81,1,0,0-.18-.1-.17-.14a1.89,1.89,0,0,1,.69-1.17S52.72,239,52.76,239Z"/><path class="cls-50" d="M58.33,220.11a2.47,2.47,0,0,1,0,.36c0,.16-.06.37-.28.36s-.23-.21-.24-.37a3,3,0,0,1,0-.52c0-.2,0-.49.3-.48s.2.3.23.5A.74.74,0,0,1,58.33,220.11Z"/><path class="cls-45" d="M58.84,211.75c.07-.35,0-.77.36-1,.09-.07.16,0,.21.07a1.52,1.52,0,0,1-.23,1.33c-.11.09-.24,0-.3-.1A1.93,1.93,0,0,1,58.84,211.75Z"/><path class="cls-41" d="M61.12,215.35A1.05,1.05,0,0,1,61,214s.1,0,.12,0A1.27,1.27,0,0,1,61.12,215.35Z"/><path class="cls-56" d="M32.05,252.82c.46,0,1.26.41,1.28.68a.21.21,0,0,1,0,.11c-.19.22-1,0-1.37-.41a.28.28,0,0,1-.05-.23C31.89,252.91,32,252.87,32.05,252.82Z"/><path class="cls-67" d="M35.42,253.72c.13,0,.34.05.54.11a.25.25,0,0,1,.21.28.26.26,0,0,1-.28.19,8.65,8.65,0,0,1-.88-.05c-.16,0-.34-.12-.31-.32s.23-.2.39-.21Z"/><path class="cls-68" d="M52.94,251.07a7.47,7.47,0,0,1,2.32.45,14.68,14.68,0,0,1,4.9,2.87,3.18,3.18,0,0,1,.54.56c1.06,1.44.93,1.39-.1,2.49a22.92,22.92,0,0,1-3.45,3.15,9.3,9.3,0,0,1-3.28,1.53,5,5,0,0,1-1.15.14A2.25,2.25,0,0,1,50.37,260a3.81,3.81,0,0,1,1.26-3.27c.38-.33.34-.54-.1-.78s-.72-.31-1.05-.51a2.07,2.07,0,0,1-.1-3.7A4,4,0,0,1,52.94,251.07Z"/><path class="cls-69" d="M65.17,235.25a1.39,1.39,0,0,1,1.53,1.1,1.44,1.44,0,0,1-1.37,1.46,1.32,1.32,0,0,1-1.35-1.3A1.15,1.15,0,0,1,65.17,235.25Zm.75,1.25a.71.71,0,1,0-1.42.08.71.71,0,0,0,1.42-.08Z"/><path class="cls-70" d="M65.92,236.5a.71.71,0,0,1-1.42.08.71.71,0,1,1,1.42-.08Z"/><path class="cls-68" d="M146.18,77.59a26.16,26.16,0,0,1-2.5,7.81,50.93,50.93,0,0,1-12,15.74,11.83,11.83,0,0,1-2.16,1.64c-5.41,3.06-5.17,2.64-8.54-1.38a77,77,0,0,1-9.45-13.22,32.08,32.08,0,0,1-3.93-12,18.2,18.2,0,0,1,0-4c.64-4.66,4.16-7.61,8.81-7.19,4.32.4,8.21,1.8,10.77,5.71,1,1.47,1.73,1.4,2.72,0,.78-1.11,1.37-2.36,2.2-3.42,3.85-5,9.9-4.42,12.81,1.18A13.84,13.84,0,0,1,146.18,77.59Z"/><path class="cls-68" d="M209.39,212.59a21.71,21.71,0,0,1-2,6.36,41.46,41.46,0,0,1-9.74,12.79,9.38,9.38,0,0,1-1.74,1.34c-4.4,2.48-4.22,2.15-6.95-1.13a62.79,62.79,0,0,1-7.69-10.75,25.92,25.92,0,0,1-3.19-9.71,15.09,15.09,0,0,1,0-3.29,6.41,6.41,0,0,1,7.17-5.84c3.51.32,6.67,1.46,8.75,4.64.79,1.19,1.41,1.14,2.22,0,.63-.9,1.11-1.92,1.78-2.78,3.14-4.05,8.06-3.59,10.42,1A11.22,11.22,0,0,1,209.39,212.59Z"/><path class="cls-68" d="M146.29,257.73a14.45,14.45,0,0,1-1.36,4.23,27.51,27.51,0,0,1-6.47,8.51,5.82,5.82,0,0,1-1.16.88c-2.93,1.66-2.8,1.43-4.62-.75a41.82,41.82,0,0,1-5.11-7.14,17.26,17.26,0,0,1-2.12-6.46,9.44,9.44,0,0,1,0-2.19,4.25,4.25,0,0,1,4.76-3.88A7.19,7.19,0,0,1,136,254c.52.79.94.76,1.48,0,.42-.6.74-1.28,1.18-1.85,2.09-2.7,5.36-2.39,6.93.63A7.53,7.53,0,0,1,146.29,257.73Z"/><path class="cls-92" d="M154.05,70.09c2.66-1.31,5.32-2.61,8-3.94,2.09-1,5-3.33,7.32-3.46a1.62,1.62,0,0,0,1.52-2l-.08-.39a1.94,1.94,0,0,0-1.86-1.39c-2.44-.15-5,2.28-7,3.48q-4.58,2.82-9.13,5.68a1.2,1.2,0,0,0,1.24,2Z"/><path class="cls-92" d="M153.66,61.4c1.39-2.62,2.79-5.23,4.17-7.85,1.09-2.07,2.15-5.65,3.92-7.09a1.61,1.61,0,0,0,.05-2.53l-.29-.27a2,2,0,0,0-2.32,0c-2.07,1.3-2.76,4.79-3.63,6.9q-2.07,5-4.1,10a1.2,1.2,0,0,0,2.2.94Z"/><path class="cls-92" d="M100.66,67.64q-2.46-3.7-4.91-7.41c-1.28-2-2.67-5.41-4.58-6.68a1.61,1.61,0,0,1-.3-2.51l.27-.3a1.94,1.94,0,0,1,2.3-.27c2.19,1.1,3.21,4.5,4.29,6.52q2.53,4.74,5,9.5a1.2,1.2,0,0,1-2.1,1.15Z"/><path class="cls-92" d="M100.51,74.92l-8.8,1.26c-2.32.32-6,.1-8,1.28a1.61,1.61,0,0,1-2.4-.81l-.15-.36a2,2,0,0,1,.74-2.21c1.93-1.5,5.44-1,7.72-1.07l10.75-.48a1.2,1.2,0,0,1,.14,2.39Z"/><path class="cls-92" d="M105.37,60.32q.16-4.44.34-8.88c.1-2.34,1-6,.18-8.1a1.61,1.61,0,0,1,1.22-2.21l.39-.09a1.94,1.94,0,0,1,2,1.12c1.13,2.17,0,5.53-.33,7.8q-.7,5.32-1.46,10.66a1.2,1.2,0,0,1-2.37-.3Z"/><path class="cls-92" d="M152.33,77.16c2.7,1.22,5.41,2.44,8.1,3.68,2.13,1,5.14,3.16,7.43,3.22a1.62,1.62,0,0,1,1.59,2l-.07.39a1.94,1.94,0,0,1-1.81,1.46c-2.43.23-5.11-2.11-7.09-3.25q-4.66-2.67-9.32-5.38a1.2,1.2,0,0,1,1.17-2.09Z"/><rect class="cls-93" x="-3.88" y="1.04" width="270.43" height="328.82"/></svg>