<svg id="Layer_1" data-name="Layer 1" xmlns="http://www.w3.org/2000/svg" viewBox="0 0 267.61 328.44"><defs><style>.cls-1{fill:#010101;}.cls-2{fill:#f9bfcb;}.cls-3{fill:none;}</style></defs><path class="cls-1" d="M79.93,289,61,301.84c-1.43.32-48.27-68.69-47.45-69.89l18.94-12.86C33.9,218.77,80.75,287.77,79.93,289ZM60.78,300.26,78.54,288.2,32.69,220.67,14.93,232.73Z"/><path class="cls-1" d="M28.9,232.6c-.51,0-10.93,8.35-11.2,6.74-1.44-.82,10.29-7.47,10.4-7.92A.71.71,0,0,1,28.9,232.6Z"/><path class="cls-1" d="M28.8,240.93l-6.27,4.26a.71.71,0,0,1-.8-1.18C22.16,244,30.63,236.93,28.8,240.93Z"/><path class="cls-1" d="M36.59,243.93c-.51,0-10.93,8.35-11.2,6.74-1.44-.82,10.29-7.47,10.4-7.92A.71.71,0,0,1,36.59,243.93Z"/><path class="cls-1" d="M36.49,252.26l-6.27,4.26a.71.71,0,0,1-.8-1.18C29.85,255.32,38.32,248.26,36.49,252.26Z"/><path class="cls-1" d="M44.28,255.25c-.51,0-10.93,8.36-11.2,6.75-1.44-.82,10.29-7.47,10.4-7.92A.71.71,0,0,1,44.28,255.25Z"/><path class="cls-1" d="M44.19,263.59l-6.28,4.26a.71.71,0,0,1-.8-1.18C37.54,266.65,46,259.59,44.19,263.59Z"/><path class="cls-1" d="M52,266.58c-.5,0-10.93,8.36-11.2,6.75-1.43-.82,10.29-7.48,10.4-7.93A.71.71,0,0,1,52,266.58Z"/><path class="cls-1" d="M51.88,274.92l-6.28,4.26a.71.71,0,0,1-.8-1.18C45.23,278,53.7,270.91,51.88,274.92Z"/><path class="cls-1" d="M59.66,277.91c-.5,0-10.93,8.36-11.2,6.74-1.43-.82,10.29-7.47,10.4-7.92A.71.71,0,0,1,59.66,277.91Z"/><path class="cls-1" d="M59.57,286.24l-6.28,4.26a.71.71,0,0,1-.8-1.18C52.93,289.3,61.39,282.24,59.57,286.24Z"/><path class="cls-1" d="M67.35,289.24c-.5,0-10.92,8.35-11.2,6.74-1.43-.82,10.29-7.47,10.4-7.92A.71.71,0,0,1,67.35,289.24Z"/><path class="cls-1" d="M51.63,150.6c9.87,3.41,6.58,24.8-1.94,29.55-.79-6.94-6.78-9.22-6.94-15.54C43.88,157.27,45.53,151.11,51.63,150.6Zm2.2,2.92c-5.76-4.91-8.88,4.58-9.66,11.25,0,5.21,5.76,7.43,6.34,13.15C56.34,172.46,57.93,159,53.83,153.52Z"/><path class="cls-1" d="M57,145.22a.71.71,0,0,1,.64.78c-.29,2.47-.2,6.09-2.62,7.58a.7.7,0,0,1-.9,0,4.56,4.56,0,0,0-5.59-.61.7.7,0,0,1-.9-.15c-1.76-2-2-7-.15-8.59Zm-2.41,6.86c1.46-1.15,1.32-3.88,1.56-5.52l-8.11-.87c-.12,1.87-.87,4,.33,5.72A6,6,0,0,1,54.63,152.08Z"/><path class="cls-1" d="M48.54,135.79c.48.35,10.51.39,9.94,1.78-.3,1.47-.38,7.59-1.06,8.91a.72.72,0,0,1-.53.15l-9.52-1a.72.72,0,0,1-.63-.79C47.11,144.47,47.06,135.51,48.54,135.79ZM57,138.14l-7.91-.86c-.26,2.12-.65,5.28-.85,7l8.09.87C56.5,143.44,56.84,139.82,57,138.14Z"/><path class="cls-1" d="M57.8,93.83c4,9,2.14,24.07.43,44.23a.73.73,0,0,1-.53.16l-9.31-1C48.13,123,54.26,95.86,57.8,93.83Zm-.67,42.89c1.56-19.66,2.07-31.42.42-40.56-3.58,8.56-5.61,20.19-8.29,39.71Z"/><path class="cls-1" d="M61.21,187.11a.73.73,0,0,1-.42-.63c.06-.31-.68-18.56-.48-18.83.9-.39,22.78-53.76,24.55-52.8.17.46,16.47,6.49,15.12,7.59-.22.28-23.49,52.53-23.8,52.69L62,187A.71.71,0,0,1,61.21,187.11Zm.47-19L62.17,185l13-10.83L98.39,122.5l-13.46-6.06Z"/><path class="cls-1" d="M61.21,187.11c-.81-.08-.4-5.43-.57-5.91.85-1.89,4.06.62,5.33,1.3a.72.72,0,0,1,0,1.12c-.5.19-4.19,4-4.8,3.49Zm.88-5,.08,2.86,2.19-1.83A10.55,10.55,0,0,0,62.09,182.11Z"/><path class="cls-1" d="M75.58,175.34a27,27,0,0,1-2.1-2.83c-3.59,1.5-3,0-4.71-2.57-.4.07-2.67,1.22-3,.93-.47-.08-1.12-2.57-1.33-2.91l-3.29.68a.71.71,0,0,1-.28-1.4l3.88-.79c1-.31,1.36,2.35,1.72,2.86,3.8-1.84,3.14-.55,5,2.34.58,0,2.53-1.15,2.95-.37C74.61,172,78.27,175.63,75.58,175.34Z"/><path class="cls-1" d="M64.6,168.08c-1.9-.72,22.72-50.54,22.4-51.49a.71.71,0,0,1,1.3.59C87.37,117.6,66.41,169,64.6,168.08Z"/><path class="cls-1" d="M68.52,170.14c-1.9-.69,22.62-50.9,22.29-51.83a.71.71,0,0,1,.94-.36c1.91.69-22.62,50.91-22.29,51.84A.71.71,0,0,1,68.52,170.14Z"/><path class="cls-1" d="M72.88,172.82c-1.89-.7,23.09-51.4,22.78-52.33a.71.71,0,0,1,.94-.36c1.89.7-23.09,51.4-22.78,52.33A.71.71,0,0,1,72.88,172.82Z"/><path class="cls-1" d="M99,122.79l-14.76-6.64c-1.31-.44,1.33-4.09,1.36-4.77,2.54-5.93,9.86-.74,13.6.73,4.54,2,2.53,7.11.74,10.33A.7.7,0,0,1,99,122.79Zm-13.53-7.65L99,121.2c4.88-7.91-2-8.15-7.42-11C88.16,108.62,86.47,112.64,85.51,115.14Z"/><path class="cls-1" d="M190.36,252.25c-1.69-.83-109.54,36-110.41,32.34.82-1.69-30.43-91.24-26.77-92.14,1.69.83,109.54-36,110.41-32.34C162.78,161.79,194,251.35,190.36,252.25ZM82.08,282.56l106.25-32.45-26.86-88L55.21,194.58Z"/><path class="cls-1" d="M180.8,221c-.83.5-31.54-11.3-32.36-11.32l-15,22.43a1.32,1.32,0,0,1-2.19-1.46l15.54-23.29a1.33,1.33,0,0,1,1.54-.51l32.5,11.65A1.32,1.32,0,0,1,180.8,221Z"/><path class="cls-1" d="M76.43,268.57c-7.72,2.23,30.23-47.79,28.91-48a1.31,1.31,0,0,1,1.57-.5L150.49,237c8.16,8.83-44.6-15.59-43.54-14.09C106.25,223.39,77.5,268.52,76.43,268.57Z"/><path class="cls-1" d="M130.33,208.19c-12.2,3.91-18.06-15.3-5.76-18.86C136.75,185.42,142.62,204.63,130.33,208.19Zm-5-16.35c-9,2.62-4.72,16.7,4.22,13.84C138.57,203.06,134.27,189,125.34,191.84Z"/><path class="cls-1" d="M174,160.5a42.12,42.12,0,0,0,37.61,23.29,42.85,42.85,0,0,0,20.83-5.72c7.83-4.47,12.95-11.69,18.75-18.36,1.42-1.63-1.17-3.77-2.58-2.14-5.14,5.9-9.64,12.38-16.32,16.68a39.52,39.52,0,0,1-19.36,6.17c-15,.76-29.07-7.9-36-21a1.6,1.6,0,0,0-2.91-.09"/><path class="cls-1" d="M247.38,157.58c-6.94-.73-14.3.1-21.27.42-1.94.09-2,3.09-.08,3.38a70.21,70.21,0,0,0,23.05-.39l-1.85-1.5c.17,3.58.35,7.16.52,10.73.15,3.2-.18,6.89.87,9.92a1.44,1.44,0,0,0,2.74-.28c.72-3.12,0-6.81-.2-10-.2-3.57-.39-7.15-.59-10.72a1.68,1.68,0,0,0-1.85-1.5,66.53,66.53,0,0,1-22.17.37c0,1.13-.05,2.25-.08,3.38,6.85-.46,14.15-.47,20.87-1.95.95-.21,1.19-1.74,0-1.86Z"/><path class="cls-1" d="M225.38,160q6.09,6,12.15,11.95c1.95,1.94,3.9,3.87,5.84,5.82s3.55,4.18,5.88,5.41c.92.49,2.19-.62,1.7-1.59-1.1-2.19-3.09-3.74-4.82-5.43q-3.13-3.07-6.37-6-6.49-5.91-13.41-11.29a.76.76,0,0,0-1,1.17Z"/><circle class="cls-2" cx="127.45" cy="198.91" r="7.82"/><rect class="cls-3" x="-1.41" y="0.49" width="270.43" height="328.82"/></svg>